<?xml version="1.0" encoding="UTF-8"?>
<svg width="250px" height="350px" viewBox="0 0 250 350" xmlns="http://www.w3.org/2000/svg" xmlns:xlink="http://www.w3.org/1999/xlink" version="1.1">
 <!-- Generated by Pixelmator Pro 2.0.6 -->
 <g id="layer1">
  <path id="path86" d="M0 20 L50 20 50 0 80 0 80 20 110 20 110 0 140 0 140 20 190 20 190 150 250 240 140 330 140 350 110 350 110 330 80 330 80 350 50 350 50 330 0 330 0 300 20 300 20 50 0 50 M80 220 L130 270 170 240 130 180 110 180 110 120 140 120 140 60 80 60" fill="#000000" fill-opacity="1" stroke="none"/>
 </g>
</svg>
