<?xml version="1.0" encoding="UTF-8"?>
<svg width="1165px" height="1280px" viewBox="0 0 1165 1280" xmlns="http://www.w3.org/2000/svg" xmlns:xlink="http://www.w3.org/1999/xlink" version="1.1">
 <!-- Generated by Pixelmator Pro 2.0.6 -->
 <g id="group">
  <path id="Path" d="M462.5 2.5 C459.3 4.4 457 4.8 450.5 4.9 445.1 4.9 441.9 4.5 440.7 3.5 439.2 2.5 438.2 2.4 436.4 3.2 434.6 4 433.1 3.9 429.7 2.6 424.9 0.8 423 1.2 417.5 4.9 413.5 7.6 406.9 7.6 401.2 4.9 397.4 3 395.9 2.8 389.7 3.5 385.7 3.8 376.2 4.3 368.5 4.6 348.6 5.2 347.1 5.5 340.4 10.2 334.7 14.3 328.9 16.2 322.4 16.1 320.6 16 318.7 16.7 318 17.5 317.3 18.3 315.7 19 314.4 19 312.8 19 311.3 20.3 309.3 23.2 307.7 25.6 305.8 27.6 305 27.7 304.2 27.7 299.5 28.4 294.6 29.1 L285.7 30.4 283.4 27.5 C281.2 24.8 280.9 24.7 273.1 24.9 267.8 25 263.8 24.5 261.4 23.5 258.7 22.4 257.3 22.3 255.8 23.1 254.2 24 253.3 23.7 251.4 21.9 250 20.6 248.6 18.3 248.2 16.6 247.2 12.9 245.1 11.5 241.7 12.4 238.8 13.1 234 17.7 234 19.8 234 22.1 227.8 34.3 223.9 39.6 220.3 44.5 219.8 44.8 210.8 47.4 205.7 48.9 200 50.5 198.2 51 196.3 51.4 192.1 54.4 188.6 57.7 185.1 60.9 181.1 64.3 179.7 65.3 178.2 66.3 176.7 68.3 176.4 69.8 175.7 72.7 172.3 77.8 167.8 82.6 165 85.6 164.8 86.3 164.1 97.7 163.6 106.6 162.9 110.5 161.6 112.5 155.7 121.5 142.8 132 137.6 132 135.4 132 132.5 133.3 128.6 136.1 125.4 138.4 120.7 140.8 118.2 141.5 105.9 145 101.1 148.9 95.6 159.7 93.9 163.1 91.6 165.9 89.2 167.4 82.1 171.8 75.4 180.9 73.6 188.5 72.1 194.4 62.6 207.3 56.1 212 49.8 216.5 48.8 217.9 39.6 235.2 36.5 241.1 35.6 242 33.2 242 30 242 26 247.1 26 251.3 26 252.7 25.3 256 24.5 258.4 23.6 260.9 23.2 264.1 23.6 265.4 L24.2 268 25.9 265.8 C28.5 262.7 30.4 264 31.9 269.9 33.3 275.6 32.4 281.9 28.9 289.8 26.5 295.2 26.5 298.1 29 301.3 31.2 304.1 31.5 307.1 29.9 310.2 29.3 311.3 28.4 317 27.9 322.9 27 333.2 24.1 343.8 21.4 347.1 20.6 347.9 20.1 349.9 20.1 351.6 20.2 355.5 18.2 365.8 16.9 368.2 14.9 372 8.8 378 6.9 378 4.8 378 -0 380 -0 380.9 0.1 382.3 3.7 385.9 5.4 386.2 6.9 386.4 7.7 388.2 9.1 394 11.5 403.9 11.5 407.7 9.2 408.4 7.7 408.9 7.5 410 7.8 416.2 8.1 421 8.8 424.1 9.8 425.3 11.2 426.9 11.2 427.2 10 428 9.2 428.6 8.2 429 7.8 429 7.4 429 7.6 430.1 8.2 431.5 9.7 434.7 15 435.1 15 432 15 429.4 18.4 427.6 20.9 429 23.8 430.5 24.6 430.3 28.5 426.9 31.9 423.9 32.3 423.8 38.3 424.4 56.6 426.3 56.2 426.2 55.4 427.9 55 428.8 54.4 431.8 54.2 434.7 53.8 440.6 52.3 442 45 444 42.6 444.6 39.4 446.5 37.7 448.1 35.1 450.7 34.9 451.5 35.4 455.3 35.8 457.6 36.2 461.1 36.4 463 36.6 464.9 36.8 467.1 36.9 467.7 36.9 468.4 40.8 472 45.5 475.6 54 482.3 54.9 483.7 56.5 492 56.9 493.9 58.3 497.4 59.7 499.8 61.2 502.4 61.9 504.8 61.5 506.1 60.4 509.6 62 513.8 66.1 517.7 68.2 519.8 70 522.2 70 523.2 70 525.2 77.9 530 81.3 530 83.1 530 84.1 530.8 85 533 87.1 538.1 89.8 540.8 96.1 544.1 99.4 545.9 102.6 548.3 103.2 549.4 104.2 551.4 109.7 557.5 120.2 568.1 125.2 573.2 131.5 577 135.1 577 136.3 577 138.8 578.6 140.6 580.5 L143.9 584 153.7 578.9 C159.1 576.1 164.7 573.2 166.1 572.4 167.6 571.6 172.3 570.5 176.6 569.9 181 569.3 187.4 568.5 191 568 203.9 566.2 216.4 566.8 224.2 569.5 228.1 570.9 232.4 572.7 233.6 573.5 236.9 575.6 242.6 575.4 244.2 573.1 246.1 570.4 253.4 567 257.4 567 262.4 567 268.3 564.4 271.5 560.8 273.7 558.3 274.7 557.9 277.2 558.4 279 558.7 281.3 558.4 283.2 557.4 284.9 556.5 287.3 556.1 288.5 556.4 290.2 556.8 291.4 556.4 292.7 554.6 294.1 552.9 296.7 551.7 301.6 550.5 305.4 549.6 310.3 548.5 312.5 547.9 325.5 544.8 344.4 545.2 351.4 548.7 355.7 550.9 364 559 364 561 364 562 364.7 563.3 365.5 564 366.3 564.7 367 566 367 567 367 570.5 371.1 577.8 375 581.4 379.7 585.6 383.8 586.1 393.5 583.4 399.9 581.6 409.3 580.9 411.2 582.1 413.4 583.5 417 580.8 417 577.8 417 574.4 417.4 574.4 422.9 577.1 427 579 427.2 579.3 426.6 582.5 426 585.6 426.2 586.1 428.9 587.5 430.6 588.3 432.6 589 433.5 589 435.4 589 442.4 596.2 444.7 600.5 446.1 603.2 446.1 604 444.5 610.2 443.1 615.7 443 617.3 444 618.5 445 619.8 445 620.4 443.7 621.8 441.4 624.3 434.8 639.9 435.5 641 435.8 641.6 436.8 642 437.6 642 439.8 642 439.3 647.8 436.6 652.4 434.2 656.7 432 662.4 429.9 670.2 429.1 672.9 428.2 675 427.7 675 427.2 675 425.7 674.1 424.3 673 422.9 671.9 421.4 671 420.9 671 419.1 671 421.6 674.8 427.7 681.3 433.3 687.3 435.9 691.3 433 689.5 431.2 688.4 431.9 690.1 434.5 693.2 436.2 695.3 436.8 696.9 436.4 698.5 435.9 700.5 436.8 701.6 442.3 705.9 446 708.8 450.1 713.1 451.6 715.7 454.6 721 466.9 733.4 471.1 735.6 473.9 737 481 746.6 481 748.9 481 749.5 482.1 751.7 483.5 753.8 484.9 756 485.9 758.8 485.8 760.8 485.7 762.5 486.4 764.8 487.3 765.8 488.7 767.3 488.8 768.1 487.8 770.7 486.7 773.6 486.9 774.1 490.6 778.5 496.7 785.8 496.9 786.3 498.1 792.6 498.7 795.8 500.7 801.3 502.6 804.7 504.9 808.8 506 812.1 506 814.8 506 818.5 505.7 818.9 502.5 820 498.3 821.4 498 823.6 501.1 829.5 502.2 831.7 504.2 836.1 505.5 839.2 506.8 842.3 509.1 846.6 510.7 848.6 513.4 852.3 513.5 852.6 513.4 864.7 513.2 876.7 513.1 877.2 510.1 881.9 508.4 884.5 505.4 887.5 503.5 888.6 501.4 889.7 498.6 892.7 496.6 896 493.2 901.6 492.4 905.8 491.7 921.5 491.4 927.3 487.7 937.4 484.5 941 481.4 944.4 480.8 947 480.5 956.9 480.3 963 480.7 966.4 481.7 968.4 482.9 970.6 482.9 971.8 482.1 973.7 479.2 980.1 481.1 985.7 489.1 994.5 491.1 996.7 494.5 1001.4 496.7 1005 501.3 1012.7 509 1028.4 509 1030.1 509 1030.7 510.6 1032.7 512.5 1034.5 515 1036.8 516.5 1039.4 517.7 1043.6 518.7 1047 521.7 1052.8 524.9 1057.5 529.2 1063.9 530.3 1066.2 530.1 1069 529.1 1085.2 530.3 1094.7 534.4 1103 536.1 1106.5 536.8 1110 537.3 1118.2 537.8 1126.8 538.4 1129.8 540.4 1133.9 541.8 1136.7 543 1140.4 543 1142.2 543 1144.2 545 1149.1 547.9 1154.4 551.6 1161.4 553.3 1163.6 555.7 1164.4 558.8 1165.6 566 1172.9 566 1175 566 1175.6 566.9 1177.3 567.9 1178.7 569 1180 571.1 1184.8 572.5 1189.3 575.5 1198.5 577.2 1202.1 580.6 1206.7 581.9 1208.4 583 1210.6 583 1211.4 583 1212.3 583.9 1213.5 585 1214.2 586.1 1214.9 587 1216.2 587 1217.1 587 1218 587.7 1219.3 588.6 1220.1 591.5 1222.5 592.7 1226.5 593.3 1235.2 593.7 1242.2 593.5 1243.7 592.4 1243.3 590.8 1242.7 589.5 1247 590.4 1250.3 590.7 1251.6 592.1 1254.2 593.4 1256.1 594.8 1258 596.4 1260.4 596.9 1261.5 597.4 1262.6 598.7 1264.4 599.9 1265.4 601 1266.5 602 1267.8 602 1268.4 602.1 1270.1 605.6 1274 607.2 1274 607.9 1274.1 610.1 1275.4 612 1277 616.7 1281.1 622.6 1281.2 627.2 1277.1 630.6 1274.2 637.8 1272.6 646.5 1272.9 649.8 1273 651.1 1272.5 653.5 1270 655.1 1268.3 657.1 1267.2 657.9 1267.5 658.8 1267.7 663.1 1267.6 667.5 1267.1 672.8 1266.6 678.6 1266.7 684.5 1267.5 692.2 1268.6 693.9 1268.5 696.4 1267.3 698 1266.5 700.4 1266 701.8 1266.3 703.6 1266.6 705.4 1266 707.5 1264.4 709.8 1262.7 712 1262 715.1 1262 720 1262 725.2 1260.4 729.2 1257.8 730.6 1256.9 733.1 1255.8 734.6 1255.4 736.2 1255.1 739.5 1252.8 742 1250.4 744.5 1248.1 749 1244.4 752.2 1242.3 757 1239 764.2 1232.8 767.5 1229 768.1 1228.4 771.3 1226.1 774.7 1224 779.6 1220.9 781.3 1219.2 782.9 1215.5 786.3 1207.8 795.2 1196.9 807.1 1185.9 820.8 1173.2 822.8 1170.2 824 1160.7 824.5 1156.8 825.6 1152.1 826.4 1150.5 828 1147.1 827.8 1140.7 825.9 1134.2 824.1 1128.5 825.8 1125.4 832.6 1122 835.3 1120.6 839.9 1118 842.6 1116.3 845.6 1114.3 849 1113 850.8 1113 854.4 1113 867.5 1107.6 870.3 1105 872.2 1103.3 876 1090.7 876 1086.1 876.1 1084.7 876.7 1082.4 877.5 1081 879.7 1077.2 879.2 1062.2 876.9 1063.5 876.5 1063.8 876.2 1060.3 876.3 1055.8 876.5 1049.1 876 1046.4 874.1 1041.5 872.8 1038.2 870.9 1034.6 869.8 1033.4 865.3 1028.4 870.1 1020.9 882 1014.2 885.1 1012.5 888.6 1010 889.9 1008.6 891.3 1007.2 893.3 1006 894.5 1006 895.9 1006 897.3 1004.8 898.8 1002.2 899.9 1000.2 902.6 996.6 904.7 994.4 906.8 992.1 909.3 989 910.3 987.6 912.9 983.8 935.1 973 940.3 973 944 973 944.9 972.3 957.5 959.8 970.6 946.6 970.7 946.4 972.5 939.5 973.5 935.6 975.1 931.6 976.2 930.4 978.6 927.7 978.5 926.3 975.3 921.8 972.7 918 972.7 917.8 974.1 912.2 974.8 909.1 975.4 905.8 975.3 905 974.9 902.2 975.1 898.5 976 889 976.6 883.8 976.9 878.1 976.8 876.5 976.7 872.8 976.8 868.9 977.6 858.5 L978.1 850.4 974.2 848.2 C972 847 970 845.3 969.6 844.5 969.3 843.7 968.5 843 967.7 843 966.8 843 966.5 842.1 966.8 840 967.1 838 966.6 836.3 965.6 835.1 964.7 834.1 964.2 832.6 964.6 831.7 965 830.6 964.2 829.2 962.4 827.7 960.2 825.8 959.9 825 960.8 823.4 961.6 822 961.4 820.9 960.2 818.8 958.8 816.4 958.8 815.4 959.9 811 960.6 808.2 960.9 804.4 960.6 802.6 960.2 800.3 960.6 797.8 962 794.5 L964.1 789.7 961 785.9 C959.4 783.8 958 781.7 958 781.1 958 780.5 956.9 779.3 955.5 778.4 951.8 776 952 769.3 956 762.8 957.7 760.1 959.8 755.7 960.6 753.2 961.5 750.6 962.7 748 963.5 747.5 965.9 745.5 969 739.5 969 736.5 969 734.7 970.5 731.3 972.7 728 975.5 723.8 976.3 721.6 976.1 718.7 975.9 714 977 712.5 981.8 710.9 986.1 709.5 987.6 707.7 988.5 703.1 989.1 699.9 989.3 699.8 992.9 700.3 998 700.9 999.7 699.8 1002.5 693.5 1004.9 688 1015.4 674 1017.1 674 1017.6 674 1020.5 670.2 1023.5 665.5 1026.5 660.8 1029.5 657 1030 657 1030.6 657 1033.4 654.6 1036.4 651.8 1039.3 648.9 1043.1 645.3 1044.8 643.8 1046.5 642.3 1048.6 639.7 1049.4 638.1 1050.9 635.3 1068.1 623 1072.7 621.6 1073.9 621.2 1080.4 615.1 1087.1 608 1096.6 598 1102.1 591 1111.3 577.3 1124 558.1 1128.3 550.2 1130 542.5 1130.6 539.9 1132.6 535.6 1134.4 533.1 1136.2 530.6 1138.2 526.1 1138.8 523.1 1139.6 519.8 1141.2 516.4 1143.1 514.3 1144.7 512.4 1148.3 506.2 1151.1 500.6 1155 492.3 1156 489.3 1156 485.1 1156 479.5 1157.6 475.5 1162.1 470.1 1165.3 466.2 1165.2 465.5 1161 464.7 1158.1 464.1 1158 463.9 1158 458.2 1158 454.9 1158.5 450.9 1159.1 449.1 1161.6 442.1 1153.7 438.2 1147.3 443.2 1142.6 447 1138.3 449 1135 449 1133.2 449 1130.3 449.9 1128.6 450.9 1126.2 452.4 1123.6 452.8 1117 452.8 1112.3 452.8 1107.2 453.3 1105.7 453.9 1104.1 454.5 1101.4 455 1099.5 455 1097 455 1094.9 456 1091.6 459 1086 463.8 1082.1 464.9 1073.8 464.3 1067.9 463.8 1066.8 464.1 1058.7 467.9 1052.2 471 1049.3 471.9 1047.2 471.4 1041.7 470.1 1035.9 465.9 1032.4 460.5 1028.5 454.6 1022.4 449.8 1019.4 450.2 1016.5 450.6 1016.7 448.6 1019.6 447.8 1026 446.1 1027.7 441.9 1024.1 436.8 1022.7 434.7 1021.2 433 1020.7 433 1020.3 433 1018.2 431.9 1016.2 430.5 1012.3 428 1008 421.6 1008 418.6 1008 417.7 1007.2 417 1006 417 1005 417 1003.6 416.1 1003 415 1002.4 413.9 1000.2 412.2 998 411.4 995.3 410.3 993.1 408.3 990.7 404.6 987.9 400.4 986.4 399.1 983.7 398.6 981.9 398.3 979.4 396.9 978.2 395.5 977 394.2 974.9 392.8 973.5 392.4 971.7 392 970.4 390.6 969.4 388 968.1 384.8 966.9 383.8 962.5 382 955.4 379.1 954.2 377.6 953.1 369.9 952.2 363.1 948.1 352.8 945.1 349.5 944 348.4 942 345.1 940.6 342.2 938.6 338.3 937.5 337 936.2 337.4 935 337.7 933.2 336.3 930.5 332.9 928.3 330.1 925.3 327.2 923.8 326.4 918.4 323.6 917.2 319.3 912 286.5 911.1 280.6 909.2 275.1 907.4 272.9 906.6 272.1 906 270.1 906 268.7 906 266.7 904.8 265.1 901 262.3 898.3 260.3 896 258.2 896 257.8 896 256.1 891.9 253 889.5 253 888.1 253 886.6 252.2 886 251 885.4 249.9 884.3 249 883.6 249 881.4 249 880.5 239.3 882.5 236.4 884.3 233.6 884.4 232 882.7 232 880.8 232 871 220.3 867.8 214.3 866.3 211.3 863.7 207.2 862.1 205.2 858.6 200.7 851 186.6 851 184.6 851 183.8 849.9 181.4 848.5 179.4 847.1 177.4 846 175 846 174.1 846 173.1 845.4 171.5 844.6 170.4 843.8 169.4 843.4 167.5 843.7 166.3 844.1 164.6 843.5 163.7 841.2 162.3 833.7 157.7 825 147.7 825 143.7 825 142.4 824.1 140.1 823 138.7 820.7 135.8 820.4 132.7 822.4 131.1 823.5 130.1 824.1 130.8 825.3 134.5 826.2 137 828.4 140.9 830.3 143.1 832.3 145.3 834 148.7 834.4 150.8 834.9 153.6 835.9 155.2 839 157.3 841.2 158.9 843 160.5 843 161 843 161.5 845 163.1 847.5 164.6 854.1 168.4 855.4 167 857 153.7 858.6 140.3 858.7 139.6 859.5 137.1 860.1 135.1 852.4 109.8 850.1 106.1 849.3 104.8 848 104.9 841.2 106.5 831.4 108.7 823.6 108.1 816.5 104.7 810.3 101.7 802.9 100.5 799.9 102 798.2 103 797.4 102.8 795.6 101.1 793.5 99.2 793.4 99.1 789.5 100.9 787.3 101.9 784.9 103.5 784.1 104.4 781.6 107.4 771 113 767.8 113 766.1 113 763.9 112.4 763.1 111.6 761.2 109.9 748.9 108 744.2 108.7 742.1 109.1 740.3 108.7 739.2 107.7 737.5 106.2 719.6 102 714.9 102 713.5 102 711.9 102.5 711.3 103.1 710.5 103.9 708.9 103 705.5 99.9 701.1 95.8 700.2 95.4 693.6 94.8 682.7 93.7 674.1 92.5 673.8 92 673.6 91.7 673 90.2 672.4 88.5 671.6 86 670.6 85.3 665.5 83.8 662.2 82.8 658.7 81.6 657.7 81 655.1 79.5 641.5 80.9 636 83.2 631 85.3 626.5 89.2 624.5 93 622.8 96.2 623.7 104.9 626.1 109.7 L627.9 113.3 625 117.4 C620.8 123.6 619.6 124.3 613.2 124.3 608 124.4 606.8 123.9 599.3 119.1 594.8 116.2 589.4 113.4 587.3 112.8 584.6 112.1 562.5 107.1 561.4 107 560.9 107 555 97.5 553 93.5 550.6 88.9 550.1 88.4 543.5 86.2 539.7 84.9 533.1 82.5 529 81 522.5 78.6 520.5 78.3 514.4 78.7 507.7 79.2 507.2 79.1 503.9 76.3 502 74.6 499.3 73 497.9 72.7 494.5 71.8 490 68.2 490 66.3 490 65.1 489.2 64.8 486 65.3 483 65.7 482 65.5 482 64.4 482 63.6 481.6 63 481.1 63 480.7 63 479.1 62.1 477.7 61 474.4 58.4 475.1 56.3 480.5 52.2 482.9 50.3 485.5 47.5 486.2 45.9 486.9 44.3 488.3 42.7 489.2 42.4 490.1 42.1 491.1 41.1 491.4 40.2 492.3 37.5 489.2 28.8 486.4 25.9 484.9 24.4 484.1 22.7 484.4 22.1 484.8 21.5 484.8 17.6 484.4 13.3 483.8 6.7 483.3 5.1 480.9 2.8 478.5 0.3 477.4 0 472.3 0.1 468.2 0.2 465.3 0.9 462.5 2.5 Z M478.5 1.6 C481.4 2.8 483.1 7.9 483.4 16.6 483.7 24 484 25.2 486.2 27.5 487.6 28.9 489 31.3 489.2 32.8 489.5 34.3 490 36.2 490.4 37.1 491.2 38.9 489.5 41.2 479.7 51.2 476.3 54.7 474 57.8 474.2 58.8 474.4 59.7 476 61.4 477.7 62.5 479.5 63.6 481.2 65.3 481.5 66.2 482 67.6 482.5 67.8 484 67 486.6 65.6 489 65.8 489 67.3 489 68 490.1 69.6 491.5 70.8 493.6 72.7 494 73.8 494 78.9 494 85.4 492.5 88 488.6 88 487.4 88 485.4 89 484.2 90.2 483 91.5 480.7 93.6 479 95 471.5 101.2 471.7 100.7 472.4 107.4 473 114.1 472.8 114.7 468.8 117.3 465.2 119.5 462 119.5 462 117.2 462 116.3 461.3 114.1 460.4 112.5 459.5 110.8 458.5 106.2 458.1 102.1 457.4 94.9 457.2 94.6 452.8 90.6 447.8 86.1 445.5 82.4 444.5 76.8 444.1 74.5 442.9 72.5 441.4 71.5 439.7 70.4 439 69 439 66.9 439 65.3 437.9 61.8 436.5 59.2 L434 54.5 436.7 53.8 C438.3 53.4 441.8 50.6 444.7 47.7 451.2 40.9 452.5 36.7 451.5 24.8 451 17.9 451.2 15.6 452.5 13.1 453.3 11.4 454.5 10 455 10 455.5 10 457.2 8.6 458.7 7 460.1 5.3 461.9 4 462.5 4 463.2 4 464.3 3.3 465 2.5 466.3 1 475.2 0.4 478.5 1.6 Z M429.5 3.7 C432.3 5 433.7 5.2 435.9 4.4 438 3.5 439.1 3.6 440.5 4.6 441.7 5.5 445.2 6 450.2 6 L458.1 6 453.9 10 449.7 14 450.4 23.5 C451.3 36.9 450.2 40.7 443.1 47.5 439.7 50.8 436.6 53 435.3 53 432.3 53 432.3 55.8 435.1 59.4 436.3 60.9 437.5 64.1 437.8 66.5 438.1 69.7 438.9 71.4 440.6 72.5 441.9 73.3 443 75 443 76.3 443.1 80.1 446.5 86.4 450.8 90.2 456.1 95 457 96.8 457 102.8 457 105.6 457.9 109.7 459 112.1 460.7 116 461 118.7 461 134.6 461 148.9 461.3 153.6 462.6 156.6 463.7 159.2 464 161.8 463.5 164.9 463.2 167.4 462.8 172.5 462.7 176.1 462.5 182.4 462.3 183 458.3 187.3 455.9 189.9 454 192.7 454 193.6 454 194.5 455.2 198.9 456.6 203.4 460.5 215.6 463.7 221 467.1 221 470.1 221 482 228 482 229.8 482 230.6 483.1 233.3 484.5 235.6 L487 239.9 482.8 242.8 C475 248.1 381.5 308.6 379.5 309.7 375.9 311.5 342.3 318.3 340.5 317.6 339 317.1 338.8 316.2 339.3 311.7 339.9 307.2 339.6 305.9 337.6 302.9 335.5 299.9 334.3 299.2 328.5 298 320.6 296.4 317.4 293.3 311.5 282.1 307.8 275.1 306.7 274 271.6 244.2 169.4 157.1 168.9 156.7 169.4 154 169.7 152.6 170.2 147.8 170.6 143.2 171 138.1 171.6 135 172.4 135 173 135 175.6 132.7 178.1 130 L182.7 125 192.8 125 C200.5 125 204.5 124.5 209.6 122.8 215 121 216.9 120.8 220.1 121.7 223.5 122.6 224.4 122.4 228.2 120.2 230.6 118.8 234 116.4 235.8 114.8 237.8 113.1 240.2 112 242 112 244 112 245.5 111.2 246.6 109.5 247.5 108.1 249.1 107 250.2 107 251.2 107 253.2 106.3 254.5 105.4 256.4 104.1 257 102.9 257 100 257 96 258.3 95 264.2 95 266.1 95 267.8 93.9 270 91.1 272.7 87.8 273.9 87.1 277.8 86.6 292.9 84.9 295 84.4 297.4 82.1 301.1 78.6 301.3 76.9 298.5 70.9 295.7 64.7 295.3 58.6 297.5 53.3 298.7 50.6 298.8 48.9 298 46.1 297.5 44.1 297 40.2 297 37.4 297 34.7 296.5 31.9 295.8 31.2 294.9 30.3 295.3 30 297.7 30 304.7 30 307.2 28.8 309.9 24.4 311.4 21.9 313.3 20 314.3 20 315.3 20 317.2 19.3 318.5 18.4 319.9 17.5 321.7 17.1 322.6 17.4 323.5 17.8 325.7 17.6 327.4 17.1 329.1 16.5 331.6 15.8 333 15.6 334.4 15.3 337.9 13.3 340.9 11.1 347.1 6.4 348.2 6.2 370.5 5.4 400.3 4.3 399.6 4.3 401.9 6.4 405.2 9.4 412.4 8.9 419.4 5.1 422.6 3.4 425.4 2 425.6 2 425.8 2 427.5 2.8 429.5 3.7 Z M247.7 18.3 C250.2 23.6 253.7 25.8 256.6 24.2 257.9 23.5 259.2 23.6 261.3 24.7 264.1 26.1 270 26.6 276.9 26 279.6 25.8 280.8 26.3 282.6 28.3 284.5 30.5 285.8 31 289.3 31 291.8 31 294.2 31.6 294.8 32.3 296.1 33.8 296.5 49.7 295.5 59.6 294.9 65.9 295 67.2 297.3 71.6 301 78.9 298.9 81.9 289.5 83.2 276.3 85 272.5 85.9 271.5 87.6 269.3 91.4 265.7 94 262.5 94 258.2 94 256.2 95.8 255.2 100.4 254.6 103.6 253.9 104.5 251.5 105.3 249.8 105.8 247.4 107.3 245.9 108.6 244.5 109.9 242.6 111 241.6 111 239.4 111 234.7 113.4 233 115.5 230.2 118.9 224.4 121 219.6 120.4 216.5 119.9 213.1 120.4 208.3 121.9 202.8 123.5 199.9 123.8 194.7 123.3 186.4 122.6 179.7 124.8 177.5 129 176.7 130.5 174.7 132.4 173 133.1 169.6 134.7 169.9 133.1 167.4 162 166.5 172.7 165.7 181.7 165.5 181.8 165.3 182 155.3 181.6 143.3 180.9 131.3 180.3 120.2 179.7 118.6 179.6 115.9 179.5 115.6 179.9 114.4 184.5 113.8 187.2 112.3 194.9 111.1 201.5 109.9 208.1 108.4 215.9 107.8 218.7 L106.7 224 100.4 224 C94.3 224 94.1 224.1 90.6 228.2 88.6 230.5 86.9 233.1 86.9 233.9 86.8 234.8 86.5 241.6 86.1 249 L85.5 262.5 83 262.3 C81.6 262.3 68 261.8 52.7 261.4 28 260.8 25 260.5 25.5 259.1 25.7 258.2 26.4 255.4 26.9 252.8 28.1 246.1 30.4 243 34 243 36.7 243 37.3 242.3 40.6 235.8 42.5 231.8 44.7 227.8 45.5 227 46.2 226.2 47.7 223.6 48.8 221.4 50.1 218.9 53.5 215.2 57.4 212.2 60.9 209.4 64.6 206.1 65.5 204.8 69 199.8 74 191.5 74 190.5 74 187 80.3 177 85.1 172.7 93.8 165.1 95.1 163.7 96.4 160.5 97.1 158.8 99.7 155.1 102.2 152.1 106.6 146.8 109.2 145.3 118.5 142.7 120.7 142.1 125.3 139.7 128.8 137.3 132.3 134.9 136.3 133 137.6 133 142.6 133 153.2 125.2 159.8 116.6 L164.4 110.6 165.1 98.9 165.9 87.2 171.4 80 C174.5 76 177 72 177 71.1 177 69.3 178.4 67.8 188.9 58.5 193.6 54.4 197.2 52 198.7 52 200 52 202.3 51.4 203.8 50.6 205.3 49.9 209 48.7 212 48 220.2 46.1 222.3 44.7 226.2 38.3 231.1 30.4 235 22.4 235 20.5 235 19.6 236.3 17.5 238 15.9 242.2 11.6 244.9 12.3 247.7 18.3 Z M503.1 77.2 C506.6 80 507.3 80.1 514.6 79.9 521.1 79.7 523.7 80.1 529 82.2 532.6 83.6 538.1 85.5 541.4 86.6 548.5 88.8 551.7 91.1 552.5 94.8 552.8 96.3 555 100.1 557.4 103.1 561.4 108.2 562.2 108.8 566.6 109.4 581.3 111.3 597.4 117.4 603.8 123.3 605.7 125 607.3 125.4 613 125.4 620.8 125.3 621.6 124.8 626 118 L629.1 113.1 627.2 109.3 C626.1 107.2 625 103.1 624.8 100.2 624.3 95.2 624.5 94.6 627.7 90.7 629.7 88.4 633.3 85.6 635.9 84.4 642 81.7 654 80.6 658.3 82.5 660.1 83.2 663.6 84.4 666.2 85 670.5 86.1 671 86.6 671.6 89.6 672.1 92.4 672.7 93 675.4 93.4 677.1 93.7 680.1 94.2 682 94.5 683.9 94.8 688.9 95.5 693 95.9 700 96.6 700.8 97 704.9 100.9 708 103.8 709.9 104.8 710.9 104.3 714.7 102.5 733.6 105.4 738.3 108.4 739.7 109.3 743.1 109.9 747.7 109.9 755.2 109.9 762.5 111.3 763.5 113 763.8 113.6 765.7 114 767.7 114 771.6 114 777.8 110.8 784.5 105.5 789.9 101.1 792.6 100.4 795.1 102.6 796.8 104.1 797.6 104.2 800.2 103.2 804 101.8 811.2 103 817.2 106.1 823.1 109.1 832.9 109.7 841.5 107.5 845.2 106.6 848.6 106.2 849 106.7 849.4 107.1 851.8 113.7 854.4 121.3 858.4 132.9 859 135.5 858.1 137.8 857.6 139.3 856.5 145.8 855.9 152.3 854.5 166.2 853.5 167.4 847.7 163.4 845.6 162 844 160.6 844 160.1 844 159.6 842.2 158.1 840 156.7 837.1 154.7 835.9 153.1 835.4 150.4 835 148.4 833.1 144.9 830.9 142.4 828.8 140 826.8 136.4 826.4 134.5 825.6 129.8 823.4 128.1 821.5 130.6 819.1 133.9 819.1 136 821.6 138.9 822.9 140.5 824 142.8 824 144.1 824 147.5 830.5 155.7 837.3 160.8 841.2 163.7 842.9 165.7 842.6 166.7 842 168.2 842.3 168.9 847.3 178.8 848.8 181.6 850 184.6 850 185.4 850 187.3 858.6 202.7 862.1 207.3 863.8 209.3 865.8 212.7 866.7 214.8 867.5 216.8 870.1 220.5 872.4 223.1 874.6 225.6 877.5 228.8 878.6 230.2 879.8 231.6 881.4 233 882.1 233.2 883.2 233.6 883.1 234.1 881.7 235.7 880.4 237.2 880 239.1 880.2 243 880.5 248.1 880.3 248.4 877.3 250.2 874.8 251.7 873.6 251.9 872.1 251.1 870.4 250.1 870.1 250.4 869.5 253.3 868.4 258.1 867.2 259 862 259 857.4 259 857 259.2 853.6 264 849.9 269.2 847.8 270 843.8 267.9 841.5 266.7 827.2 266.6 755.4 267.6 L709.3 268.3 708.6 248.9 C708.3 238.2 707.5 210.8 707 188 706.2 157.1 705.5 144.8 704.4 139.8 702.6 132.2 702.3 124.2 703.5 118.7 704.1 115.9 703.8 114 702.5 111 700.8 107.3 700.8 106.9 702.4 104.4 703.4 103 703.9 101.6 703.7 101.3 703.4 101.1 702.4 102 701.4 103.5 700 105.7 699.9 106.7 700.9 109.9 702.2 114.5 702.3 120.5 701.1 122.8 700.2 124.5 700.4 125.9 703.6 141.5 704.9 148.2 706.9 225.8 707.1 283 L707.2 302.5 701.8 302.8 C693.8 303.2 692 303.8 692 306.1 692 307.6 691.5 308 690.5 307.6 689.7 307.3 659.9 292.2 624.4 274 L559.7 241 549.1 246.8 C543.2 250.1 537.4 253.3 536.1 254.1 534 255.4 533.6 255.2 530.2 251.4 L526.5 247.2 508.1 243.6 C498 241.6 489.1 239.5 488.3 238.8 486.5 237.3 483 230.6 483 228.6 483 227.2 469 219 466.5 219 464.4 219 461.1 214.2 460 209.6 459.4 207.4 458.3 204.1 457.6 202.5 454.3 195.2 454.5 193.6 459.4 188.1 463.8 183.2 464 182.7 464 176.8 464 173.4 464.5 169.2 465.2 167.3 466.2 164.6 466.1 163.1 464.7 158.7 462.5 151.8 462.2 119.8 464.3 120.5 464.9 120.7 467.3 119.7 469.5 118.2 L473.5 115.4 473.5 108 C473.5 101.5 473.8 100.5 475.5 99.5 476.7 99 479.6 96.6 482 94.2 484.4 91.9 487 90 487.7 90 490.4 90 493.9 87.6 494.8 85.1 495.3 83.7 495.6 80.3 495.4 77.7 495.2 73.2 495.4 73 497.3 73.6 498.5 74 501.1 75.6 503.1 77.2 Z M196.9 182 C211.3 194.4 222.6 204.6 221.9 204.9 221.3 205.1 216.6 204.7 211.6 204.1 206.6 203.5 200.6 202.7 198.4 202.4 L194.2 201.9 193.6 222.2 C193.3 233.4 192.7 269.5 192.4 302.5 L191.8 362.5 194.4 364 C196.9 365.3 197 365.8 196.5 369.4 196.1 371.7 195.2 374.5 194.4 375.7 192.7 378.4 194.5 378.3 158.7 377 135.5 376.2 133.7 376 131.6 374.1 130.4 372.9 128.2 372 126.7 372 124.5 372 124 372.5 124 374.4 124 377.3 121.6 378.4 118.7 376.8 115.7 375.2 107.8 375.1 106 376.6 103.5 378.7 96.9 377.7 95.5 374.9 94.2 372.6 94.2 372.6 92.6 376.4 91.7 378.5 91 380.8 91 381.5 91 383.3 83.9 387.7 81.7 387.2 80.8 387 79 385 77.8 382.7 76.7 380.4 74.5 376.7 72.9 374.5 71.4 372.3 69.9 368.6 69.5 366.2 68.9 362.4 68.3 361.7 64.2 359.5 61.6 358.1 57.8 355.5 55.6 353.8 52 350.7 51.3 350.5 44.9 350.7 41.2 350.8 37.2 351.4 36.1 351.9 33.4 353.4 22.3 353.3 21.4 351.9 21 351.2 21.6 348.9 22.7 346.6 27.1 337.9 27.9 334.9 28.6 325.4 28.9 319.9 29.9 313.7 30.6 311.5 32.5 306 32.3 303.7 30 300.7 27.4 297.4 27.5 295 30.4 289.2 31.7 286.6 32.5 284 32.3 283.3 32.1 282.7 32.5 280.9 33.3 279.3 34.5 276.9 34.5 275.7 33 270 31.7 264.6 31 263.4 29.1 263.2 27.9 263 26.1 263.4 25.2 264.2 23.7 265.4 23.6 265.3 25 263.7 26.3 261.9 27.8 261.8 48.5 262.4 60.6 262.8 74.1 263.3 78.6 263.6 L86.7 264.2 87.3 249.1 C87.8 236 88.1 233.5 90 230.5 92.9 225.8 94.7 225 101.9 225 105.3 225 108 224.8 108 224.6 108 224.4 109.1 218.6 110.4 211.8 111.7 205.1 113.6 195.3 114.5 190.2 L116.3 181 122.4 181 C125.8 181.1 133 181.5 138.5 182 144 182.5 152.6 183 157.5 183.1 L166.5 183.3 167.1 178.9 C167.5 176.5 168.1 171 168.5 166.7 168.9 162.4 169.5 159 169.9 159.2 170.3 159.4 182.5 169.6 196.9 182 Z M204 204.5 C207 204.8 213.3 205.6 217.9 206.2 L226.3 207.3 262.9 238.3 C307.9 276.4 306.5 275.1 310.5 283 312.3 286.6 315.5 291.4 317.6 293.7 320.9 297.3 322.5 298.1 328 299.3 336.5 301.1 338.9 304.1 338.2 312.4 337.8 317.5 337.9 318 340.1 318.8 341.6 319.4 345.2 319.1 350.4 317.9 354.8 316.9 358.5 316.2 358.5 316.3 359.2 317.6 355.1 352.3 354.2 353.2 353.5 353.9 353 356.2 353 358.4 353 369.2 352 372.4 347 377.8 343 382.1 341.6 383 338.7 383 336.8 383 334.2 383.9 332.8 385 330.5 386.8 329.1 386.9 315.4 386.4 301.3 385.9 300.1 386 293.6 388.4 289.7 389.7 286.3 390.7 285.9 390.4 285.5 390.2 281.9 389.6 277.9 389 270.8 388.2 270.5 388.2 267.4 390.9 265.3 392.8 262.7 393.9 259.2 394.4 254.9 394.9 253.3 395.8 248.9 400.1 245.4 403.4 243.2 404.9 242.1 404.5 241.2 404.1 239.2 403.6 237.6 403.3 234.3 402.6 232 404.8 232 408.6 232 410 231.2 411.1 230 411.5 228.9 411.8 227.2 413.1 226.3 414.3 222.7 418.7 221.3 419.3 218.8 417.6 215.3 415.1 212.3 415.6 210.5 419 209.7 420.6 209 422.5 209 423.3 209 424.1 208.1 425.9 207 427.3 205.9 428.7 204.7 431.9 204.4 434.4 203.6 439.9 202.7 440.8 197.1 441.2 193.1 441.5 192.7 441.8 191.4 445.5 188 455 187.1 457.7 186.5 461.7 186 465.1 184.9 466.8 181.7 469.5 177.9 472.8 177.4 473 176.3 471.3 175.6 470.4 175.3 468.8 175.6 467.7 176.2 465.9 173.6 462 171.9 462 171.5 462 167.4 464.5 162.8 467.5 L154.6 473.1 152.9 470.9 151.2 468.7 147.6 470.8 143.9 473 142.4 469.5 C141.7 467.6 141 465.1 141 464 141 462.9 139.9 461 138.5 459.8 136.4 458 136 456.8 136.1 452.6 136.2 449.8 135.8 445.7 135.1 443.5 134.5 441.3 133.8 437.9 133.5 435.9 132.7 430.8 129.5 430 123.5 433.6 119.1 436.1 117.5 436.2 110.9 434.4 110 434.2 107.7 435.1 105.7 436.4 102.2 438.8 102.1 438.8 101.5 436.9 101.1 435.8 100 435 98.7 435 97.6 435 95.3 433.8 93.8 432.3 91.4 430 91 428.8 91 424.2 91 418.1 88.9 413.8 85.3 412.1 82.7 410.9 82.3 407.9 84.5 406 86.2 404.6 86.5 400.7 85 398 84.4 396.9 84.3 394.2 84.6 392 85.2 388.6 86 387.4 89.1 385.4 92.2 383.5 93 382.4 93 380 93 375.9 94.9 375.2 95.7 379.1 96.2 381.7 96.5 382 97.4 380.8 99.3 378.2 116.1 376 118.5 378 120.9 380 125 378.4 125 375.5 125 372.4 127.5 372.2 130.6 375.1 132.6 376.9 134.6 377.2 151.1 378 161.2 378.5 175 378.9 181.7 379 195.8 379 196.3 378.7 197.5 369.5 198.2 364.6 198.1 364.4 195.4 363.2 L192.7 361.9 193.3 323.2 C193.7 301.9 194.3 266.2 194.7 243.7 195.3 207.1 195.5 203 196.9 203.4 197.8 203.7 201 204.1 204 204.5 Z M508.5 245 L525.5 248.2 529.5 252.7 533.5 257.1 546 250 C552.8 246.2 559.1 243 559.8 243 560.6 243 569.8 247.4 580.3 252.9 590.9 258.3 611.2 268.7 625.5 276 639.8 283.3 660.3 293.8 671.1 299.3 L690.7 309.3 691.3 330.3 C691.7 341.9 692 357.9 692 365.9 L692 380.6 684.6 380.6 C680.4 380.6 676.1 381.1 674.8 381.9 672.5 383.1 672.4 383.4 673.4 387 674.2 390.3 674.1 391.2 672.7 392.8 671.8 393.8 671 395.1 671 395.6 671 396.1 669.6 397.8 667.9 399.3 665.4 401.5 664.9 402.5 665.4 404.6 665.9 406.5 665.4 408.1 663.5 410.5 661.5 413.2 661 414.8 661.2 418.9 661.4 422.3 660.9 424.4 659.8 425.7 656.6 429.4 656.7 431.5 660.4 434.4 663.9 437 665.4 441 666.7 450.4 667.1 453.2 668.3 455.3 670.6 457.6 672.6 459.5 674 461.7 674 463.1 674 465.4 673.7 465.5 667.8 465.5 659.8 465.5 656.3 467.8 652.7 475.4 651 479 649 481.5 647.1 482.5 645.5 483.3 643.5 485.2 642.8 486.7 642.1 488.2 639.5 490.5 637 491.8 634.5 493.1 631.7 494.9 630.8 495.7 629.5 496.9 627.8 497.1 623.9 496.7 620.3 496.3 617.9 496.5 615.9 497.5 614.4 498.3 612.1 499 611 499 607.8 499 603 502.1 603 504.2 603 505.1 603.9 506.4 605 507 607.3 508.2 607.7 511 605.5 511 604.7 511 603.6 511.9 603 513 600.7 517.2 588.3 521 586.5 518 585.3 516.1 581.3 517 577.5 520 572.4 524.1 570.7 524.4 566.8 522 L563.3 520 560.7 522 C559.3 523.1 556 525 553.4 526.2 548.8 528.2 548.6 528.2 547.3 526.4 546.6 525.4 545.3 522.3 544.5 519.6 542.5 512.8 539.5 508.9 529.5 499.6 524.6 495 521 490.9 521 489.8 521 482.9 527.1 479.8 538.3 480.7 545.5 481.3 546.2 480.8 543.2 476.9 542.2 475.6 540.4 471.3 539.1 467.3 537.2 461.4 537 459.8 538 457.9 539.5 455.2 538.6 447.7 536.5 444.7 535.6 443.5 534.5 440.9 534 438.8 532.3 432.8 529.9 430.6 525 430.5 521.1 430.5 520.6 430.2 519.7 427.6 519 425.5 519.2 423.9 520.4 421.3 521.3 419.5 522 416.8 522 415.5 522 413.4 521.5 413 519.2 413 517.7 413 515.8 413.6 515.1 414.2 514.1 415.3 514 415 514.4 413 514.7 411.6 515.2 407.6 515.5 404 L516.1 397.5 531.9 381.5 547.8 365.5 548.9 355 C549.5 349.2 550.2 340.2 550.5 335.1 551 325.6 552.6 317.1 555.7 307.3 557.3 302 557.3 302 554.7 297.1 553 294 552 290.7 552 287.9 552 285 551 281.9 548.9 278.2 546.5 273.9 546 272.2 546.6 269.7 548 263.3 545.8 253 543 253 542.4 253 542.7 254.2 543.7 255.7 545.1 257.8 545.5 260.5 545.5 267.1 545.5 273.5 545.9 276.3 547.1 277.6 549.6 280.7 551 284.8 551 289.3 551 291.7 551.8 294.9 553 296.8 555.2 300.4 555.5 303.7 554 308.7 553.5 310.5 552.6 313.5 552 315.2 550.4 320.9 548.2 339 547.5 352.5 L546.9 365.5 530.9 381.6 514.8 397.7 513.9 405.1 C513.5 409.2 513.1 412.7 513 413 513 413.3 509.1 415.6 504.4 418 498.7 420.9 495.5 423.2 494.9 424.7 493.5 428.3 491.2 428.6 486.1 425.8 481.6 423.3 481.2 423.2 467.2 423.8 L452.8 424.3 447.9 428.1 C443.5 431.6 442.5 432 437.1 432 431.6 432 430.9 431.7 424.9 427 419.2 422.6 418 422 413.4 422 410.5 422 407.6 422.6 406.4 423.5 403.5 425.7 397.7 425.4 395.4 422.9 393.2 420.5 382.6 415 380.1 415 379.2 415 376.8 414.1 374.7 413 370.4 410.7 368.3 410.5 367.7 412.2 367.5 413.1 364.9 413.5 359.7 413.5 355.4 413.5 351.6 414 351 414.6 350.4 415.2 349.5 418.3 349.1 421.4 348.5 426 347.6 427.8 344.8 430.8 340.2 435.6 339.4 437.3 338.5 444 L337.7 449.5 333 444.2 C327.1 437.6 324.6 437.4 319.7 443 315.7 447.7 315 447.1 315 438.6 L315 433.4 309.4 430.2 C306.3 428.4 303.2 427 302.4 427 301.6 427 299.4 426 297.5 424.7 294.6 422.9 294 421.9 294 419 294 416.6 293.1 414.3 291.2 412 286.9 406.8 286 404.6 286 399.5 286 397 285.5 394 285 393 284.2 391.5 284.3 391.2 285.4 391.6 286.1 391.9 290.3 390.9 294.6 389.4 302.2 386.8 303 386.7 316.6 387.4 328.1 387.9 331 387.7 332.6 386.5 333.6 385.7 335.5 385 336.6 385 340.4 385 344.5 382.6 348.9 377.8 353.1 373.2 353.2 372.9 353.7 364.8 354 360.2 354.8 355.6 355.5 354.5 356.1 353.4 357.3 345.3 357.9 336.5 358.6 327.7 359.5 319.4 359.9 318.1 360.5 316.1 361.7 315.4 366.6 314.3 369.8 313.5 374.3 312.4 376.5 311.9 378.9 311.3 402.5 296.5 434 275.9 468.4 253.5 488.2 241.2 489.5 241.4 490.6 241.6 499.2 243.2 508.5 245 Z M885.9 252.3 C886.5 253.1 888.6 254.1 890.5 254.4 892.5 254.8 894 255.7 894 256.5 894 257.2 896.5 260 899.5 262.5 902.5 265.1 905 268.1 905 269 905 270 906.2 273.2 907.7 276.2 909.2 279.1 910.7 283.7 911.1 286.5 915.6 318.3 917.4 324.3 923.3 327.5 925.4 328.6 927 329.7 927 330.1 927 330.4 928.6 332.3 930.5 334.3 932.4 336.3 934 338.6 934 339.4 934 341.2 930.1 345 928.3 345 925.9 345 920.9 348 917.2 351.7 914.4 354.5 913.5 356.5 912.5 361.9 911.1 369 910.6 370.7 906.6 384.3 L904 393.1 906.7 399.5 909.3 405.9 906.7 414.2 C905.3 418.8 903.6 425.3 902.9 428.7 901.7 434.9 901.7 435 898.4 435 896.5 435 895 435.4 895 436 895 436.5 892.6 439.7 889.6 443 884.9 448.2 884.1 449.7 884.2 453 884.2 455.1 883.7 459.2 883 462 881.9 466.4 881.3 467.3 877.9 469 875.5 470.3 873.9 471.9 873.6 473.3 873.4 474.5 872.6 477.7 872 480.5 871.3 483.2 870.8 487.3 870.9 489.5 871.6 503.1 870.8 506.3 866.3 509 863.8 510.5 861.9 510.8 859.1 510.4 855.8 509.9 855.2 510.1 853.5 512.6 852.1 514.8 851.9 516.2 852.6 519.9 853.5 524.3 853.7 524.5 858.1 525.6 864.6 527.2 866.7 528.6 872.2 534.4 880.6 543.4 881.8 544.9 882.5 547.2 882.9 548.5 884.4 551.5 885.9 554 887.3 556.5 889.2 559.8 890 561.5 891.3 564 896.1 568.1 899 569.2 899.4 569.4 900 571.1 900.2 573 L900.5 576.5 889.6 576.8 C877.3 577.1 878.6 576.5 865.8 588.6 858.2 595.8 854.5 596.8 850.3 592.8 L848 590.6 844.9 592.9 C842.4 594.8 840.8 595.1 836.2 594.9 833 594.7 829.5 595.1 828.3 595.8 827.1 596.5 825.9 596.6 825.6 596.1 824.6 594.6 820 594.2 815.9 595.2 812.3 596.2 811.5 595.9 806.4 592.9 802.6 590.6 799.8 587.9 797.8 584.7 793.6 578 791.8 577.3 787.5 580.6 784.2 583.1 783.8 583.2 782.7 581.5 781.4 579.9 781.2 579.9 778 581.8 L774.6 583.9 772.3 581.4 C770.8 579.8 769.1 579 767.7 579.2 766.1 579.4 763.8 578.1 760.5 575.2 757.9 572.9 755.4 571 755 571 754 571 752 566.3 752 564 752 561.9 747.2 557.5 742.6 555.6 737.9 553.6 735.7 550.6 734.5 544.2 L733.4 538.6 724.2 532.2 C717.2 527.3 714.9 525.2 714 522.5 712.9 519.2 707.8 515.3 702.1 513.5 699.6 512.7 686 499.8 686 498.1 686 497.6 686.4 496.9 686.9 496.6 688.4 495.6 689.3 484.4 688.1 482.2 686.8 479.8 677.9 471 676.8 471 676.4 471 676 469.4 676 467.4 676 462.9 673.4 457.3 670.5 455.4 668.8 454.3 668.2 452.9 668.2 450.4 668.2 448.4 667.7 446.3 667.1 445.7 666.5 445.1 666 443.1 666 441.2 666 437.8 662.4 433 659 431.8 657.8 431.4 658.1 430.5 660.3 427.2 662.8 423.7 663.1 422.5 662.5 419 661.9 415.3 662.1 414.4 664.9 410.9 667.7 407.5 667.9 406.8 666.8 404.9 665.6 403.1 665.8 402.5 668.8 400.1 670.5 398.6 672 396.9 672 396.4 672 395.9 672.9 394.4 673.9 393.1 675.4 391.1 675.6 390 674.8 387.2 674.3 385.4 674.1 383.6 674.4 383.3 675.6 382.1 683.8 381.1 688.3 381.7 L693.1 382.3 693 344.1 C692.9 323 693 305.7 693.2 305.5 693.4 305.3 696.9 304.8 701 304.3 L708.5 303.5 708.8 286.8 709 270.2 716.3 269.6 C720.2 269.3 750.1 268.8 782.7 268.5 837.5 267.9 842 268 844.5 269.6 848 271.9 850.9 270.5 854.7 264.8 857.4 260.8 857.9 260.5 862.3 260.4 867.7 260.3 869.5 259.1 870.3 255.1 870.8 252.8 871.3 252.3 872.9 252.7 874.1 253 876.4 252.3 878.2 251.2 881.5 249.1 883.4 249.4 885.9 252.3 Z M939.6 342.3 C940 343.5 941.9 347 944 350 948.7 357.1 952 365.3 952 369.9 952 376.2 954.8 380.1 960.9 382.6 966.5 384.8 969 387.1 969 390.1 969 391 970.4 392.3 972.3 393.1 974 393.8 977 395.6 978.8 397.2 980.6 398.7 982.9 400 984 400 985.2 400 987.5 402.1 990 405.5 992.5 408.9 995.4 411.6 997.7 412.5 999.7 413.4 1002 414.9 1002.7 416 1003.5 417.1 1004.8 418 1005.6 418 1006.4 418 1007 418.7 1007 419.5 1007 421.8 1011.7 428.7 1014.5 430.6 1015.9 431.5 1017 432.6 1017 433.1 1017 433.5 1015 434.8 1012.5 435.9 1009.6 437.2 1007.6 438.8 1007 440.5 1006.4 442 1004.9 444.6 1003.5 446.4 1000.6 450.2 998 457.1 998 461 998 463.2 998.7 464.1 1001.6 465.5 1003.9 466.6 1005.5 466.8 1006.3 466.2 1007 465.6 1010 463.8 1013.1 462.1 1018.2 459.3 1018.9 459.2 1020.1 460.6 1021.2 461.9 1021 462.8 1019.1 466.3 1016.4 471.4 1016.8 473 1024 484 1031.9 496 1035.3 498 1063.4 507.1 1086.8 514.7 1087.8 515 1097.3 515 1102.7 515 1107 515.4 1106.8 515.8 1106.7 516.3 1096.4 529.1 1084 544.3 L1061.5 571.9 1051.4 571.9 C1041.8 572 1040.9 572.2 1032.6 576 1027.6 578.3 1024 580.6 1024 581.4 1024 583.8 1020.9 586.2 1018.6 585.6 1017.4 585.3 1012.5 586.4 1007.5 588 996.5 591.7 995 591.7 991.9 588.4 989.7 586.1 989.1 585.9 983 586.5 976.7 587.1 976.3 587.3 971.8 592.3 L967.2 597.5 959.8 597.4 C944.1 597.1 942.9 596.9 938.1 594.2 924.3 586.4 919.1 583.3 915.6 580.8 911.5 577.8 909.1 577.3 907.4 579 905.7 580.7 900.6 578.4 901.4 576.4 901.8 575.5 901.8 573.3 901.4 571.5 901 569 900 567.9 897 566.6 894.1 565.3 892.6 563.7 890.9 560.2 889.6 557.6 887.6 554 886.3 552.1 885 550.2 884 548 884 547 884 545.3 881.2 541.8 872.7 533.1 867.2 527.4 865.1 526.1 859.3 524.7 L854.5 523.5 854.2 518.7 C853.8 512.7 855.2 510.7 859.3 511.6 861.2 512 863.6 511.6 866 510.5 869.2 509.1 870.1 507.9 871.4 503.9 873.2 498.4 873.4 495.2 872 491.5 871.3 489.7 871.4 487.8 872.5 484.7 873.3 482.4 874 479.4 874 478 874.1 473.2 875.1 471.4 878.6 470.1 880.5 469.4 882.4 468.1 882.9 467.2 884.2 464.6 886.3 452.3 885.6 451.1 884.8 449.9 896.7 436.4 898.3 436.8 898.9 437 900.4 436.9 901.6 436.6 903.5 436.1 903.8 435.1 904.4 429 904.8 425.1 906.2 419 907.6 415.4 910.5 407.6 910.6 404.1 908 399 906.9 396.8 906 394 906 392.8 906 391.5 907.8 384.4 910 377.1 912.2 369.8 914 362.3 914 360.5 914 357.8 915 356.1 918.9 352.2 921.9 349 924.9 347 927.1 346.5 931.1 345.7 933.9 343.4 935.1 340.1 935.9 338.2 936.3 338 937.5 339 938.3 339.6 939.2 341.2 939.6 342.3 Z M50.7 352.1 C52.2 352.7 54.5 354.1 55.8 355.3 57.1 356.5 60.3 358.7 62.8 360.1 67 362.4 67.5 363.1 67.8 366.5 68 368.9 69.2 371.8 70.9 373.9 72.5 375.9 74.9 379.9 76.4 382.7 78.2 386.3 79.8 388.2 81.5 388.6 84.2 389.3 84.5 390.2 83 393 82.3 394.4 82.4 395.9 83.7 398.5 85.3 401.8 85.3 402.2 83.7 404.9 81.2 409.2 81.6 411.7 84.9 413.5 88.4 415.2 88.8 416.3 89.2 425 89.5 431 89.3 431.5 87 432.7 81.5 435.5 69.7 433.1 62.5 427.5 59.4 425.2 58.8 425.1 37.3 423.4 31.1 422.9 29.9 423 29.4 424.4 28.4 427.1 24 428.9 21.3 427.7 18.7 426.6 14 429 14 431.5 14 433.5 10.1 433.4 9.3 431.5 9 430.6 9.5 429.3 10.5 428.6 12.2 427.4 12.2 427.1 10.7 424.9 9.5 423.3 9 420.5 9 416.2 9 410.9 9.4 409.5 11.2 408.1 L13.3 406.3 10.9 396.4 C9 388.8 7.9 386.3 6.3 385.5 5.2 384.9 3.5 383.8 2.5 383 1 381.8 1 381.5 3.2 380.4 4.5 379.6 6.5 379.1 7.6 379 11.9 379 19.9 367 20 360.7 20 355 21.4 354 28.8 354 32.6 354 36 353.6 36.6 353.1 37.1 352.6 39.3 352 41.5 351.7 43.7 351.5 46 351.3 46.7 351.2 47.3 351.1 49.1 351.5 50.7 352.1 Z M279.1 390.5 C283.4 391.2 285 393.9 285 401 285 405.1 285.6 406.6 288.7 410.7 292.1 415 292.7 416.6 292.9 422.2 293 423.3 296.5 425.6 303.6 428.9 313.9 433.9 314.1 434.1 313.5 436.9 313.2 438.4 313.4 441.8 314.1 444.4 315.2 448.7 315.1 449.3 313.1 451.4 311.6 453 309.2 454 305.9 454.4 302.3 454.9 299.9 456 297.2 458.3 L293.5 461.6 282.5 460.9 C276.5 460.6 268.8 460.6 265.5 461.1 259.2 461.9 235.2 461.5 231.9 460.5 229.6 459.7 228.4 463.5 229.5 468.3 229.9 470 230.2 473.5 230.1 476 230.1 478.5 230 482.5 230 484.9 230 489.5 229.5 489.7 227.6 485.8 225.2 481 213.4 477 210.4 480 209.9 480.5 206.6 481.3 203.1 481.7 197.6 482.2 196.5 482.1 195.4 480.5 194.6 479.4 194 477.6 194 476.4 194 473.3 188.4 468.7 185.6 469.6 183.6 470.2 183.6 470.2 185.2 468.4 186.1 467.3 187.3 464.2 187.8 461.5 188.3 458.7 189.9 453.3 191.3 449.5 L193.9 442.5 197.8 442.8 C201.1 443.1 202.1 442.7 203.9 440.4 205 438.9 206 436.4 206 434.8 206 433.1 206.9 430.1 208 428.1 209 426.1 210.6 422.8 211.4 420.7 213.1 416.5 214.6 416.1 218.4 419.1 L221.1 421.2 225.1 417.2 C227.3 414.9 229.9 413 230.8 412.8 231.7 412.6 232.7 411.1 233.1 409.2 234 404.5 234.9 404 239.4 405 244.1 406 246.4 405.1 249.9 400.8 252.7 397.3 257.6 395 262 395 263.9 395 266.1 393.9 268.2 392.1 270.2 390.3 272.3 389.3 273.5 389.5 274.6 389.7 277.1 390.1 279.1 390.5 Z M373.7 414 C375.8 415.1 378.3 416 379.3 416 381.6 416 394.2 422.4 395.9 424.4 398.1 427.1 402.7 427.4 406.4 425.1 412.2 421.5 416.8 422.2 423.9 427.9 427.3 430.6 431.4 433.2 433.1 433.5 437.7 434.5 443.1 433.2 447 430.1 453.1 425.3 454.2 425 468.6 425 480.7 425 482.7 425.2 485.6 427.1 490.1 429.9 494.1 429.3 495.8 425.6 496.7 423.8 498.9 422.1 501.9 420.8 504.4 419.7 507.3 418.1 508.2 417.3 509.2 416.4 510.8 416 511.9 416.3 513 416.6 514.7 416.2 515.7 415.4 518.3 413.5 521 413.7 521 415.7 520.9 416.7 520.1 419.1 519.1 421 517.4 424.1 517.4 424.8 518.6 428.3 519.4 430.5 520 433 520 434 520 434.9 521 436.5 522.1 437.6 523.3 438.6 525.6 441.3 527.1 443.4 533 451.3 529.6 461 521 461 517.5 461 517 461.4 515.1 465.3 513.9 467.7 513 470.6 513 471.7 513 472.8 511.8 475.4 510.4 477.5 509 479.6 507.6 482.8 507.3 484.6 506.9 487 505.9 488.3 503.4 489.6 501 490.9 499.9 492.3 499.5 494.5 497.9 505.2 498.1 504.9 494 507 489.6 509.3 487 512.4 487 515.7 487 516.9 485.9 520 484.5 522.6 483.1 525.2 482 527.9 482 528.7 482 531 477.3 537.6 473.3 540.9 469.3 544.2 467 544.8 467 542.6 467 540.6 462.1 535 460.3 535 459.5 535 457.9 535.5 456.7 536.2 455.5 536.8 452.9 537.4 451 537.5 448.2 537.6 446.4 538.6 442.7 542.2 440 544.7 435.9 547.9 433.4 549.1 430.7 550.6 429 552.2 429 553.3 429 554.3 428.3 556.1 427.5 557.4 426.6 558.7 426 561.5 426.1 563.6 426.2 565.8 425.6 569 424.6 570.9 423 573.9 422.5 574.2 419.5 573.7 416.2 573.2 416.1 573.2 415.8 576.8 L415.5 580.5 407 580.6 C402.1 580.7 396.2 581.4 393 582.4 386.3 584.5 378.8 584 375.9 581.4 373.1 578.9 368 570 368 567.5 368 566.4 367.3 564.6 366.5 563.6 365.7 562.5 365 560.9 365 560.1 365 558.3 355.9 550 351.5 547.8 347.6 545.8 331.8 543.9 326.2 544.7 L321.9 545.3 322.2 523.7 C322.5 504.2 322.7 502 324.4 500.1 325.5 498.9 327.1 498 328 498 329.2 498 330.4 496.5 331.5 493.7 332.4 491.4 334.4 487.9 335.8 486 337.5 483.9 338.3 481.6 338.2 479.9 338 478.1 338.5 476.7 339.9 475.8 343.4 473.3 343.5 469.7 340.2 462.6 337.6 457.1 337.4 455.9 338.6 454.9 339.6 454.1 339.8 452.6 339.4 450 338.4 444.1 341.3 436 346 431.2 350 427 350.7 425.3 351.2 419 L351.5 415.5 359.8 415.2 C365.9 415 368.2 414.5 368.7 413.5 369.4 411.6 369.3 411.6 373.7 414 Z M62.5 429 C68.8 434.5 83.2 436.9 88.5 433.4 90.8 431.9 91.1 431.9 94 434.4 95.7 435.8 97.7 436.7 98.5 436.4 99.4 436 100.1 436.7 100.5 438.3 L101.2 440.8 105.7 438 C109.3 435.7 110.7 435.3 112.7 436.1 116.6 437.6 120.2 437.1 124.3 434.6 130.5 430.8 132.9 432.6 133 441 133 442.9 133.7 445.6 134.4 446.9 135.2 448.4 135.5 451 135.2 453.8 134.8 457.5 135.1 458.6 136.7 459.9 139.4 462 143.2 473.8 141.9 476.1 140.5 478.8 140.8 481.7 143.1 486.2 144.8 489.5 145 490.8 144.1 492.7 143 495.1 144.1 499 147.2 503.2 148.8 505.4 147.5 506.7 145.5 505 144.7 504.3 143 504 141.6 504.4 139.3 505 139.3 505.3 139.8 511.5 140.3 518.7 139.8 519.2 134.7 516.5 132.2 515.2 131.9 515.2 131.4 516.8 130 521.6 128.4 523.5 125.9 523.1 120.5 522.4 120 521.5 120 512.8 120 500.5 116.9 498.3 107.8 504.1 103.1 507.1 102.9 507.2 101 505.5 99.9 504.5 99.3 503.3 99.6 502.8 100.7 501.1 99 495 97.5 495 95.8 495 95.5 493.4 97 492.5 98.2 491.7 97.3 485.7 95.5 482 94.7 480.6 92.6 478 90.7 476.1 87.7 473.3 86.7 472.9 84.3 473.4 82.8 473.8 80.2 474.4 78.5 474.7 74.4 475.5 73 476.6 65 485.4 60.9 489.8 57.8 492.5 57.6 491.8 57.3 491.1 56.9 488.9 56.6 486.9 55.9 483 53 479.9 43.8 473.1 37.7 468.5 36.3 466.2 37.9 463.2 38.6 461.8 38.5 460.8 37.5 459.4 36.7 458.3 36 456 36 454.2 36 449.9 39.6 446.6 46.4 444.6 53 442.6 55 440.5 55 435.2 55 426.9 57.6 424.8 62.5 429 Z M532.3 438 C533.3 441 534.6 444 535.2 444.7 537.1 447.1 537.9 453.3 536.8 457.6 535.8 461.2 536 462.6 538 468.1 539.2 471.6 540.9 475.5 541.6 476.7 542.8 478.6 542.7 478.9 541 479.5 540 479.8 537.5 479.8 535.5 479.4 530.1 478.4 523.2 480.7 521.5 484.1 518.4 490 519.3 492 528.7 500.6 537.6 508.7 543 515.8 543 519.4 543 520.6 543.9 523 545.1 524.9 546.2 526.7 547 528.3 546.8 528.4 543 530.8 538 535.5 538 536.6 538 537.4 537.2 539.3 536.2 540.8 535.2 542.3 534 544.2 533.5 545.1 532.9 546 531.2 548.6 529.7 550.9 527.2 554.7 527 555.6 527.7 559.8 528.1 562.4 528.3 565.7 528.2 567.2 527.9 569.6 531.4 579.1 534 583 534.6 583.8 535.9 585.8 537 587.5 538.1 589.1 539 591.9 539 593.7 539 596.3 540.2 597.9 546.2 603.5 555.1 611.7 557.4 615.3 556.5 619.4 556.2 621.1 555.6 624 555.3 625.8 554.8 629 554.6 629.2 551.6 628.6 549.9 628.3 544.4 627.4 539.3 626.7 533.4 625.8 529.4 624.7 528.1 623.6 526.5 622.2 523.8 621.8 512.8 621.5 505.5 621.3 493 620.7 485 620.1 475.7 619.4 469.3 619.3 467.2 619.9 462.9 621.2 446.3 620.1 445 618.4 444.2 617.6 444.4 615.3 445.6 610.7 447.3 604.4 447.3 604 445.5 600 444.4 597.7 442.6 595.1 441.3 594.3 440.1 593.5 438.8 592 438.5 591 438.2 590 436.1 588.7 433.4 588 428.2 586.5 427.5 585.7 427.9 581.3 428.1 578.5 427.7 577.9 424.8 576.6 423 575.8 422.1 575.1 422.7 575.1 425.1 574.9 428.1 567.3 427.4 563.2 427 560.4 427.2 559.1 428.4 558.1 429.3 557.4 430 555.7 430 554.4 430 553 430.8 551.9 432 551.5 434.4 550.7 444 543.3 445.8 540.8 446.6 539.7 448.4 539 450.4 539 452.3 539 455.3 538.4 457.1 537.6 461.3 535.9 463.3 537 465.5 542.4 466.3 544.4 467.3 546 467.5 546 469.1 546 476.2 540.6 478.4 537.8 480.7 534.8 485.5 524.3 488.2 516.5 490.1 511.2 490.6 510.5 494.8 508.2 499 505.9 499.1 505.5 500.5 496.4 501 493 501.8 491.9 504.5 490.4 506.9 489.2 507.9 487.8 508.3 485.5 508.6 483.8 509.9 480.7 511.3 478.6 512.7 476.6 514.1 473.5 514.5 471.7 514.9 469.9 515.8 467 516.6 465.2 517.9 462.4 518.6 462 521.7 462 524.3 462 526.2 461.2 528.2 459.3 530.6 457 531 455.8 531 451.4 531 446.5 530.6 445.7 526 440.4 519.6 433.1 519.6 431.8 525.7 432.2 L530.4 432.5 Z M1022.9 436.9 C1024.1 438.5 1025 440.5 1025 441.4 1025 443.4 1021.1 447 1019 447 1018.1 447 1016.5 447.8 1015.6 448.9 1014 450.7 1014 450.8 1016.5 451.4 1017.9 451.8 1019.5 451.8 1020.1 451.4 1020.6 451.1 1021.8 451.4 1022.6 452.1 1023.9 453.1 1023.8 453.5 1022.3 455.3 1021.3 456.3 1017.8 458.5 1014.5 460.2 1011.2 461.8 1007.8 463.6 1006.9 464.2 1004.9 465.6 1000.1 464.5 999.3 462.5 998.5 460.3 1001.7 451.1 1004.9 446.5 1006.4 444.3 1007.9 441.7 1008.3 440.8 1008.9 439.2 1017 434.4 1019.7 434.1 1020.3 434.1 1021.8 435.3 1022.9 436.9 Z M333.2 446.2 C338.7 452 338.9 452.4 337.3 454.2 335.7 456 335.8 456.4 338.3 461.6 341.6 468.2 341.8 473 339 474.8 337.6 475.6 337 477.1 337 479.6 337 482 336.1 484.2 334.4 486.3 333 488 331.2 491.1 330.3 493.2 329.4 495.6 328.1 497 327 497 326.1 497 324.5 497.9 323.4 499.1 321.7 501 321.5 503.4 321 523.4 L320.5 545.5 316.5 546.1 C314.3 546.4 311.3 547 309.8 547.4 305 548.8 304.5 546.2 304.9 521.8 305.2 500.8 305.2 499.9 303 495.8 301.7 493.4 300.5 489.5 300.4 487.1 300.2 484.3 299.1 481.3 297.3 478.7 292.5 471.9 291.7 469.9 292.9 468.7 293.5 468.1 294 466.6 294 465.4 294 462.2 301.1 456.2 305.7 455.5 311.2 454.6 313.1 453.3 318.9 446.2 321.7 442.8 324.8 440 325.7 440 326.6 440 329.9 442.8 333.2 446.2 Z M1157.4 443.9 C1158.7 445.3 1158.8 446.3 1158 448.4 1157.5 449.9 1157 454.2 1157 458 1157 464.8 1157 464.8 1160 465.5 1161.7 465.9 1163 466.3 1163 466.6 1163 466.8 1161.3 469.3 1159.3 472.1 1156.2 476.5 1155.6 478.3 1155 484.4 1154.5 490 1153.4 493.4 1149.9 500.5 1147.4 505.4 1143.8 511.6 1141.8 514.2 1139.6 517.1 1137.9 520.6 1137.5 523.2 1137.1 525.6 1135.3 529.8 1133.4 532.6 1131.5 535.4 1129.3 540.2 1128.5 543.4 1126.4 551.4 1122.7 558.2 1110.5 576.5 1097.6 595.9 1078.9 616.6 1068.8 622.5 1057.1 629.3 1049.7 634.8 1048.4 637.7 1047.4 640.2 1032.5 654.5 1028.7 656.7 1027.9 657.1 1025.8 660 1023.9 663 1022.1 666 1017.9 671.4 1014.5 675.1 1011.2 678.7 1006.9 683.7 1005.1 686.3 L1001.7 690.9 997.8 684.8 993.9 678.7 992.9 644.7 992 610.7 995.8 606.5 C997.8 604.2 1002 599.3 1005 595.7 1011.2 588.4 1013.4 587 1019.1 587 1022.7 587 1023.2 586.7 1024.5 583.7 1025.7 580.9 1027.3 579.7 1034.1 576.6 1041.9 573 1042.5 572.9 1051.8 573.2 L1061.4 573.5 1085.6 544 1109.9 514.5 1098.2 513.9 C1087 513.4 1085.6 513.1 1063.5 505.7 1036.7 496.8 1032.6 494.4 1025.6 484 1019.2 474.4 1017.6 470.1 1019.4 468.1 1022.3 464.7 1023.2 462 1021.9 460.4 1020.9 459.2 1021.2 458.5 1023 456.5 L1025.4 454 1027.7 456.2 C1029 457.4 1031.1 460.3 1032.5 462.6 1034.4 465.8 1036.5 467.6 1041.2 469.9 1044.5 471.6 1048 473 1048.8 473 1049.7 473 1053.3 471.6 1056.9 469.9 1060.5 468.2 1064.4 466.4 1065.5 465.9 1066.6 465.4 1071.3 465.1 1076 465.3 1085.1 465.5 1087 464.8 1093.2 459.1 1094.9 457.6 1097.8 456.4 1100.7 455.9 1103.4 455.5 1108.1 454.7 1111.4 454.1 1115.5 453.4 1117.8 453.4 1119.2 454.1 1121.6 455.4 1125.4 454.5 1129.1 451.9 1130.6 450.9 1133.4 450 1135.3 450 1138.8 450 1146.8 446.2 1149 443.5 1150.7 441.4 1155.4 441.6 1157.4 443.9 Z M274.5 464.2 C274.9 466 276.5 468.7 278.1 470.2 280.9 472.8 281 473.2 281 482.4 281 490.5 281.2 491.8 282.5 491.4 284.3 490.7 284.4 492.5 282.9 498.5 281.9 502.4 282 503.5 283.9 507.2 285.4 510.3 285.7 511.7 284.8 512.7 281.5 516.7 282.4 533.7 286.2 542.2 287.7 545.3 289.8 548.5 290.9 549.2 294.8 551.6 292.6 555.7 287.8 555.1 286.9 555 284.8 555.6 283.1 556.4 281.3 557.4 279 557.7 277.1 557.4 274.5 556.9 273.5 557.3 271.1 559.9 268 563.3 261.6 566 256.8 566 253.6 566 245.1 570 243.1 572.4 241.2 574.7 238.1 574.4 231.4 571.4 224.2 568.1 224.5 568.4 226 566.6 227 565.3 226.6 563.8 224.1 558.3 218.5 546 218.1 539.6 222.4 533.5 224.7 530.2 227 524.5 227 521.7 227 520.7 228.3 518.2 229.8 516.2 234 510.8 235.3 505.6 233.5 501.3 232.7 499.4 231.8 494.7 231.5 490.8 231.2 487 230.8 483.5 230.5 483 230.3 482.6 230.7 480.8 231.6 479.1 233 476.3 233 475.6 231.5 471.6 230.6 469.2 230 466.2 230.2 464.9 L230.5 462.5 245.5 462.7 C253.8 462.9 263 462.6 266 462.1 269 461.6 272 461.2 272.7 461.1 273.3 461.1 274.2 462.5 274.5 464.2 Z M291.8 463 C293.2 463 293.4 466.6 292 467.5 290.1 468.6 291 472.5 293.8 476 297.9 481 299 483.4 299 487.6 299 489.7 300 492.8 301.3 494.9 303.4 498.3 303.5 499.6 303.5 516.5 303.5 526.4 303.3 536.6 303 539.2 302.7 542.8 303 544.3 304.4 545.9 306.5 548.2 306.6 548.1 299.2 550 295.6 550.9 294.6 550.8 292.5 549.3 289 546.7 285 537.8 285 532.5 285 530 284.5 527.1 283.8 526.1 282.9 524.6 282.9 523.6 283.8 521.5 284.5 520.1 285 518 285 516.9 285 515.9 285.6 514.1 286.2 513 287.3 511.3 287.1 510.3 285.1 506.7 283 502.8 282.8 501.9 283.9 499 285.6 494.1 285.3 490 283.4 490 282 490 281.8 489.1 282.4 483.2 283.2 475.6 282.3 472.3 278.7 468.8 277.3 467.6 275.9 465.5 275.6 464.3 274.9 462.2 275.1 462.2 282.7 462.6 287 462.8 291.1 463 291.8 463 Z M174.3 467.6 C174 468.4 174.3 470.3 175 471.9 L176.2 474.9 179.3 472.9 C185.4 469.3 193 471.6 193 477.1 193 481.6 194.7 483 200.5 483 203.5 483 207.8 482.3 210 481.4 212.5 480.4 215.3 480 217.2 480.4 220.9 481.1 227 485.5 227 487.5 227 488.3 227.9 489.5 229 490.3 230.2 491.1 230.8 492.4 230.5 493.2 230.2 494 230.6 496.8 231.5 499.4 233.6 505.5 232.7 511.1 229 515.3 227.5 517.1 226 520.2 225.7 522.3 225.4 524.4 224.5 527.3 223.7 528.8 222.9 530.3 221.2 533.3 220.1 535.5 217.2 540.8 218 547.9 222.6 558 225.6 564.7 225.8 565.6 224.4 566.7 223.3 567.5 222 567.6 220.3 566.9 217.1 565.7 198.3 565.8 190 567 186.4 567.6 180 568.5 175.6 569 170.1 569.7 166.4 570.8 163.1 572.7 158.3 575.5 147.3 581 146.5 581 146.2 581 146 579 146 576.6 146 573.7 146.7 571.4 148.1 569.6 149.6 567.7 150.3 565.2 150.5 561.5 150.7 556.4 150.5 555.8 145.7 550.1 142.3 545.9 140.1 544 138.5 544 134.9 544 131 540.3 131 536.9 131 534.7 131.5 534 132.9 534 133.9 534 135.5 532.8 136.5 531.4 137.9 529.2 138 528.3 137 526.1 136.3 524.7 135.4 522.3 135 520.8 134.2 518.2 134.3 518.2 137.6 518.7 L141 519.3 141 512.7 C141 509.1 141.5 505.8 142 505.5 142.6 505.1 144.2 505.5 145.5 506.4 148.6 508.5 148.7 508.4 149.2 505.5 149.6 503.8 149 502.4 147.3 500.8 145.2 498.8 144.9 497.9 145.4 494.2 145.8 491 145.4 488.7 144 485.5 142.9 483.1 142 480.7 142 480.1 142 477.5 144.6 474 147.7 472.3 151.2 470.5 151.2 470.5 152.7 472.7 L154.2 475 156.9 472.9 C158.3 471.8 162.2 469.2 165.5 467 170.9 463.5 171.7 463.3 173.2 464.7 174.1 465.5 174.6 466.8 174.3 467.6 Z M681.7 476.6 L688.2 483 687.5 488.2 C687.2 491.1 686.4 494.5 685.8 495.6 684.4 498.5 686.5 502.8 690.6 505.5 692.4 506.6 694.7 508.9 695.9 510.7 697.1 512.4 699.3 514.1 700.8 514.5 706.3 515.8 711.8 519.9 713.1 523.5 714.1 526.2 716.3 528.3 722.7 532.6 731.7 538.7 732.4 539.5 733.5 545.5 734.4 550.9 737.2 554.4 742.2 556.8 748.2 559.6 750.2 562.1 749.8 566.2 L749.5 569.5 742.5 570.2 C737 570.8 734.8 570.6 732 569.3 727.3 567.1 722.4 567.3 719.5 570 716.4 572.9 712.4 573.8 706.8 572.7 702.7 571.9 701.1 572.1 694.9 574.4 689.3 576.5 686.8 576.9 683 576.4 678.7 575.8 677.7 576.1 673.6 578.9 671 580.7 669 582.9 669 583.9 669 587.6 666.3 588.5 660.9 586.6 658.2 585.6 654.7 585 653.2 585.3 651.7 585.6 647 585.3 642.6 584.7 636.2 583.8 634.6 583.2 634 581.5 632.8 578.4 631 577.3 626.1 576.7 623.4 576.4 620.8 575.2 619.1 573.6 616.1 570.8 613.9 570.4 609.2 572.1 605.9 573.2 603.7 575.9 602.6 580.3 602.3 581.8 600.8 584 599.4 585.2 598 586.5 597 588.4 597.1 589.5 597.2 590.6 597.2 593.3 597.1 595.5 L597 599.5 591.7 599.4 C588.8 599.3 585.1 598.6 583.5 597.8 581.3 596.6 579.9 596.5 577.8 597.2 575.8 597.9 573.6 597.9 570.7 597.2 565.4 595.8 562.5 597.4 561.6 602.4 561.2 604.5 560.2 606.1 559.1 606.5 558.1 606.8 557 608 556.7 609.1 556.2 611 555.2 610.3 548.1 603.4 541.3 596.9 540 595.1 540 592.5 540 590.7 539.1 588.1 537.9 586.6 532.8 580.1 529.9 572 529.4 562.8 528.9 554.2 529 553.9 532.1 549.2 538.2 540.4 538.7 539.5 539.4 537.3 540.3 534.4 546.7 529.4 550.6 528.6 552.4 528.2 556 526.5 558.6 524.8 L563.5 521.7 567.1 523.8 570.8 525.9 576.9 521.8 583 517.7 587 519.5 C590.8 521.2 591.1 521.2 595.7 519.5 598.3 518.5 601.6 516.4 603 514.8 604.3 513.3 606 512 606.7 512 608.5 512 608.3 507.3 606.5 506.6 602.3 505 606.8 500 612.4 500 613.6 500 615.5 499.4 616.5 498.6 617.9 497.6 620 497.4 623.6 497.7 628 498.2 629.5 497.9 632.7 495.9 634.8 494.6 637.8 492.8 639.5 492 641.1 491.2 643.1 489.3 643.8 487.7 644.5 486.2 646.5 484.3 648.1 483.4 650.2 482.4 651.9 480.1 653.5 476.7 656.9 469 658.9 467.6 667.4 467 673.7 466.6 674.5 466.7 674.8 468.3 675 469.3 678.1 473.1 681.7 476.6 Z M91.8 478.7 C95.6 483.6 97.2 490 95.4 492.5 93.5 495.1 93.7 496 95.9 496 98.2 496 99.3 498.8 98.5 502.3 98 504.2 98.4 505.2 100.1 506.3 L102.3 507.9 99 514.5 C95.4 521.6 92.9 524 89.2 524 87.8 524 85.9 525.1 84.8 526.5 82.4 529.6 80.7 529.6 75.3 526.8 72.4 525.2 71 523.8 71 522.4 71 521.3 69.6 519.4 67.9 518.1 64.2 515.4 61.7 509.9 62.6 506.5 63 504.8 62.4 502.6 60.6 499.5 L57.9 495 66.1 486 C72.4 479.2 75 477 76.9 477 78.3 477 80.2 476.5 81 476 81.8 475.5 83.9 475 85.7 475 88.1 475 89.5 475.8 91.8 478.7 Z M117.3 503.4 C118.7 504.5 119 506.3 119 513.2 L119 521.7 122.9 523.5 C127.7 525.6 129.2 525.2 131.2 521.1 L132.7 517.9 134.7 523.4 C136.5 528.3 136.6 529.2 135.3 531 134.5 532.1 133 533 131.9 533 129.3 533 128.5 535.4 130 539.1 131.5 542.7 134.5 545 138 545.1 139.7 545.1 141.8 546.7 144.8 550.1 148.6 554.6 149 555.6 149 560.4 149 564.3 148.3 567 146.4 570.4 144.3 574.2 143.9 575.7 144.5 579.3 L145.2 583.5 141.3 579.7 C138.9 577.4 136.5 576 134.8 576 131.6 576 120.8 568.9 118.4 565.2 117.5 563.7 113.9 559.8 110.6 556.4 107.2 553.1 103.8 549.3 102.8 547.9 101.9 546.5 98.5 544 95.3 542.2 90.6 539.7 88.8 538.1 86.7 534.2 84.3 529.7 84.2 529.2 85.6 527.2 86.5 525.8 88.2 525 89.9 525 91.4 525 93.3 524.4 94.1 523.7 96.4 521.9 102 512.6 102 510.7 102 509.1 107.7 504.9 112.3 503 115.2 501.8 115.2 501.9 117.3 503.4 Z M753 570.1 C753 570.6 752.3 571 751.5 571 750.6 571 750.3 570.4 750.6 569.5 751.2 568 753 568.4 753 570.1 Z M732.5 571 C735.8 572.7 737 572.8 739.2 571.9 741 571.2 744.3 571 748.6 571.5 754.7 572.1 755.7 572.6 760.1 576.7 763.7 580.1 765.4 581 766.9 580.5 768.4 580.1 769.8 580.7 771.7 582.6 774.3 585.3 774.4 585.3 777.7 583.5 780.7 581.8 781.2 581.8 782.7 583.3 784.4 584.7 784.8 584.6 788 581.9 L791.5 578.9 794 581.9 C795.4 583.6 797.6 586.3 798.9 588 802.1 592.2 808.3 596.2 812.7 596.9 817.2 597.6 818.6 601.3 816.5 606.4 815.6 608.6 815.3 611.6 815.7 615.4 816.2 620.2 816.6 621.1 818.6 621.6 826 623.5 823.4 628.4 807.4 642.1 802.9 646 797.6 659.3 794.5 674.5 792.4 685.1 791.3 688.4 788.5 692.5 785.5 697 784.5 700.2 782.3 712.3 782 713.9 782.5 716.8 783.5 719 784.8 721.8 785 724 784.5 727.2 783.1 736.3 784.8 760 787.2 764.5 788.6 767 788.7 768.2 787.7 771.7 786.7 775.5 786.8 776.3 788.8 778.9 790 780.6 791 783 791 784.3 791 787.5 796.4 794.6 800.1 796.2 803 797.5 807.6 805.2 806.5 807 806.2 807.4 806.7 808.3 807.5 809 810.7 811.7 809.1 812.7 800.8 813.3 796.2 813.7 790.8 814 788.7 814 782.3 814 778.7 816.4 775.5 822.8 772.6 828.5 772.6 828.6 772.9 844.1 773.1 857.1 772.9 859.8 771.6 860.9 769.2 862.9 768.6 869.9 770.5 874.5 771.8 877.8 773.1 879 777.9 881.3 785.1 884.6 786.3 884.7 790.6 881.4 792.4 880 794.7 879 795.5 879.4 797.8 880.2 797.3 884.9 794.6 888.4 793.3 890.1 791.9 893.6 791.5 896 791.1 898.5 790.4 901.5 789.9 902.7 788 907.9 781.3 904 773.9 893.6 770.2 888.4 767.2 885.4 764.5 884 759.3 881.4 758 880.3 754.6 875.7 751.2 871.2 748.8 871 745.9 874.9 743.9 877.7 743.5 877.8 738.1 877.3 732.3 876.7 724 872.8 720.5 869 719 867.4 717.5 867 711.6 867 705.1 867 704.4 866.8 701.4 863.9 L698.2 860.8 683.9 860.9 C675.7 860.9 669.2 861.4 668.6 862 668.1 862.5 666.8 863 665.8 863 663.7 863 663.4 860 665.2 857.1 666.1 855.6 666.1 854.3 665.1 851.2 664.3 849 664.1 846.7 664.5 846 664.9 845.4 663.9 843.3 662.3 841.2 659.6 837.8 659.3 836.6 658.2 824 657.5 816.6 657 806.8 657 802.3 657 797.8 656.7 793.5 656.4 792.6 655.9 791.3 654 791 645.6 791 L635.5 791 632.5 786.9 C629.9 783.4 629.4 783.1 628.7 784.7 628 786.3 626.9 786.5 620.5 786.2 L613.2 785.8 613.7 789.8 C614.2 793.3 613.8 794.5 611.1 797.8 609.4 800 608 802.3 608 802.9 608 803.6 605.8 804 602.3 804 599.1 803.9 592.2 804.2 586.8 804.5 L577.2 805.2 576.5 801.8 C576.1 800 574.3 795.7 572.4 792.3 570.5 788.9 569 785.5 569 784.7 569 783.8 568.5 781.9 567.9 780.3 567.3 778.8 566.6 775.2 566.5 772.3 566.3 769.5 565.9 766.7 565.6 766.1 565.2 765.5 555.1 765.1 538.7 765 524.3 765 509.6 764.8 506 764.7 502.4 764.6 497 764.9 494 765.3 L488.5 766.1 490.8 763.8 C492.3 762.1 493 760.1 493 757.2 493 754 493.7 752.2 496.2 749.3 498 747.2 499.6 745.3 499.7 745.1 499.9 744.8 501.3 745.6 502.8 746.7 506.1 749.2 509.3 748.1 511 744 512 741.7 512.9 741.2 517.3 740.7 520.1 740.3 522.6 740.3 522.8 740.5 523.1 740.8 523.3 742.6 523.4 744.7 523.5 747.6 524.1 748.7 526.2 749.9 529.4 751.7 530.4 751 536.2 743.3 538.5 740.2 540.8 738 541.9 738 544.5 738 553.6 730.6 555.5 727 556.6 724.9 557 720.9 557 712.5 L557 700.9 561.8 695.7 C564.4 692.8 567.4 689.3 568.3 687.7 569.3 686.2 571.6 684 573.4 682.8 578.3 679.5 581.1 674.9 582.6 667.1 583.3 663.2 584.4 659.1 585.1 657.9 585.8 656.5 586.1 653.2 585.7 649.1 585.2 643.2 585.5 642 588.3 636.5 590 633.2 591.5 628.5 591.6 626.2 591.8 623.8 592.7 620.4 593.7 618.7 594.8 616.9 596.6 612.7 597.8 609.3 599.6 604.4 599.9 602.6 599 601 597.3 597.7 598.4 588.2 600.9 585.6 602.1 584.3 603.5 581.6 604.1 579.6 605.9 573.1 614.9 570.1 618.7 574.9 619.9 576.4 622 577.3 625 577.7 629.9 578.3 633 580.4 633 583 633 584.9 639.5 586.1 652 586.6 655.6 586.7 660.1 587.5 662.1 588.4 665.3 589.7 665.9 589.7 667.8 588.4 669 587.6 670 586 670 584.9 670 583.8 671.8 581.7 674.3 579.9 678.1 577.1 679 576.9 683.5 577.5 687.5 578 689.9 577.6 695.5 575.5 701.5 573.2 703 573 706.1 573.9 711.8 575.6 714.4 575.2 718.6 572.1 723.3 568.6 727.1 568.3 732.5 571 Z M902.2 579.7 C903.8 581.1 904.6 581.2 907.2 580.2 909.6 579.3 910.8 579.4 913.1 580.5 914.6 581.3 916.2 582.5 916.5 583 916.9 583.6 920.2 585.6 923.8 587.6 927.5 589.6 933.2 592.7 936.5 594.5 941.9 597.5 943.5 597.9 953.5 598.5 966.4 599.3 969.3 598.4 973 592.5 974.2 590.6 975.9 589 976.8 588.9 978.7 588.8 980.6 588.5 986.3 587.5 988.8 587 990 587.1 990 587.9 990 588.5 991.4 589.9 993.1 590.9 996.4 592.9 996.5 592.9 1006.9 589.5 1008.9 588.9 1008.3 590 1003.6 595.6 1000.5 599.4 996.4 604.1 994.5 606.1 L991 609.7 991.7 644.1 992.3 678.5 996.7 685.3 C999 689 1001 692.9 1001 694 1001 697.2 997.2 700 993.6 699.3 991.9 699 990.1 698.7 989.6 698.6 989.1 698.6 988 700.7 987.1 703.4 985.8 707.4 984.9 708.5 982.5 709.3 977.5 710.9 975 713.9 975 718.1 975 720.7 973.9 723.8 971.5 727.7 969.6 730.9 968 734.8 968 736.5 968 739.4 963.7 747.1 962.2 747 961.8 746.9 955.4 742.5 948 737.2 L934.6 727.4 933.1 721.5 C932.2 717.8 930.9 714.9 929.6 714 928.5 713.2 915.4 705.2 900.5 696.2 885.7 687.3 873.2 679.4 872.8 678.7 871.3 676.4 872 675 875.9 672.6 878.9 670.7 879.7 669.6 879.3 668.1 879 667 878 665.8 877.1 665.5 876.1 665.2 874.4 664.1 873.1 662.9 L870.9 660.9 874 657 C875.7 654.9 878.6 649.8 880.5 645.8 882.4 641.8 885.1 637.1 886.5 635.5 889.3 632.1 889.6 629.6 887.5 626 886.7 624.6 886.1 622.6 886 621.5 886 618.8 880.2 606.7 878.5 605.7 877.7 605.3 877.2 603.7 877.2 602.2 877.3 598.2 876 594.8 873.4 592.3 870 589.2 870.4 586.2 874.7 581.8 L878.4 578 889.4 578 C898.3 578 900.7 578.3 902.2 579.7 Z M873.1 594.1 C875.5 596.3 876 597.6 876 601.3 876 604.2 876.5 606 877.4 606.3 879.1 607 883.5 616.1 884.5 621 884.9 622.9 885.9 625.7 886.6 627.2 888.5 630.9 888.4 631.5 885.1 635.2 883.5 637 881.2 641 879.9 644 877.4 650 873.1 656.8 870.5 659 869.3 660 868.1 660.1 865.5 659.3 862.9 658.5 861.7 658.5 860.2 659.6 858.9 660.5 855.5 660.9 850 660.8 L841.7 660.7 838.3 664.6 C834.5 669 831 675.2 831 677.4 831 680 827.4 681 818.2 681 810.7 681 808.3 681.4 803.8 683.5 798.8 685.9 792.3 686.9 793.4 685.2 793.6 684.8 794.8 679.7 795.9 674 797.8 664.4 802.8 649.8 805.4 645.9 806 645 809.3 642 812.8 639.1 820.5 632.7 824.8 626.6 823.3 624.2 822.8 623.2 821.2 622 819.9 621.3 816.8 619.7 815.7 612.3 817.7 606.6 818.6 603.9 818.7 601.7 818.1 599.4 817 595.3 818.6 594.4 823.7 596.5 826.3 597.6 827.6 597.7 828.6 596.9 829.4 596.2 831.9 596.1 835.5 596.5 840.4 597.2 841.4 597 844.3 594.7 L847.6 592.2 850.3 594.6 C854.7 598.4 857.7 597.7 864 591.8 869.2 586.9 869.5 586.7 869.8 589 870 590.3 871.5 592.6 873.1 594.1 Z M584.7 599.9 C585.9 600.5 588.3 600.9 590.1 600.8 594.9 600.7 598 601.8 598 603.8 598 606.1 594.4 615.5 592.3 618.7 591.4 620.1 590.5 623.1 590.4 625.5 590.3 627.8 588.9 632.2 587.3 635.1 585 639.6 584.5 641.8 584.4 648.5 584.3 656.2 580.8 671.7 578.1 676.8 577.5 678 575 680.3 572.5 682 570 683.7 567.3 686.4 566.5 688 565.6 689.7 562.9 693.2 560.5 696 558 698.8 556 701.4 556 701.8 556 716.4 555.2 724.9 553.6 727.5 551.8 730.6 544.1 736.3 540.2 737.5 538.9 737.9 536.3 740.6 534.4 743.6 531.8 747.6 530.3 749 528.6 749 525.6 749 523.7 746.7 524.5 744.1 525.2 741.8 523.4 737.7 522 738.5 521.5 738.8 519 739.1 516.5 739.2 512.2 739.2 511.8 739.5 509.9 743.1 508 746.9 504.9 748.3 503.5 746 502.6 744.5 496.1 742 493.2 742 491.8 742 489.9 742.6 489.1 743.4 488.2 744.2 486.3 745.2 484.8 745.5 482.5 746.1 481.6 745.7 479.8 743.4 478.5 741.9 475.6 738.7 473.3 736.3 470.8 733.9 469.5 731.8 470.1 731.4 470.7 731.1 471.5 729.7 472.1 728.3 472.8 726.3 473.6 725.9 476.2 726.2 479.4 726.5 479.5 726.4 480.7 721.1 482.1 714.5 480.5 711 476 711 473.2 711 471.8 709.9 470.7 706.9 470.3 705.6 471 705.3 474.5 705.2 476.9 705.2 479.7 704.7 480.8 704.1 482 703.5 484.1 703 485.5 703 489.7 703 492 701.3 492 698 492 694.4 493.6 694.8 497 699.4 499.3 702.6 499.9 702.8 505.4 702.9 510.7 702.9 511.7 703.3 514.7 706.2 517.4 708.8 518 709.1 518 707.5 518 706.5 519.5 703.9 521.3 701.6 524.3 697.9 524.7 696.7 524.9 690.6 525 686.8 525.5 682.9 526 681.9 526.6 680.9 527 678.4 527 676.2 527 672 525 669.5 519.3 666.6 514.4 664.2 514.9 661 521 654.6 525.3 650 526 648.7 526 645.3 526 642.8 525.3 640.3 524.1 638.9 522.3 636.7 521.4 636.5 513.1 636.5 L504 636.5 504 629.8 504 623 514.9 623 C524.4 623 526.1 623.3 528.4 625.1 529.9 626.3 532.8 627.4 534.8 627.6 539.5 628.1 548.6 629.5 552.8 630.5 555.9 631.2 556 631.1 556 628.1 556 626.3 556.7 623.5 557.6 621.8 558.9 619.4 558.9 618.3 558 616 556.6 612.6 557.3 609.7 560.6 606.5 561.9 605.2 563 603.3 563 602.2 563 601.2 563.5 599.9 564.1 599.3 565.5 597.9 581.9 598.3 584.7 599.9 Z M471.5 633.6 L470.8 642.7 457.7 642.3 C450.4 642.1 442.6 641.7 440.3 641.4 435.6 640.8 435.6 641.1 439.5 632.5 440.7 629.7 442 626.6 442.4 625.4 443.5 621.8 447.2 620.6 455.7 621.3 460 621.6 465.3 621.5 467.5 621.1 472.4 620.3 472.5 620.6 471.5 633.6 Z M495.5 621.8 L502.5 622.5 502.8 630.3 503.1 638 510.8 637.5 C517.5 636.9 518.9 637.1 521.8 638.9 524.5 640.7 525 641.5 525 644.9 525 648.3 524.4 649.6 521.1 652.7 515.7 657.9 513.9 661.6 515.2 664.6 515.8 665.9 517.1 667.2 518.2 667.5 521.5 668.6 526 673.1 526 675.4 526 676.7 525.6 679 525 680.6 524.5 682.2 523.9 686.7 523.7 690.7 523.4 697.3 523.1 698.2 519.8 701.8 L516.2 705.8 514.1 703.6 C512.4 702 510.6 701.5 506.2 701.4 500.9 701.3 500.2 701 496.3 697.1 494 694.7 491.6 693.1 491 693.5 490.5 693.8 490 695.7 490 697.6 490 699.5 489.7 701 489.3 701.1 488.8 701.1 487.2 701.3 485.5 701.5 483.9 701.6 480.4 702.4 477.9 703.3 475 704.2 472.8 704.5 471.9 703.9 469.7 702.5 469 702.8 469 705.3 469 708.6 471.7 712 474.4 712 478.9 712 480.3 714.1 479.5 719.8 478.9 724.5 478.6 724.9 476.1 724.8 472.6 724.7 471 725.6 471 727.8 471 728.8 470.2 730 469.1 730.7 467.5 731.7 466.5 731 461.3 725.7 457.9 722.3 454.1 717.7 452.7 715.4 450.6 712 447.2 708.7 437.7 700.9 437.2 700.5 437.3 699.3 437.9 698.2 438.7 696.7 438.6 695.9 437.6 695.1 436.8 694.4 435.9 692.4 435.6 690.6 435.1 688.2 432.9 685.1 428.4 680.5 424.8 676.8 422.1 673.6 422.4 673.2 422.8 672.9 423.7 673.6 424.5 674.7 426.2 677.1 430 676.8 430 674.2 430 670.8 435.7 655.4 438.2 652.1 439.2 650.8 440 648.4 440 646.9 L440 644 455.9 644 471.8 644 472.4 640.7 C472.7 639 473 633.7 473.1 629 L473.3 620.5 480.9 620.8 C485.1 621 491.7 621.5 495.5 621.8 Z M870 662.2 C879.2 667.6 879.8 669 874.5 672.1 872.4 673.4 871 675 871 676.1 871 679.5 863.5 692.2 860.2 694.6 858.9 695.5 858.1 696.8 858.4 697.6 858.7 698.3 858 699.2 856.9 699.5 854.9 700.2 854.9 700.2 856.7 702.2 857.9 703.5 859.4 704 861.2 703.8 864.8 703.2 864.7 704 860.6 706.6 857.8 708.4 857.1 708.5 855.3 707.3 853.6 706.1 853 706.2 850.9 707.9 848.5 709.8 848.5 709.8 845.2 707.8 842.1 705.9 841.4 705.9 837.7 707 835.4 707.8 833.1 708.7 832.6 709.2 832 709.6 831 708.4 830.2 706.2 827.6 699.4 827.7 697.5 830.4 693.1 833.5 688.2 833.7 685.7 831 683 829.1 681.1 829.1 681 831.1 680 832.2 679.4 832.8 678.5 832.5 678 831.6 676.5 835.5 668.9 838.9 665.2 841.9 662.1 842.1 662 850.9 662 857.3 662 860.1 661.6 860.9 660.6 862.1 659.2 866.2 659.9 870 662.2 Z M902.6 698.8 L930.5 715.7 931.8 721.9 933.2 728 946.6 737.6 C954 742.9 960.2 747.5 960.4 747.9 961.2 749.2 958.6 756.3 955.3 762.1 952.8 766.4 952 768.9 952 772.8 952 777 952.3 778 954 778.5 955.1 778.8 956 779.5 956 780 956 780.5 957.5 782.8 959.4 785.3 962.7 789.6 962.7 789.8 961.2 793.1 960.4 795 959.6 799.4 959.4 803 959.3 806.6 958.8 811.4 958.5 813.8 957.9 817.1 958.2 818.5 959.5 820 960.6 821.2 960.8 822 960.1 822.5 958.4 823.5 958.8 825.8 961.2 828.2 962.5 829.5 963.4 831 963.2 831.7 963.1 832.4 963.7 834.1 964.5 835.4 965.7 837.1 966 838.9 965.5 841 964.9 843.6 965.1 844 966.9 844 968 844 969.1 844.8 969.4 845.8 969.8 846.8 971.6 848.4 973.5 849.3 975.4 850.2 977 851.6 977 852.3 977 854.4 968.4 860.1 963.8 861.2 961.5 861.7 958.7 862.9 957.5 863.8 956.3 864.8 952.7 866.5 949.6 867.5 944.3 869.3 943.7 869.3 939.6 867.8 934.7 866 933.9 866.3 928 872.1 925.9 874.2 924.4 875 923.2 874.5 922.3 874.2 917.7 873.6 913 873.4 908.3 873.1 903.5 872.4 902.3 871.8 901.1 871.2 898.9 871 897.3 871.4 895.8 871.8 894.1 872 893.5 872 881.6 871 880.9 870.8 879.2 868.2 877.9 866.2 877.6 863.7 877.7 857.2 877.9 850 877.5 848 875.3 843.3 871.9 836.2 869.3 834.4 864.7 836.1 861.6 837.2 860.5 837 854.4 834.6 850.6 833.1 846.4 831.1 845 830.2 841.7 828 838.5 826.2 829.5 821.6 822.6 818 821.8 817.4 819 811.6 817.3 808.3 814.3 803.3 812.4 800.6 810.6 798 809 794.6 809 793.1 809 789.1 804.4 782.7 799.4 779.7 794.5 776.7 794 774.7 797.2 771.3 799.2 769.1 799.3 768.9 797.7 765.3 796.9 763.2 796.1 760.1 796.1 758.5 796.1 756.8 795.2 753.3 794.1 750.7 L792 745.9 795.7 742.7 C797.7 740.9 799.9 739 800.5 738.5 802.2 737 808 727.2 808 725.7 808 725 808.7 723.5 809.5 722.4 811.3 720.1 811.4 717.6 809.8 713.3 808.7 710.1 808.8 709.9 812.3 706.6 816.4 702.8 816.6 701.6 814.6 693.5 812.8 686.6 812.4 686.1 809.2 684.9 804.7 683.2 808.6 682 819.2 682 828.6 682 829 682.1 830.7 684.6 832.4 687.2 832.3 687.4 829.7 692.1 826.7 697.6 826.4 700.3 828.5 704 829.3 705.4 829.9 707.6 830 708.9 830 710.7 830.4 711.1 831.8 710.5 841.9 706.4 841.3 706.4 846.4 709.8 851.8 713.5 852.5 713.7 851.1 711.3 849.7 708.7 852.9 706.6 855.2 708.7 856.7 710.1 857.2 710 859.6 708.1 861.1 706.9 862.8 706 863.5 706 864.7 706 866 703.9 866 702 866 701.5 864.6 701.6 863 702.2 859.8 703.3 857 702.7 857 701 857 700.5 857.7 700 858.6 700 859.6 700 860 699.4 859.7 698.5 859.3 697.7 860.5 695.6 862.3 693.7 865.9 689.8 871 681.9 871 680 871 679.1 871.5 679.2 872.8 680.3 873.8 681.3 887.2 689.6 902.6 698.8 Z M813.1 693.5 C815 699.6 815.1 700.8 813.9 702.9 811.9 706.4 809.4 707.7 807.3 706.4 806.3 705.8 804.5 704.7 803.3 703.9 801.3 702.7 800.8 702.8 799.4 704.1 798.6 705 797.7 706.5 797.6 707.5 797.3 709.5 796.4 710.1 791 711.9 787.9 712.9 787.3 712.8 785.8 711 784.5 709.4 784.4 708.3 785.1 705.7 785.6 704 786 701.4 786 700.2 786 698.9 787.3 696.1 788.8 694.1 790.4 692.1 792 689.7 792.3 688.7 792.7 687.6 794 687 795.9 687 797.5 687 800.2 686.4 802 685.6 804.5 684.6 805.9 684.5 808.2 685.4 810.6 686.3 811.4 687.5 813.1 693.5 Z M807.8 709.7 C807.9 710.7 808.5 713.1 809.2 715.1 810.1 718.2 810 719.2 808.6 721.1 807.7 722.4 807 724.1 807 725 806.9 727.5 800.8 736.4 796.4 740.3 L792.3 744 790.7 738.7 C789.9 735.9 788.9 729.2 788.7 723.8 L788.2 714.2 793.3 712.3 C796.8 711.1 798.6 709.9 798.8 708.5 799.6 704.5 801 703.8 804.4 705.9 806.1 707 807.6 708.7 807.8 709.7 Z M787.6 724 C787.9 729.8 788.8 736.7 789.6 739.3 790.3 742 790.9 744.5 790.8 744.8 790.7 745.2 791.4 747.3 792.4 749.5 793.4 751.7 794.4 755.5 794.7 758 794.9 760.5 795.9 764 796.8 765.7 798.4 768.9 798.4 769.1 796.4 770.5 791.6 773.8 792.8 777.2 800.9 782.3 804.7 784.8 806.4 787.6 808.1 794.3 808.7 796.9 810.6 800.7 812.2 802.8 814.8 806 820 815.1 820 816.4 820 816.7 818 816.2 815.5 815.3 813 814.5 811 813.2 811 812.5 811 811.8 810.3 810.7 809.5 810 808.7 809.3 808 807.9 808 806.8 808 803.5 804.1 797.1 801.1 795.5 797.2 793.5 792 787.1 792 784.3 792 783.1 791 780.5 789.9 778.5 788 775.3 787.9 774.4 788.9 771 789.9 767.6 789.8 766.5 788 763.1 786.4 759.9 786 757.2 786 750.2 786 745.1 785.5 740.9 784.9 740.3 784.2 739.6 784 737.6 784.4 735.1 784.7 732.8 785.3 729.2 785.6 727 786 724.4 785.7 721.6 784.6 719 783.7 716.8 783 713.7 783 712.3 783 709.6 783 709.6 785 711.5 786.6 713.2 787.1 715.4 787.6 724 Z M496.9 743.9 C498.1 744.7 497.8 745.5 495.2 748.5 492.6 751.3 492 753 492 756.5 492 760.6 490.2 764 488 764 486.7 764 486.2 761.7 487.1 760 487.6 758.9 486.9 756.9 484.9 754.1 481.4 748.8 481.2 747 484.4 747 485.7 747 487.8 746.1 489.1 745 491.7 742.9 494.7 742.5 496.9 743.9 Z M538.3 766.6 L565 767.2 565.2 769.9 C565.5 776.8 565.9 778.9 567.3 783.5 568.1 786.2 570.1 791 571.8 794 573.4 797 575.1 801 575.5 802.7 L576.2 806 585.3 805.9 C590.4 805.8 595.6 805.5 597 805.1 598.4 804.7 601.3 804.8 603.4 805.4 606.4 806.1 607.5 806 607.8 805.1 608 804.4 609.7 801.9 611.6 799.4 614.2 796 615 794 615 790.8 L615 786.7 621.9 787.3 C626.8 787.7 629 787.5 629.3 786.7 629.5 786 630.9 786.9 632.4 788.7 L635.2 792 645 792 654.9 792 655.4 796.2 C655.7 798.6 655.9 803.6 655.9 807.5 655.9 811.3 656.3 819.8 656.7 826.2 657.5 837.1 657.7 838.1 660.4 840.8 662.2 842.7 663.1 844.6 662.9 846.1 662.7 847.4 663.1 849.9 663.9 851.7 665 854.4 665 855.2 663.6 857.2 662.7 858.4 662 860.3 662 861.3 662 863.3 666 865.3 667.4 863.9 668 863.4 671.7 863 675.8 863 679.8 863 684 862.5 685.1 861.9 686.2 861.4 688 861.2 689 861.5 690.8 862.1 691 863 690.8 869.3 690.6 873.9 691.1 877.7 692 879.8 693.2 882.4 693.2 883.4 692.2 885 691.6 886.1 691 888.5 691 890.3 L691 893.7 674.3 894.6 657.5 895.5 657.5 927.4 657.5 959.2 666.9 968 676.2 976.8 668.9 979 C664.8 980.2 659.6 981.7 657.3 982.5 654 983.5 650.5 983.7 641.3 983 621.3 981.5 615.6 980.8 613 979.5 611.6 978.8 609.1 978.5 607.4 978.7 605.2 979 602.5 978.3 598.2 976.1 L592.1 973 561.3 973.9 C525.4 975 519.5 974.4 512 969.4 507.8 966.5 503.1 966.3 498.8 969 496.5 970.4 493.7 971 489.8 971 484.2 971 484 970.9 482.6 967.7 481.8 965.6 481.4 961.8 481.6 956.9 481.8 952.9 482 948.7 482 947.8 482 946.9 483.1 944.8 484.6 943.1 488.3 938.6 492.3 928.3 492.6 922 493.6 904.8 494.2 901.7 497.5 896.7 499.3 894 502.4 890.7 504.4 889.4 506.3 888.1 509.3 884.9 511 882.4 514.1 878 514.2 877.7 514.3 865.1 514.5 852.2 514.5 852.2 511.4 847.9 509.7 845.5 507.7 841.9 507 840 506.3 838.1 504.4 833.9 502.8 830.8 501.3 827.6 500 824.5 500 823.7 500 823 501.6 821.6 503.5 820.7 506.7 819.2 507 818.6 507 814.8 507 812 506 808.9 503.9 805.2 502.2 802.2 500.2 796.6 499.4 792.7 498.2 787.3 497.1 784.7 494.5 781.9 488.4 775.1 487.6 773.4 489 770 490.1 767.5 490.8 767 493.9 767 495.9 767 498.2 766.5 499 766 499.8 765.4 503 765.2 506 765.5 509 765.8 523.5 766.3 538.3 766.6 Z M815.8 816.7 C820.1 818.1 824 819.7 824.6 820.2 825.3 820.7 828.4 822.4 831.6 824 839.7 828.2 844.1 830.8 846.7 833.3 848 834.4 850.2 835.5 851.7 835.6 857 836.2 864.4 838.7 864.8 840.1 865 840.9 866.3 843.8 867.6 846.7 869.5 850.8 869.8 852.4 869 854.5 868.3 856.3 868.4 860 869.2 866.1 870.4 875.7 870.7 874.6 865.4 884.3 863.9 887 864 887.5 867 893.2 869.5 897.9 870.1 899.9 869.6 902.5 869.1 904.8 869.5 907 870.5 908.9 871.3 910.6 872 913 872 914.3 872 915.6 872.8 917.3 873.8 918.1 875.4 919.5 882.5 923 883.5 923 884.7 923 883.8 916.2 882.4 914.2 881.5 912.9 881 911.6 881.3 911.3 881.6 911 883.2 913 884.9 915.6 886.5 918.3 888.8 921 889.9 921.7 892.8 923.5 894.4 929.3 893.1 933.2 892.5 934.9 892 938.9 892 942.1 892 949.5 890.7 952.2 886 954.9 883.9 956.1 882 957.7 881.6 958.5 881.3 959.3 880.3 960 879.3 960 877.2 960 868 950.6 868 948.5 868 947.6 868.9 945.2 870 943 873.6 936 872 924.4 867.4 922.6 866.4 922.2 865.2 922.4 864.6 923 862.7 924.9 859.7 924 856.1 920.5 854.1 918.5 850.3 915 847.7 912.7 L842.9 908.5 845.6 903.6 C847.1 900.9 848.6 897 849 895.1 849.4 892.1 850.1 891.3 853 890.4 856.4 889.2 856.5 889.1 856.1 884.4 856 881.8 855.4 878.5 854.9 877.2 852.6 871.3 854.7 862 859.4 857.3 861.8 854.9 862.1 854 861.6 850.5 860.2 841.8 859 839.1 855.9 837.4 854.2 836.6 852.6 836.1 852.3 836.4 852 836.6 853.2 837.6 854.9 838.4 857.9 840 858.8 842 860.4 850.8 860.9 853.5 860.5 854.6 858.2 856.8 853.1 861.9 851.1 869.8 853.3 876.7 854.2 879.3 855 883.1 855.2 885 855.5 888.3 855.3 888.5 852.3 888.8 849.6 889.1 848.9 889.7 848.5 891.8 847.2 897.8 845.5 902.3 843.3 905.2 L841 908.4 844.7 912.2 C846.7 914.3 848.2 916 848 916 847.7 916.1 836.5 919.8 823 924.3 805.4 930.2 798.5 933 798.6 934 798.7 934.8 799 937.4 799.4 939.7 L800.1 943.8 790.1 944.2 C778.3 944.6 774.7 946.3 774.2 952.1 773.7 956.6 772.8 957.5 766.8 959.5 753.3 963.9 743.9 971.5 741.7 979.8 740.4 984.6 737.8 986 733.2 984.1 731.7 983.5 725.3 982.6 719 982.1 709.8 981.3 707.1 981.4 704.8 982.6 703.3 983.4 700.8 984 699.2 984 697.7 984 695.9 984.5 695.3 985.1 694.1 986.3 686.2 986.5 682.9 985.5 681.5 985 681 983.9 681 981 681 978 680.6 977 679 976.5 677.8 976.1 675.5 974.4 673.7 972.7 671.9 970.9 669.4 968.6 668 967.5 666.6 966.4 663.8 963.6 661.8 961.2 L658 957 658 941.7 C658 933.2 658.3 919.5 658.7 911.2 L659.3 896 664.4 896 C667.2 896 674.6 895.7 680.8 895.3 L692 894.7 692 891.1 C692 889.1 692.6 886.5 693.4 885.4 694.6 883.7 694.6 882.8 693.1 878.4 691.8 875 691.4 871.7 691.8 867.7 692.2 862.3 692.4 862 694.9 862 696.6 862 698.7 863.1 700.5 865 703.1 867.8 703.9 868 710.1 868 715.7 868 717.3 868.4 719.7 870.3 725.5 875.1 733.5 878.8 738.8 879.1 743.6 879.5 744.1 879.3 746.9 876 L750 872.5 754.6 877.8 C757.2 880.7 761 883.8 763.1 884.6 765.8 885.7 768.4 888.3 772.5 893.9 779.1 902.8 783.6 906.3 787.7 905.8 790.3 905.5 790.6 904.9 792.1 899 793 895.4 794.9 890.4 796.3 887.9 799.6 882.2 799.7 880.3 796.5 878.8 794.4 877.9 793.5 878.1 790 880.4 787.8 881.8 785.6 883 785 883 784.5 883 781.6 881.8 778.6 880.3 774.7 878.4 772.7 876.7 771.9 874.6 770.1 870.4 770.5 864.3 772.6 861.9 774.6 859.7 774.8 856.1 774.1 837.4 773.8 828.8 774 828.1 776.9 822.8 778.7 819.7 780.9 816.8 781.8 816.4 782.7 816 788.9 815.3 795.5 815 802.1 814.6 807.7 814.3 807.8 814.2 808 814.1 811.6 815.2 815.8 816.7 Z M869.8 837.6 C871 838.4 873.1 841.3 874.5 843.9 876.5 848 876.9 850 876.7 857.3 876.5 864.7 876.8 866.3 878.7 868.8 881.3 872.3 880.9 877.9 877.8 881.9 875.6 884.8 875.5 888.7 877.6 892.9 878.7 895 878.9 897 878.4 899.3 877 905.3 877.4 908.4 880.2 912.7 881.8 915 883 918 883 919.5 883 922 882.9 922 880.8 920.6 879.6 919.7 877.8 919 876.8 919 874.9 919 872.6 915.6 873.3 913.7 873.5 913 872.9 911 871.9 909.2 870.8 907 870.3 904.6 870.7 902.6 871.1 900.2 870.4 897.6 868.1 893 L865 886.7 868.1 881.9 C871.6 876.4 872 872.9 870.2 863.3 869.3 859.1 869.3 856.4 870 854.5 870.8 852.4 870.6 850.9 868.9 847.2 864.2 836.8 864.5 833.8 869.8 837.6 Z M976 865.5 C975.2 869 975.1 871.7 975.7 874 976.3 875.9 976.3 878.4 975.9 879.5 975.5 880.6 975.1 885 975.1 889.2 975 893.4 974.5 897.2 974 897.5 973.4 897.9 973.2 899.6 973.6 901.6 973.9 903.5 973.7 907.9 973 911.5 971.8 917.9 971.8 918.2 974.4 922 977.5 926.7 977.5 926.8 975.1 929.4 974.1 930.6 972.5 934.8 971.5 938.8 L969.8 946.1 957.2 958.8 C944.9 971.1 944.5 971.4 939.3 972.1 931.9 973.1 913.8 982.2 910 986.9 908.4 988.9 905.5 992.1 903.7 994 901.8 995.9 899.3 999.2 898.1 1001.2 896.8 1003.4 895.1 1005 894 1005 893 1005 890.1 1006.7 887.7 1008.7 885.2 1010.8 881 1013.7 878.2 1015.2 869.1 1020.1 864.4 1029.6 868.8 1034.3 873 1038.8 875 1046.3 875 1057.8 875 1064.5 875.4 1068 875.9 1067.1 876.5 1066.1 877 1067.5 877.5 1071.4 878.1 1075.7 877.9 1077.9 876.7 1080.3 875.9 1082.1 874.7 1086.5 874.2 1090.2 872.6 1101 870.7 1103.9 862.5 1107.9 858.7 1109.7 853.5 1111.5 851 1111.8 848.5 1112.1 844.8 1113.5 842.5 1115 840.3 1116.5 836.1 1118.9 833.2 1120.4 830.3 1121.9 827 1124 826 1125 823.6 1127.4 823.4 1132.3 825.5 1137.3 827.7 1142.6 826.6 1144.4 821.6 1143.6 819.3 1143.2 817 1142.3 816.5 1141.6 815.7 1140.6 816.1 1135 817.7 1122.3 820 1103.9 819.8 1099.9 816.5 1094.6 815.8 1093.4 814.9 1090.9 814.5 1089 814.1 1087.1 813 1083.9 812 1082 810.9 1079.9 810.1 1075.6 809.9 1071.4 L809.5 1064.3 819.3 1051.5 C824.6 1044.5 829 1038.1 829 1037.4 829 1036.6 829.3 1036 829.8 1036 830.2 1036 832 1034.7 833.8 1033.2 837.8 1029.9 839.4 1024.3 837.9 1018.5 837.3 1016.3 836.5 1012.9 836.1 1011 835.7 1009.1 834.8 1006.4 834.1 1005.1 832.9 1003 833 1002.5 834.7 1001.1 839.7 997.1 840.8 993.2 841.2 979.3 L841.5 966.1 838.1 963.5 C836.2 962.1 833.3 961 831.8 961 828.2 961 821.7 957.7 816.5 953.3 812.9 950.2 812 949.9 807 950.1 L801.5 950.4 801.4 946.9 C801.3 945 800.9 941.2 800.5 938.5 L799.8 933.4 824.4 925.2 C837.9 920.7 849.6 917 850.3 917 851.1 917 853.4 918.8 855.3 920.9 859.3 925.3 861.9 926.2 864.4 924.1 865.9 922.8 866.4 922.9 868.2 924.7 871.3 927.9 871.8 935.5 869.1 941.5 868 944.1 867 947.2 867 948.4 867 951.8 876 961 879.3 961 880.8 961 882 960.6 882 960 882 959.5 884 957.7 886.5 956 889 954.3 891.5 952 892.1 950.8 892.7 949.7 893.6 944.1 894.1 938.4 895.1 926.8 894.5 924.1 889.8 919.5 888.2 917.8 885 914 882.8 911 879.1 905.8 878.9 905.2 879.5 900.3 880 896.6 879.7 894.3 878.6 892.1 876.5 888.1 876.6 885.8 879 882.7 880.1 881.3 881 879.2 881 878 881 873.9 882.8 872 886.8 872 888.9 872 891 872.4 891.6 873 892.2 873.6 893.8 873.6 896.2 872.8 899.2 871.9 900.3 872 901.6 873.1 902.7 874 905.8 874.5 910.4 874.6 914.3 874.6 919.3 874.9 921.6 875.4 925.4 876.1 925.9 875.9 929.9 872 933.2 868.8 934.7 868 936.3 868.5 944.1 870.8 951.2 869.6 958 865 959.4 864 962.1 863 964.1 862.6 966.2 862.2 969.8 860.4 972.1 858.6 L976.5 855.2 976.8 857.9 C977 859.3 976.6 862.8 976 865.5 Z M880.5 909.1 C881.6 910.8 880.4 911.2 879 909.5 878.2 908.6 878.2 908 878.8 908 879.4 908 880.2 908.5 880.5 909.1 Z M800 948.8 L800 952.3 806.1 951.7 C811.7 951.2 812.4 951.4 815.3 954 820.2 958.3 827.5 962 831.2 962 833.1 962.1 835.7 963 837.4 964.4 L840.2 966.8 840.1 979 C839.9 992 839.3 994.1 834.4 1000 831.7 1003.1 831.7 1003.3 833.3 1006.4 835.1 1009.9 835.9 1014 836.7 1022.3 837.2 1028 837.2 1028 832.5 1032.8 830 1035.4 823.4 1043.6 817.9 1051 811.2 1059.9 807.3 1064.4 806.2 1064.3 802.5 1063.8 794.1 1062.2 787.2 1060.6 783.2 1059.7 778.3 1059 776.4 1059 773.7 1059 772.7 1058.5 771.8 1056.5 770.4 1053.4 767.5 1051.5 762.2 1050.1 757.1 1048.7 751.8 1041.6 751.8 1036.1 751.8 1033.2 751 1031.7 747.7 1028.6 745.5 1026.5 742.2 1024.1 740.4 1023.4 737.5 1022.2 728 1012.3 728 1010.5 728 1010 726.9 1008.3 725.6 1006.6 722.2 1002.1 720 997.4 720 994.8 720 993.3 718.4 990.9 716 988.5 713.8 986.4 712 984.3 712 983.9 712 982.9 726.3 983.6 731.9 985 739.4 986.8 741.3 986 742.8 980.5 744.7 973.3 752.5 966.1 762 962.6 773.3 958.5 774.4 957.7 775.6 952.9 777.2 946.4 780.3 944.9 791.3 945.2 L800 945.4 Z M515 972.4 L520.5 975.5 556.7 975.2 C592.3 974.9 592.9 974.9 597.2 977.1 599.5 978.3 604 979.6 607 980 610 980.4 616.6 981.5 621.5 982.4 626.5 983.2 634.1 984 638.5 984.1 642.9 984.1 647.6 984.5 649 984.9 650.7 985.4 655.5 984.4 664 981.7 678.2 977.3 679.5 977 679.4 978.7 679 983.9 679.4 983.7 670.8 984.3 666.2 984.6 659.8 985.8 656.6 986.9 653 988.2 648.2 989 644.3 989 L638 989 638 1021.5 638 1054 632.6 1054 C629.7 1054 625.8 1054.3 624.1 1054.6 L621 1055.2 621 1112.1 621 1169 618.6 1169 C617 1169 615.4 1170.1 614 1172 610.4 1177.1 598.3 1178.6 588.3 1175.1 582.2 1173 580 1171.4 580 1169 580 1165.8 578.8 1164 575.9 1162.5 573.2 1161 573 1161.1 571.6 1163.7 570.8 1165.3 569 1167.6 567.5 1169 L564.8 1171.5 562.9 1169.1 C561.8 1167.8 560.6 1166.1 560.2 1165.5 559.8 1164.8 558.2 1163.9 556.5 1163.3 552.6 1162.1 545.2 1149.1 544 1141.4 543.5 1138.5 542.2 1134.3 541 1132 539.5 1129 538.7 1125.2 538.3 1117.7 537.8 1109.5 537.1 1106.3 534.8 1101.3 531.3 1093.5 528.9 1076.6 530.8 1072.5 532.7 1068.3 532.3 1066.7 526.4 1057.9 523.3 1053.3 519.8 1046.6 518.8 1043.2 517.4 1038.8 515.7 1035.9 513.4 1033.8 511.5 1032.1 510 1030.2 510 1029.7 510 1028.1 500.9 1010 496.2 1002.2 493.8 998.2 490.5 993.9 488.9 992.8 487.3 991.6 486 990.1 486 989.5 486 988.8 485.1 987.5 483.9 986.4 482.1 984.8 481.9 983.7 482.2 979.2 482.8 972.9 483.7 972 490.5 972 493.3 972 497.2 971.1 499.5 970 504.4 967.6 507.4 968.1 515 972.4 Z M711 984.1 C711 984.7 712.8 987 715 989.2 717.6 992 719 994.3 719 996.1 719 1001.7 734 1022.1 740.4 1025.1 746.7 1028 750.2 1032.1 750.4 1036.7 750.7 1040.6 754.7 1047.7 757.8 1049.5 758.7 1050 761.5 1051.1 763.9 1052 767 1053 768.9 1054.5 770.1 1056.6 771.8 1059.7 771.8 1059.9 769.7 1061.8 768.5 1062.9 765.9 1064.1 763.9 1064.5 761.8 1064.9 758 1067.1 754.9 1069.6 751.9 1072 747.9 1075.1 745.9 1076.4 741.3 1079.5 733 1088.7 732.9 1090.9 732.9 1091.8 731.7 1094.7 730.2 1097.4 728.1 1101.2 726.3 1103 722.5 1104.9 718.2 1107.2 717.1 1108.4 714.3 1114.1 L711.1 1120.7 704.1 1121.4 C696.7 1122 689 1120.5 689 1118.4 689 1117.8 687.9 1116.3 686.5 1115 684.3 1113 683.5 1112.8 678.3 1113.4 669.7 1114.4 667.5 1116.4 665.6 1125.2 665.2 1127 663.5 1128.9 660.9 1130.5 658.7 1131.9 656.4 1134.2 655.8 1135.5 654.2 1139 650.4 1140.1 641.4 1139.8 L633.5 1139.5 633.8 1135.7 C634 1133.6 634.8 1130.4 635.5 1128.7 636.7 1125.7 636.5 1124.9 632.9 1117.3 630.4 1112 627.8 1108.1 625.5 1106.3 L622 1103.5 622 1079.9 622 1056.3 626.6 1055.6 C629.2 1055.3 633 1055 635.1 1055 L639 1055 639.2 1022.7 639.5 990.5 644.5 990.2 C647.3 990.1 654.2 988.8 659.9 987.4 670.6 984.7 673.7 984.6 685.9 986.9 690.1 987.7 692 987.6 694.8 986.4 696.7 985.6 699 985.2 699.9 985.4 700.8 985.7 703.1 985.1 705 984.1 708.4 982.3 711 982.3 711 984.1 Z M785.5 1061.6 C789.4 1062.4 795 1063.5 798 1064 801 1064.5 804.7 1065.5 806.3 1066.1 808.8 1067.2 809 1067.7 809 1072.9 809 1076.5 809.7 1079.9 810.9 1082.3 811.9 1084.3 813.1 1087.7 813.5 1089.7 813.9 1091.8 814.9 1094.3 815.8 1095.3 816.6 1096.2 817.5 1099.4 817.8 1102.3 818.3 1108.5 816.4 1125 815.1 1126.3 814.5 1126.9 813.1 1126.5 811.4 1125.1 807.7 1122.2 805.9 1122.4 801.8 1126.7 793 1135.9 792.5 1143.3 799.9 1150.4 802.2 1152.6 803.5 1153.1 806.6 1152.8 810 1152.5 810.5 1152.2 811.1 1149.2 812 1145 812.4 1144.6 816.3 1144.8 825.7 1145.1 827 1145.2 827 1145.6 827 1145.9 826.3 1147.7 825.4 1149.8 824.5 1151.8 823.4 1156.6 822.9 1160.4 821.8 1169.1 818.7 1174.4 811.3 1180.7 796.4 1193.3 788 1203 782.1 1214.4 780.1 1218.3 777.9 1220.6 772.8 1224 769.2 1226.5 765 1230 763.5 1231.7 762 1233.5 757.2 1237.5 752.7 1240.6 748.2 1243.7 743 1248 741.2 1250.1 739.2 1252.4 736.9 1254 735.7 1254 734.5 1254 731.9 1255 730 1256.2 724.9 1259.4 720.1 1261 715 1261 712.2 1261 709.4 1261.8 707.5 1263 705.9 1264.1 702.9 1265 701 1265 699.1 1265 696.7 1265.6 695.8 1266.4 694.5 1267.3 692.4 1267.4 687.3 1266.8 678.8 1265.7 675.8 1265.6 664.2 1266.1 655.3 1266.4 654.7 1266.6 652.8 1269.2 651.1 1271.7 650.2 1272 646.2 1271.9 637 1271.5 629.7 1273.1 626.8 1276.2 623.1 1280.2 617.4 1280.1 612.7 1276 610.8 1274.4 608.5 1273 607.6 1273 606.7 1273 605.1 1271.6 604.2 1269.9 603.3 1268.1 601.5 1265.8 600.3 1264.7 599 1263.6 598 1261.9 598 1260.9 598 1260 597.3 1259 596.5 1258.7 594.6 1257.9 591 1250.7 591 1247.7 591 1244.5 591.9 1243.9 594.3 1245.2 596 1246.1 596.2 1246 595.5 1244.4 595.1 1243.3 594.5 1238.4 594.1 1233.3 593.4 1225.5 593 1223.8 590.7 1221 589.2 1219.3 588 1217.3 588 1216.6 588 1215.9 587.1 1214.5 586 1213.5 584.9 1212.5 584 1211.2 584 1210.7 584 1210.1 582.5 1207.4 580.6 1204.6 578.7 1201.8 575.7 1195.2 573.9 1190 572.1 1184.8 570.1 1179.8 569.4 1179 568.7 1178.2 567.7 1176.3 567.1 1174.8 566.2 1172.4 566.4 1171.7 568.9 1169.3 570.4 1167.8 572.1 1165.6 572.7 1164.6 573.7 1162.7 573.9 1162.7 576.4 1164.3 577.9 1165.3 579 1167 579 1168.3 579 1172 581.7 1174.8 586 1175.5 588.2 1175.9 590.2 1176.6 590.6 1177.1 591.2 1178.1 601.6 1178.3 607.3 1177.3 609.6 1177 612.3 1175.5 614.1 1173.8 615.7 1172.1 618.2 1170.5 619.7 1170.1 L622.5 1169.4 622.1 1137.7 C621.9 1119.1 622.2 1106 622.7 1106 624.7 1106 628.2 1110.4 631.6 1117.6 634.9 1124.3 635.2 1125.5 634.2 1128.3 633.7 1130.1 632.9 1133.4 632.5 1135.7 631.9 1139.7 632 1140.1 634.5 1141 637.9 1142.3 645.5 1142.3 650.1 1141 652.5 1140.3 655.1 1138.4 657.5 1135.5 659.5 1133 661.8 1131 662.5 1131 664.4 1131 666.6 1127.3 667.4 1122.9 668.3 1117.7 671.4 1115.4 678.4 1114.6 684.9 1113.9 687 1114.8 687 1118.6 687 1120.6 687.5 1121 689.9 1121 691.6 1121 693.2 1121.4 693.5 1122 694.2 1123.1 706.1 1123.4 709.7 1122.4 711.2 1122 712.9 1119.7 714.9 1115.5 717.9 1109.1 721.9 1105 725 1105 725.9 1105 727.4 1104.2 728.2 1103.2 730 1101.1 734 1092.8 734 1091.2 734 1089.5 741.5 1081.4 746.6 1077.6 748.8 1075.9 753 1072.6 755.8 1070.4 758.7 1068 762.5 1066 764.7 1065.5 766.8 1065.2 769.4 1064 770.5 1063 772.3 1061.4 774.6 1060.4 777.5 1060.1 778.1 1060.1 781.7 1060.7 785.5 1061.6 Z M812.2 1126.8 C815.8 1128.4 815.9 1128.6 815.2 1132.5 814.8 1134.7 814.5 1137.9 814.6 1139.7 814.6 1142 814.1 1143.1 812.4 1143.9 810.8 1144.6 810 1145.9 809.8 1148.2 809.5 1151.1 809.1 1151.5 806.5 1151.8 803.1 1152.1 802.5 1151.7 798.7 1147.2 794.3 1141.8 795.4 1136.1 802.4 1127.8 805.6 1124 806 1124 812.2 1126.8 Z" fill="#ffe599" fill-opacity="1" stroke="none"/>
  <path id="Path-1" d="M753.5 1177.1 C745 1178.9 741.5 1180.6 739.8 1184 738.9 1185.9 736.8 1187.9 735.1 1188.6 730.9 1190.4 730.4 1193.2 733.4 1197.7 734.8 1199.8 736 1202 736 1202.7 736 1204.7 739.1 1205.6 746 1205.8 749.6 1205.9 753.9 1206.4 755.5 1206.8 757.3 1207.3 759.4 1207.3 760.8 1206.7 762.7 1205.8 763 1204.9 763 1200.4 763 1195.8 763.4 1194.7 766.2 1192 769.3 1188.8 769.3 1188.8 767.6 1185.7 765 1180.9 761.7 1177.3 759.5 1176.7 758.4 1176.5 755.7 1176.6 753.5 1177.1 Z M764.8 1183.3 L768.3 1188.1 765.4 1191.1 C763.1 1193.5 762.4 1195.3 762 1199.8 L761.5 1205.5 757 1205.3 C754.5 1205.2 749.4 1205 745.6 1204.8 L738.6 1204.5 735.5 1199.1 C731.8 1192.8 731.9 1190.8 736.4 1189.2 738.7 1188.4 740 1187 740.9 1184.5 741.7 1182.2 742.8 1181 743.9 1181 745 1181 747.3 1180.3 749.1 1179.5 751 1178.7 754.5 1178.1 756.9 1178.3 761 1178.5 761.7 1178.9 764.8 1183.3 Z" fill="#ffe599" fill-opacity="1" stroke="none"/>
  <path id="Path-2" d="M1120.3 890.4 C1118.9 893.5 1118.1 894 1115.3 894 1112.4 894 1112.1 894.2 1112.9 895.7 1115.4 900.6 1113.3 911 1109.8 911 1108.7 911 1107 912.5 1105.9 914.4 L1103.9 917.9 1100.7 915.9 1097.5 914 1097 917.3 C1096.7 919 1096.9 921.6 1097.4 922.9 1098.3 924.9 1098 925.6 1095.8 927.4 1094.4 928.5 1092.3 931.7 1091.1 934.4 1089.1 939.1 1088.9 939.2 1087.5 937.4 1086 935.6 1085.9 935.6 1083 939 1079.7 942.8 1079.5 943.6 1081 947.6 1081.8 949.7 1081.8 950.5 1080.8 951.2 1078.6 952.6 1078 952.1 1078 949 1078 947.3 1077.8 946 1077.5 946 1077.2 946 1075.2 947.2 1073 948.6 1069.1 951.2 1067.3 954.1 1068.5 956 1069.4 957.4 1068 957.2 1065 955.5 1061.4 953.5 1058.4 953.7 1056.1 956.1 1054.6 957.7 1053.5 958 1051.1 957.5 1048.8 957 1047.4 957.4 1045 959.2 1043.3 960.5 1040.8 961.4 1039.6 961.2 1036.7 960.8 1034.5 963.4 1034.8 967 1035 969.1 1033.6 971.8 1029.6 977.1 L1024.1 984.4 1024.5 993.8 C1024.8 1000.2 1025.4 1004 1026.5 1005.7 1027.4 1007 1028.8 1011.2 1029.6 1015 1030.8 1020.8 1030.8 1022.4 1029.6 1025.7 1027.7 1031.2 1023.1 1040.1 1021 1042.5 1020.1 1043.6 1019 1045.7 1018.6 1047.2 1018.2 1048.9 1016.3 1050.8 1013 1052.9 1009.1 1055.3 1008 1056.5 1008 1058.6 1008 1060 1007 1062.6 1005.8 1064.3 1002.7 1068.6 1002.7 1078.8 1005.7 1084.5 1009.3 1091.6 1009.7 1094.1 1007.8 1098 1005.4 1102.5 1005.5 1108.6 1008 1113.3 1009.1 1115.3 1010 1117.6 1010 1118.3 1010 1123 1023.7 1133 1030.1 1133 1031.9 1133 1034.7 1132.1 1036.5 1131 1038.3 1129.9 1041.7 1128.6 1044.1 1128 1046.5 1127.5 1049.9 1126.8 1051.5 1126.4 1055.5 1125.5 1061.7 1119.5 1063.1 1115.1 1063.7 1113.1 1066.2 1107.8 1068.6 1103.3 1071 1098.9 1073 1094.5 1073 1093.6 1073 1092.7 1074.5 1089 1076.4 1085.3 1078.3 1081.5 1080.4 1076.5 1081 1074 1081.7 1071.5 1083.1 1068.1 1084.1 1066.3 1086.3 1062.8 1094 1044.3 1094 1042.6 1094 1042 1096.1 1038.1 1098.5 1034 1101 1029.9 1103 1025.7 1103 1024.6 1103 1022.6 1104.1 1020 1110.8 1006.1 1113.8 1000 1114.4 997.6 1114.4 991.8 1114.5 985.5 1114.8 984.5 1117.6 981.1 1121.3 976.8 1125 970.2 1125 968 1125 967.2 1124.4 965.3 1123.6 963.8 1122.8 962.3 1122.3 960.3 1122.5 959.3 1123.8 953 1124.2 952 1125.4 952 1126.2 952 1127.4 953.6 1128 955.5 1128.6 957.4 1129.5 959.2 1130 959.5 1130.4 959.8 1132.3 957.7 1134 954.8 1137.1 949.9 1137.2 949.2 1136.6 943.1 1136.2 939.1 1135.2 935.8 1134.2 934.7 1132.8 933.2 1132.5 930.7 1132.4 922.1 1132.3 906.7 1130.4 899.1 1124.5 890.5 L1122.1 886.8 Z M1124.8 893.3 C1128.9 897.9 1131.4 909.5 1131.5 923.3 1131.5 932.4 1131.8 934.3 1133.2 935.1 1134.3 935.7 1135.1 938 1135.5 942.5 1136.2 948.3 1136 949.4 1133.6 953.5 1130.9 958 1129 958.6 1129 955 1129 952.7 1125 949.6 1123.7 950.9 1121.7 952.9 1121 960.8 1122.6 964.5 1124 967.9 1124 968.5 1121.9 972.6 1120.8 975.1 1118.3 978.8 1116.5 981 1113.5 984.6 1113.2 985.5 1113.2 991.7 1113.3 997.9 1112.8 999.5 1107.6 1010.2 1104.5 1016.6 1102 1023 1102 1024.3 1102 1025.6 1100 1029.8 1097.5 1033.6 1095.1 1037.4 1093 1041.2 1093 1042 1093 1044 1086.8 1058.8 1083 1066.1 1081.3 1069.2 1080 1072.6 1080 1073.7 1080 1074.7 1078.2 1079.1 1076 1083.5 1073.8 1087.9 1072 1092.3 1072 1093.4 1072 1094.5 1070.3 1098.3 1068.1 1101.9 1066 1105.5 1063.5 1110.7 1062.6 1113.4 1060.7 1118.9 1054.9 1124.9 1051.3 1125 1050.1 1125 1048.8 1125.4 1048.5 1126 1048.2 1126.5 1046.4 1127 1044.7 1127 1042.9 1127 1039.4 1128.1 1036.8 1129.5 1030.6 1132.8 1028.9 1132.7 1021.6 1128.6 1015.4 1125.1 1011 1120.5 1011 1117.4 1011 1116.4 1010.3 1114.9 1009.5 1114 1006.8 1111.1 1006.5 1103 1008.7 1098.5 1010.5 1095.1 1010.6 1094.2 1009.5 1090.6 1008.8 1088.3 1007.5 1085.1 1006.6 1083.5 1004.2 1079 1004.4 1068 1007 1064.7 1008.1 1063.3 1009 1061.3 1009 1060.2 1009 1057.4 1010 1055 1011.2 1055 1013.4 1055 1018.3 1050.5 1019.7 1047.1 1020.5 1045.1 1022 1042.6 1022.9 1041.5 1023.8 1040.4 1026.3 1035.8 1028.4 1031.2 L1032.3 1022.9 1030.6 1014.8 C1029.7 1010.3 1028.3 1005.9 1027.5 1005 1025.6 1002.9 1024.7 986.6 1026.3 983.5 1026.8 982.4 1029 979.4 1031.1 976.9 1033.2 974.4 1035.1 971.3 1035.4 969.9 1037.1 961.6 1037 961.8 1039.4 962.4 1040.9 962.8 1042.8 962.1 1045 960.5 1047.7 958.5 1049.1 958.1 1051.8 958.6 1054.5 959.1 1055.4 958.8 1056.6 957.1 1058.3 954.7 1060.4 954.5 1064 956.3 1066.9 957.8 1071 959 1071 958.4 1071 958.2 1070.4 957.1 1069.8 955.9 1068.6 954.1 1068.9 953.5 1071.8 950.9 1075.9 947.2 1076.6 947.3 1077.4 951.1 1078 954.1 1078.1 954.2 1080.2 952.7 1082.5 951.2 1082.9 949.2 1081.6 945.3 1080.6 942.3 1085.1 937 1087.2 938.8 1089.1 940.4 1091.7 937.7 1093.1 932.6 1093.6 930.6 1094.7 929 1095.5 929 1097.8 929 1098.8 925.8 1098.3 920.7 1097.7 915.7 1098.3 915.1 1101.4 917.5 1104.1 919.5 1104.3 919.5 1106.4 915.5 1107.5 913.5 1109.1 912 1110.1 912 1112.6 912 1116.4 904.6 1115.7 901.1 1115.4 899.7 1114.8 897.7 1114.5 896.8 1114 895.5 1114.5 895.1 1116.7 894.8 1118.6 894.6 1119.9 893.6 1120.9 891.5 1121.9 889.4 1122.5 889 1122.8 890 1123.1 890.8 1124 892.3 1124.8 893.3 Z" fill="#ffe599" fill-opacity="1" stroke="none"/>
 </g>
</svg>
