<?xml version="1.0" encoding="UTF-8"?>
<svg width="500px" height="500px" viewBox="0 0 500 500" xmlns="http://www.w3.org/2000/svg" xmlns:xlink="http://www.w3.org/1999/xlink" version="1.1">
 <!-- Generated by Pixelmator Pro 2.0.6 -->
 <g id="freepik--background-simple--inject-37"/>
 <g id="freepik--Floor--inject-37">
  <path id="Path" d="M469.81 475.86 C469.81 476 371.39 476.12 250.01 476.12 128.63 476.12 30.19 476 30.19 475.86 30.19 475.72 128.59 475.6 250.01 475.6 371.43 475.6 469.81 475.71 469.81 475.86 Z" fill="#263238" fill-opacity="1" stroke="none"/>
 </g>
 <g id="freepik--Device--inject-37">
  <path id="Path-1" d="M317.52 368.58 L216.52 368.51 C204.38 368.51 194.52 358.16 194.52 345.4 L194.52 79.4 C194.52 66.64 204.38 56.29 216.52 56.3 L317.47 56.36 C329.62 56.36 339.47 66.71 339.47 79.47 L339.42 345.47 C339.52 358.24 329.67 368.58 317.52 368.58 Z" fill="#263238" fill-opacity="1" stroke="none"/>
  <path id="Path-2" d="M317.49 65.78 L297.91 65.78 C295.159 65.915 293.036 68.249 293.16 71 L293.16 74.73 C293.284 77.485 291.155 79.82 288.4 79.95 L250.25 79.95 C247.495 79.815 245.37 77.475 245.5 74.72 L245.5 71 C245.624 68.249 243.501 65.915 240.75 65.78 L216.75 65.78 C208.24 65.78 201.34 73.03 201.34 81.97 L201.34 341.59 C201.34 350.52 208.23 357.77 216.73 357.78 L317.49 357.84 C326 357.84 332.9 350.6 332.9 341.66 L332.88 82 C332.88 73 326 65.78 317.49 65.78 Z" fill="#f2f2f2" fill-opacity="1" stroke="none"/>
  <path id="Path-3" d="M228.8 333.27 L228.8 339.62 C228.798 339.873 228.66 340.106 228.438 340.229 228.216 340.351 227.945 340.344 227.73 340.21 L222.73 337.03 C222.529 336.901 222.407 336.679 222.407 336.44 222.407 336.201 222.529 335.979 222.73 335.85 L227.73 332.67 C227.947 332.535 228.22 332.529 228.442 332.654 228.665 332.779 228.802 333.015 228.8 333.27 Z" fill="#e0e0e0" fill-opacity="1" stroke="none"/>
  <path id="Path-4" d="M269.86 336.38 C269.854 338.798 267.891 340.754 265.473 340.75 263.056 340.746 261.098 338.784 261.1 336.367 261.102 333.949 263.062 331.99 265.48 331.99 267.901 331.996 269.86 333.959 269.86 336.38 Z" fill="#e0e0e0" fill-opacity="1" stroke="none"/>
  <path id="Path-5" d="M309.4 336.61 L309.4 338.79 C309.4 339.823 308.563 340.66 307.53 340.66 L303.19 340.66 C302.157 340.66 301.32 339.823 301.32 338.79 L301.32 334.43 C301.32 333.397 302.157 332.56 303.19 332.56 L307.53 332.56 C308.563 332.56 309.4 333.397 309.4 334.43 Z" fill="#e0e0e0" fill-opacity="1" stroke="none"/>
  <path id="Path-6" d="M279.129 132.132 C305.832 138.582 322.25 165.458 315.8 192.161 309.35 218.863 282.474 235.281 255.771 228.831 229.069 222.381 212.651 195.505 219.101 168.803 225.551 142.1 252.427 125.682 279.129 132.132 Z" fill="#f5f5f5" fill-opacity="1" stroke="none"/>
  <path id="Path-7" d="M269.67 202.38 C269.666 204.043 268.66 205.54 267.121 206.172 265.583 206.804 263.815 206.446 262.643 205.266 261.471 204.085 261.127 202.315 261.77 200.781 262.413 199.247 263.917 198.252 265.58 198.26 267.844 198.276 269.67 200.116 269.67 202.38 Z" fill="#455a64" fill-opacity="1" stroke="none"/>
  <path id="Path-8" d="M257.35 197.1 C259.469 194.819 262.43 193.505 265.543 193.463 268.656 193.421 271.651 194.656 273.83 196.88 275.93 199 279.21 195.75 277.11 193.63 274.06 190.557 269.9 188.844 265.57 188.88 261.24 188.915 257.108 190.697 254.11 193.82 252.06 195.97 255.31 199.26 257.37 197.1 Z" fill="#455a64" fill-opacity="1" stroke="none"/>
  <path id="Path-9" d="M243.39 178 C249.64 172.6 257.1 169.2 265.45 169.18 273.786 169.061 281.852 172.13 288 177.76 290.16 179.76 293.45 176.55 291.28 174.51 284.272 168.019 275.053 164.443 265.5 164.51 255.89 164.51 247.35 168.51 240.16 174.68 237.91 176.63 241.16 179.9 243.42 177.96 Z" fill="#455a64" fill-opacity="1" stroke="none"/>
  <path id="Path-10" d="M248.9 188.57 C253.113 183.868 259.1 181.143 265.412 181.054 271.724 180.965 277.786 183.519 282.13 188.1 284.21 190.23 287.49 186.98 285.41 184.84 280.199 179.394 272.964 176.352 265.427 176.437 257.891 176.522 250.726 179.728 245.64 185.29 243.64 187.47 246.87 190.76 248.9 188.57 Z" fill="#455a64" fill-opacity="1" stroke="none"/>
  <path id="Path-11" d="M294.172 154.674 C301.029 155.887 305.606 162.43 304.393 169.288 303.18 176.145 296.637 180.722 289.779 179.509 282.921 178.296 278.345 171.753 279.558 164.895 280.771 158.037 287.314 153.461 294.172 154.674 Z" fill="#37474f" fill-opacity="1" stroke="none"/>
  <path id="Path-12" d="M295.384 161.776 L297.173 163.565 289.161 171.577 287.372 169.788 Z" fill="#ffffff" fill-opacity="1" stroke="none"/>
  <path id="Path-13" d="M287.376 163.556 L289.165 161.767 297.177 169.779 295.388 171.568 Z" fill="#ffffff" fill-opacity="1" stroke="none"/>
  <path id="Path-14" d="M264.11 93.55 C264.736 93.174 265.408 92.881 266.11 92.68 L266.52 90.68 269.85 90.62 270.33 92.62 C271.029 92.797 271.702 93.066 272.33 93.42 L274 92.3 276.4 94.62 275.35 96.34 C275.726 96.966 276.019 97.638 276.22 98.34 L278.22 98.75 278.28 102.09 276.28 102.56 C276.106 103.259 275.841 103.931 275.49 104.56 L276.59 106.24 274.28 108.64 272.56 107.64 C271.934 108.012 271.261 108.301 270.56 108.5 L270.15 110.5 266.82 110.56 266.34 108.56 C265.642 108.381 264.969 108.112 264.34 107.76 L262.65 108.86 260.25 106.55 261.3 104.83 C260.923 104.205 260.63 103.532 260.43 102.83 L258.43 102.42 258.37 99.09 260.37 98.61 C260.546 97.912 260.811 97.24 261.16 96.61 L260.06 94.92 262.38 92.53 264.1 93.53 Z M265.88 98 C264.874 99.042 264.594 100.587 265.172 101.915 265.75 103.243 267.071 104.092 268.519 104.067 269.967 104.041 271.257 103.145 271.787 101.797 272.317 100.45 271.982 98.915 270.94 97.91 269.518 96.538 267.253 96.579 265.88 98 Z" fill="#e0e0e0" fill-opacity="1" stroke="none"/>
  <path id="Path-15" d="M221.82 101 C220.82 101 219.43 101 218.1 101 216.51 101 214.92 101 213.81 101 213.677 101 213.55 100.947 213.456 100.854 213.363 100.76 213.31 100.633 213.31 100.5 213.307 100.368 213.358 100.241 213.45 100.147 213.542 100.053 213.668 100 213.8 100 L218.12 100 C218.12 100 221.3 100.06 222.41 100 222.542 99.997 222.669 100.048 222.763 100.14 222.857 100.232 222.91 100.358 222.91 100.49 222.913 100.623 222.863 100.751 222.771 100.846 222.679 100.942 222.553 100.997 222.42 101 Z" fill="#263238" fill-opacity="1" stroke="none"/>
  <path id="Path-16" d="M216.85 104.36 C216.708 104.357 216.574 104.296 216.48 104.19 L213.48 100.76 C213.311 100.565 213.311 100.275 213.48 100.08 L216.48 96.96 C216.599 96.815 216.79 96.75 216.973 96.79 217.156 96.83 217.301 96.969 217.349 97.151 217.397 97.332 217.339 97.525 217.2 97.65 L214.55 100.44 217.29 103.53 C217.42 103.678 217.451 103.889 217.369 104.068 217.287 104.247 217.107 104.362 216.91 104.36 Z" fill="#263238" fill-opacity="1" stroke="none"/>
  <path id="Path-17" d="M321.48 96.54 C321.48 97.396 320.786 98.09 319.93 98.09 319.074 98.09 318.38 97.396 318.38 96.54 318.38 95.684 319.074 94.99 319.93 94.99 320.786 94.99 321.48 95.684 321.48 96.54 Z" fill="#263238" fill-opacity="1" stroke="none"/>
  <path id="Path-18" d="M321.48 101.44 C321.484 102.073 321.105 102.645 320.522 102.889 319.938 103.133 319.264 103 318.817 102.553 318.37 102.106 318.237 101.432 318.481 100.848 318.725 100.265 319.297 99.886 319.93 99.89 320.786 99.89 321.48 100.584 321.48 101.44 Z" fill="#263238" fill-opacity="1" stroke="none"/>
  <path id="Path-19" d="M321.48 106.34 C321.48 107.196 320.786 107.89 319.93 107.89 319.074 107.89 318.38 107.196 318.38 106.34 318.38 105.484 319.074 104.79 319.93 104.79 320.786 104.79 321.48 105.484 321.48 106.34 Z" fill="#263238" fill-opacity="1" stroke="none"/>
  <path id="Path-20" d="M233.76 248.89 C231.403 249.147 229.03 249.234 226.66 249.15 224.293 249.234 221.924 249.147 219.57 248.89 221.924 248.633 224.293 248.546 226.66 248.63 229.03 248.546 231.403 248.633 233.76 248.89 Z" fill="#263238" fill-opacity="1" stroke="none"/>
  <path id="Path-21" d="M259.23 265.49 C259.23 265.63 250.51 265.75 239.76 265.75 229.01 265.75 220.29 265.63 220.29 265.49 220.29 265.35 229 265.23 239.76 265.23 250.52 265.23 259.23 265.35 259.23 265.49 Z" fill="#263238" fill-opacity="1" stroke="none"/>
  <path id="Path-22" d="M259.23 282 C259.23 282.14 250.51 282.26 239.76 282.26 229.01 282.26 220.29 282.14 220.29 282 220.29 281.86 229 281.74 239.76 281.74 250.52 281.74 259.23 281.84 259.23 282 Z" fill="#263238" fill-opacity="1" stroke="none"/>
  <path id="Path-23" d="M316.93 265.485 L316.93 265.485 C316.93 268.923 314.141 271.71 310.7 271.71 L296.46 271.71 C293.019 271.71 290.23 268.923 290.23 265.485 L290.23 265.485 C290.23 262.047 293.019 259.26 296.46 259.26 L310.7 259.26 C314.141 259.26 316.93 262.047 316.93 265.485 Z" fill="#ebebeb" fill-opacity="1" stroke="none"/>
  <path id="Path-24" d="M301.6 265.49 C301.6 268.373 299.263 270.71 296.38 270.71 293.497 270.71 291.16 268.373 291.16 265.49 291.16 262.607 293.497 260.27 296.38 260.27 297.764 260.27 299.092 260.82 300.071 261.799 301.05 262.778 301.6 264.106 301.6 265.49 Z" fill="#e0e0e0" fill-opacity="1" stroke="none"/>
  <path id="Path-25" d="M310.71 288.21 L296.46 288.21 C294.808 288.21 293.223 287.554 292.055 286.385 290.886 285.217 290.23 283.632 290.23 281.98 290.23 280.328 290.886 278.743 292.055 277.575 293.223 276.406 294.808 275.75 296.46 275.75 L310.71 275.75 C312.362 275.75 313.947 276.406 315.115 277.575 316.284 278.743 316.94 280.328 316.94 281.98 316.94 283.632 316.284 285.217 315.115 286.385 313.947 287.554 312.362 288.21 310.71 288.21 Z" fill="#ebebeb" fill-opacity="1" stroke="none"/>
  <path id="Path-26" d="M301.6 281.98 C301.6 284.863 299.263 287.2 296.38 287.2 293.497 287.2 291.16 284.863 291.16 281.98 291.16 279.097 293.497 276.76 296.38 276.76 299.263 276.76 301.6 279.097 301.6 281.98 Z" fill="#e0e0e0" fill-opacity="1" stroke="none"/>
  <path id="Path-27" d="M259.23 298.58 C259.23 298.73 250.51 298.84 239.76 298.84 229.01 298.84 220.29 298.73 220.29 298.58 220.29 298.43 229 298.32 239.76 298.32 250.52 298.32 259.23 298.44 259.23 298.58 Z" fill="#263238" fill-opacity="1" stroke="none"/>
  <path id="Path-28" d="M310.71 306.65 L296.46 306.65 C294.809 306.653 293.224 305.999 292.055 304.832 290.887 303.665 290.23 302.081 290.23 300.43 290.23 298.778 290.886 297.193 292.055 296.025 293.223 294.856 294.808 294.2 296.46 294.2 L310.71 294.2 C312.362 294.2 313.947 294.856 315.115 296.025 316.284 297.193 316.94 298.778 316.94 300.43 316.94 302.081 316.283 303.665 315.115 304.832 313.946 305.998 312.361 306.653 310.71 306.65 Z" fill="#ebebeb" fill-opacity="1" stroke="none"/>
  <path id="Path-29" d="M301.6 300.43 C301.6 303.313 299.263 305.65 296.38 305.65 293.497 305.65 291.16 303.313 291.16 300.43 291.16 297.547 293.497 295.21 296.38 295.21 299.263 295.21 301.6 297.547 301.6 300.43 Z" fill="#e0e0e0" fill-opacity="1" stroke="none"/>
 </g>
 <g id="freepik--Sun--inject-37"/>
 <g id="freepik--Character--inject-37">
  <path id="Path-30" d="M110.07 420.8 L81.94 443.87 110.47 479 C113.66 476.07 105.64 452.42 105.64 452.42 L124.27 438.42 Z" fill="#455a64" fill-opacity="1" stroke="none"/>
  <g id="group">
   <path id="Path-31" d="M98.34 440.33 C97.561 439.804 96.511 439.946 95.9 440.66 95.341 441.424 95.477 442.491 96.21 443.09 97.045 443.627 98.148 443.469 98.8 442.72 99.298 441.861 99.029 440.762 98.19 440.23" fill="#ffffff" fill-opacity="1" stroke="none"/>
  </g>
  <g id="group-1">
   <path id="Path-32" d="M82.05 443.77 L84.88 441.43 111 476.27 C111 476.27 111.58 478.39 110.33 479.1 Z" fill="#ffffff" fill-opacity="1" stroke="none"/>
  </g>
  <path id="Path-33" d="M106.28 452.85 C106.11 452.99 105.28 452.19 104.09 451.8 102.9 451.41 101.77 451.54 101.71 451.32 101.65 451.1 102.85 450.56 104.34 451.07 105.83 451.58 106.47 452.76 106.28 452.85 Z" fill="#263238" fill-opacity="1" stroke="none"/>
  <path id="Path-34" d="M107.75 457.78 C107.62 457.95 106.75 457.45 105.52 457.45 104.29 457.45 103.42 457.91 103.29 457.74 103.16 457.57 104.04 456.66 105.53 456.68 107.02 456.7 107.91 457.64 107.75 457.78 Z" fill="#263238" fill-opacity="1" stroke="none"/>
  <path id="Path-35" d="M105 463.45 C104.83 463.33 105.5 462.39 106.8 462.07 108.1 461.75 109.12 462.25 109.03 462.43 108.94 462.61 108.03 462.53 107.03 462.81 106.03 463.09 105.19 463.61 105 463.45 Z" fill="#263238" fill-opacity="1" stroke="none"/>
  <path id="Path-36" d="M110.17 449.18 C109.96 449.24 109.56 448.26 108.7 447.34 107.84 446.42 106.93 445.92 107 445.71 107.07 445.5 108.28 445.71 109.27 446.82 110.26 447.93 110.38 449.16 110.17 449.18 Z" fill="#263238" fill-opacity="1" stroke="none"/>
  <path id="Path-37" d="M113.66 445 C113.59 445.06 112.94 444.47 112.24 443.23 111.84 442.503 111.528 441.731 111.31 440.93 111.182 440.457 111.089 439.976 111.03 439.49 110.984 439.202 110.984 438.908 111.03 438.62 111.104 438.191 111.448 437.859 111.88 437.8 112.263 437.774 112.636 437.934 112.88 438.23 113.063 438.455 113.214 438.704 113.33 438.97 113.542 439.42 113.713 439.889 113.84 440.37 114.056 441.178 114.14 442.015 114.09 442.85 114.13 443.627 113.923 444.397 113.5 445.05 113.39 445.05 113.6 444.19 113.5 442.85 113.469 442.073 113.338 441.303 113.11 440.56 112.973 440.127 112.802 439.706 112.6 439.3 112.4 438.85 112.14 438.53 111.9 438.57 111.66 438.61 111.78 438.57 111.73 438.77 111.701 438.979 111.701 439.191 111.73 439.4 111.78 439.857 111.853 440.311 111.95 440.76 112.124 441.524 112.368 442.271 112.68 442.99 113.058 443.634 113.385 444.306 113.66 445 Z" fill="#263238" fill-opacity="1" stroke="none"/>
  <path id="Path-38" d="M113.24 444.94 C113.16 444.94 113.5 444.06 114.56 443.09 115.188 442.534 115.904 442.088 116.68 441.77 117.142 441.584 117.621 441.443 118.11 441.35 118.739 441.162 119.42 441.313 119.91 441.75 120.164 442.077 120.207 442.521 120.02 442.89 119.885 443.145 119.717 443.38 119.52 443.59 119.181 443.983 118.783 444.32 118.34 444.59 117.603 445.03 116.768 445.281 115.91 445.32 114.44 445.37 113.65 444.82 113.7 444.76 114.419 444.798 115.14 444.798 115.86 444.76 116.619 444.663 117.349 444.404 118 444 118.376 443.768 118.714 443.477 119 443.14 119.33 442.78 119.52 442.4 119.37 442.29 119.048 442.087 118.655 442.032 118.29 442.14 117.845 442.219 117.407 442.333 116.98 442.48 116.266 442.749 115.593 443.116 114.98 443.57 113.83 444.31 113.34 445 113.24 444.94 Z" fill="#263238" fill-opacity="1" stroke="none"/>
  <path id="Path-39" d="M97.33 439.64 L97.67 476 142.93 475.81 C142.65 471.49 119.19 462.9 119.19 462.9 L119.93 439.59 Z" fill="#455a64" fill-opacity="1" stroke="none"/>
  <g id="group-2">
   <path id="Path-40" d="M105.19 461 C104.288 461.279 103.74 462.193 103.92 463.12 104.17 464.031 105.087 464.588 106.01 464.39 106.946 464.074 107.51 463.123 107.34 462.15 106.984 461.223 105.961 460.742 105.02 461.06" fill="#ffffff" fill-opacity="1" stroke="none"/>
  </g>
  <g id="group-3">
   <path id="Path-41" d="M97.66 475.88 L97.66 472.2 141.19 473.68 C141.19 473.68 143.19 474.56 142.97 475.98 Z" fill="#ffffff" fill-opacity="1" stroke="none"/>
  </g>
  <path id="Path-42" d="M119.93 462.69 C119.93 462.91 118.82 463.02 117.73 463.69 116.64 464.36 116.07 465.34 115.87 465.25 115.67 465.16 115.99 463.89 117.32 463.04 118.65 462.19 120 462.49 119.93 462.69 Z" fill="#263238" fill-opacity="1" stroke="none"/>
  <path id="Path-43" d="M124.68 464.63 C124.68 464.85 123.78 465.23 123.03 466.17 122.28 467.11 122.03 468.09 121.85 468.09 121.67 468.09 121.49 466.83 122.44 465.68 123.39 464.53 124.68 464.42 124.68 464.63 Z" fill="#263238" fill-opacity="1" stroke="none"/>
  <path id="Path-44" d="M127.4 470.31 C127.2 470.31 126.89 469.25 127.4 468.04 127.91 466.83 129 466.34 129.09 466.52 129.18 466.7 128.55 467.36 128.09 468.36 127.63 469.36 127.62 470.28 127.4 470.31 Z" fill="#263238" fill-opacity="1" stroke="none"/>
  <path id="Path-45" d="M119.51 457.36 C119.41 457.56 118.4 457.26 117.15 457.36 115.9 457.46 114.93 457.85 114.81 457.66 114.69 457.47 115.63 456.66 117.1 456.59 118.57 456.52 119.61 457.18 119.51 457.36 Z" fill="#263238" fill-opacity="1" stroke="none"/>
  <path id="Path-46" d="M118.4 452 C117.66 452.203 116.88 452.203 116.14 452 114.836 451.769 113.588 451.294 112.46 450.6 112.205 450.458 111.973 450.279 111.77 450.07 111.482 449.741 111.442 449.263 111.67 448.89 111.898 448.565 112.273 448.374 112.67 448.38 112.958 448.379 113.244 448.419 113.52 448.5 114.829 448.802 116.037 449.435 117.03 450.34 118.08 451.34 118.45 452.13 118.37 452.17 118.29 452.21 117.76 451.56 116.68 450.76 116.067 450.296 115.394 449.916 114.68 449.63 114.255 449.461 113.817 449.327 113.37 449.23 112.89 449.11 112.49 449.11 112.37 449.32 112.25 449.53 112.37 449.43 112.43 449.57 112.575 449.726 112.744 449.857 112.93 449.96 113.318 450.207 113.719 450.434 114.13 450.64 114.836 450.985 115.572 451.263 116.33 451.47 117.031 451.601 117.722 451.778 118.4 452 Z" fill="#263238" fill-opacity="1" stroke="none"/>
  <path id="Path-47" d="M118.12 452.31 C118.04 452.31 117.6 451.56 117.51 450.12 117.468 449.282 117.569 448.443 117.81 447.64 117.954 447.162 118.145 446.7 118.38 446.26 118.625 445.65 119.171 445.214 119.82 445.11 120.25 445.097 120.646 445.346 120.82 445.74 120.935 446.005 121.015 446.284 121.06 446.57 121.259 447.942 120.899 449.336 120.06 450.44 119.18 451.62 118.26 451.89 118.24 451.81 118.22 451.73 118.93 451.27 119.6 450.14 119.993 449.492 120.236 448.764 120.31 448.01 120.375 447.576 120.375 447.134 120.31 446.7 120.23 446.22 120.05 445.83 119.87 445.88 119.69 445.93 119.26 446.24 119.08 446.63 118.859 447.023 118.671 447.435 118.52 447.86 118.271 448.589 118.126 449.35 118.09 450.12 118 451.45 118.24 452.28 118.12 452.31 Z" fill="#263238" fill-opacity="1" stroke="none"/>
  <path id="Path-48" d="M101.21 228.91 C101.21 228.91 94.86 235.7 91.75 242.21 88.64 248.72 86.64 264.21 86.64 264.21 86.64 264.21 77.88 283.72 79.21 293.7 80.54 303.68 89.46 372 89.46 372 89.46 372 89.02 438.36 95.34 450.19 L96.75 456.58 122.27 452 122.11 448.17 128.11 318.05 143.47 229.46 Z" fill="#263238" fill-opacity="1" stroke="none"/>
  <path id="Path-49" d="M157.52 248.26 C157.52 248.26 172.77 332.26 174.12 346.83 175.47 361.4 123.53 438.28 123.53 438.28 L99.79 413.55 133.87 350.2 122.79 286.35 138.2 229.94 154.38 230.51 Z" fill="#263238" fill-opacity="1" stroke="none"/>
  <path id="Path-50" d="M91.38 429.52 C91.406 430.143 91.466 430.764 91.56 431.38 91.72 432.6 92.02 434.38 92.44 436.7 93.29 441.32 94.67 448.02 96.52 456.39 L96.52 456.57 96.7 456.57 122.23 452.09 122.42 452.09 122.42 451.89 C123.13 434.38 123.98 413.45 124.89 391 125.83 366.85 126.7 344.45 127.42 326.08 129.33 311.32 130.91 299.08 132.02 290.57 132.55 286.33 132.97 283 133.26 280.7 133.39 279.58 133.5 278.7 133.57 278.11 133.64 277.52 133.65 277.22 133.65 277.22 133.65 277.22 133.59 277.51 133.5 278.1 133.41 278.69 133.28 279.57 133.12 280.68 132.8 282.97 132.34 286.3 131.75 290.53 130.63 299 129 311.23 127 326 126.26 344.37 125.35 366.77 124.37 390.92 123.49 413.37 122.67 434.3 121.99 451.81 L122.19 451.58 96.69 456.17 96.9 456.31 C95 447.95 93.57 441.26 92.66 436.66 92.21 434.35 91.88 432.57 91.66 431.36 91.55 430.76 91.49 430.3 91.45 429.99 91.435 429.832 91.411 429.675 91.38 429.52 Z" fill="#455a64" fill-opacity="1" stroke="none"/>
  <path id="Path-51" d="M61.75 194.15 C61.75 194.15 77.55 160.09 81.28 158.28 85.01 156.47 95.73 155.86 97.18 157.9 L68.86 198.68 Z" fill="#455a64" fill-opacity="1" stroke="none"/>
  <path id="Path-52" d="M62.57 189.55 C61.872 189.164 61.054 189.056 60.28 189.25 55.37 190.47 37.43 195.25 35.43 200.38 33.11 206.29 47.3 283.09 49.13 285.17 50.96 287.25 79.18 283.76 80.05 280.48 80.92 277.2 70.87 194.42 70.87 194.42 Z" fill="#455a64" fill-opacity="1" stroke="none"/>
  <path id="Path-53" d="M40.3 241.86 C40.3 241.86 38.7 241.96 37.11 245.49 35.52 249.02 38.32 277.68 40.43 280.61 42.54 283.54 48.7 284.16 48.7 284.16 Z" fill="#455a64" fill-opacity="1" stroke="none"/>
  <path id="Path-54" d="M71.75 282.05 C71.693 281.995 71.646 281.931 71.61 281.86 L71.23 281.27 C70.9 280.75 70.46 279.96 69.94 278.91 68.509 275.934 67.425 272.804 66.71 269.58 65.671 264.806 64.923 259.974 64.47 255.11 63.89 249.63 63.25 243.61 62.57 237.29 61.21 224.65 60.08 213.19 59.89 204.84 59.79 200.67 59.89 197.3 60 194.97 60.06 193.81 60.13 192.9 60.19 192.29 60.19 192.01 60.24 191.79 60.26 191.6 60.25 191.52 60.25 191.44 60.26 191.36 60.271 191.44 60.271 191.52 60.26 191.6 L60.26 192.3 C60.26 192.95 60.26 193.85 60.17 194.98 60.11 197.3 60.08 200.67 60.23 204.83 60.51 213.15 61.7 224.6 63.06 237.24 63.72 243.55 64.35 249.57 64.92 255.05 65.347 259.904 66.054 264.728 67.04 269.5 67.719 272.711 68.741 275.839 70.09 278.83 70.58 279.88 70.99 280.68 71.29 281.22 L71.62 281.83 C71.72 282 71.76 282 71.75 282.05 Z" fill="#263238" fill-opacity="1" stroke="none"/>
  <path id="Path-55" d="M62.75 236.5 C61.646 236.771 60.527 236.981 59.4 237.13 57.34 237.48 54.49 238.03 51.4 238.8 48.31 239.57 45.52 240.41 43.53 241.06 42.467 241.458 41.382 241.791 40.28 242.06 40.527 241.88 40.8 241.738 41.09 241.64 41.63 241.4 42.42 241.08 43.41 240.71 48.577 238.782 53.944 237.44 59.41 236.71 60.41 236.58 61.3 236.49 61.89 236.46 62.177 236.432 62.467 236.445 62.75 236.5 Z" fill="#263238" fill-opacity="1" stroke="none"/>
  <path id="Path-56" d="M39.93 238.69 C39.994 238.84 40.034 238.998 40.05 239.16 40.12 239.53 40.2 239.98 40.3 240.52 L41.13 245.52 C41.84 249.75 42.87 255.59 44.13 262.01 45.39 268.43 46.73 274.22 47.71 278.4 48.19 280.4 48.58 282.1 48.88 283.35 L49.18 284.7 C49.226 284.856 49.249 285.018 49.25 285.18 49.169 285.04 49.112 284.888 49.08 284.73 L48.68 283.4 C48.35 282.25 47.89 280.57 47.35 278.49 46.28 274.33 44.91 268.55 43.62 262.12 42.33 255.69 41.36 249.83 40.74 245.57 40.43 243.45 40.2 241.72 40.07 240.57 40.01 240.02 39.96 239.57 39.92 239.19 39.904 239.023 39.908 238.856 39.93 238.69 Z" fill="#263238" fill-opacity="1" stroke="none"/>
  <path id="Path-57" d="M60 204.11 C59.957 203.396 60.011 202.68 60.16 201.98 60.667 198.583 61.549 195.253 62.79 192.05 63.007 191.369 63.313 190.72 63.7 190.12 63.84 190.18 62.7 193.22 61.7 197.12 60.7 201.02 60.18 204.13 60 204.11 Z" fill="#263238" fill-opacity="1" stroke="none"/>
  <path id="Path-58" d="M159.14 131.19 C158.98 128.3 158.62 114.19 158.45 112.09 158.271 109.163 157.009 106.408 154.91 104.36 152.795 102.287 149.646 101.677 146.91 102.81 145.189 103.245 143.834 104.57 143.36 106.28 137.44 127.28 138.36 149.75 135.76 171.51 143.49 172.77 153.89 172.26 161.7 171.85 161.68 154.47 160.21 150 159.14 131.19 Z" fill="#263238" fill-opacity="1" stroke="none"/>
  <path id="Path-59" d="M155.89 160.86 C155.844 160.677 155.824 160.489 155.83 160.3 155.83 159.88 155.78 159.3 155.75 158.69 155.75 157.22 155.64 155.2 155.57 152.75 155.46 147.67 155.32 140.75 155.16 133.16 155.1 129.33 155.04 125.69 154.99 122.37 154.99 120.71 154.99 119.14 154.94 117.66 154.958 116.321 154.864 114.983 154.66 113.66 154.42 111.705 153.32 109.96 151.66 108.9 151.042 108.561 150.362 108.35 149.66 108.28 149.66 108.28 149.66 108.28 149.8 108.28 149.94 108.265 150.08 108.265 150.22 108.28 150.769 108.331 151.303 108.491 151.79 108.75 152.56 109.159 153.224 109.741 153.73 110.45 154.403 111.391 154.857 112.471 155.06 113.61 155.295 114.967 155.412 116.342 155.41 117.72 155.41 119.2 155.47 120.78 155.51 122.43 155.57 125.75 155.64 129.43 155.72 133.22 155.82 140.84 155.91 147.74 155.98 152.81 L155.98 158.75 155.98 160.37 C155.964 160.536 155.934 160.699 155.89 160.86 Z" fill="#455a64" fill-opacity="1" stroke="none"/>
  <path id="Path-60" d="M148.86 152.88 C148.793 152.464 148.763 152.042 148.77 151.62 148.77 150.8 148.72 149.62 148.72 148.16 148.72 145.24 148.78 141.16 148.89 136.75 149 132.34 149.12 128.37 149.21 125.35 149.21 123.97 149.29 122.81 149.32 121.9 149.311 121.474 149.348 121.048 149.43 120.63 149.498 121.05 149.528 121.475 149.52 121.9 L149.52 125.36 C149.52 128.28 149.46 132.36 149.35 136.76 149.24 141.16 149.11 145.14 149.03 148.16 148.98 149.54 148.95 150.7 148.92 151.62 148.945 152.041 148.925 152.463 148.86 152.88 Z" fill="#455a64" fill-opacity="1" stroke="none"/>
  <path id="Path-61" d="M97.94 158.28 C96.94 158.28 78.08 159.62 73.7 179.82 69.32 200.02 68.06 228.32 68.06 228.32 L88.51 226.32 Z" fill="#37474f" fill-opacity="1" stroke="none"/>
  <path id="Path-62" d="M107.2 153.81 L110.52 147.68 139.52 146.89 141.52 152.11 158.61 158.28 157.18 234 169.84 303.91 C169.84 303.91 169.71 314 136 317.2 L133.33 280.66 116.48 280.26 116.94 315.95 C116.94 315.95 87.2 315.47 77.77 308.74 77.77 308.74 74.91 274.74 83.03 250.25 90.14 228.81 92.91 223.25 92.91 223.25 L93.49 159 Z" fill="#37474f" fill-opacity="1" stroke="none"/>
  <g id="group-4">
   <path id="Path-63" d="M98.24 159.15 Q89.5 196.56 80.74 234 L86.67 240.29 C92.872 237.398 96.854 231.193 96.9 224.35 96.9 220.89 95.8 217.52 95.66 214.06 95.34 206.26 99.66 199.11 101.66 191.56 104.41 180.87 102.4 169.39 98.24 159.15 Z" fill="#000000" fill-opacity="1" stroke="none"/>
  </g>
  <path id="Path-64" d="M154.91 157.31 C161.91 158.6 167.3 166 168.91 173.94 169.84 178.59 172.55 201.01 172.55 201.01 L174.04 209.23 C174.04 209.23 175.29 237.48 169.3 240.64 162.3 244.32 158.3 240.28 155.98 237.32 153.66 234.36 151.19 215.1 151.19 215.1 L153.8 169 Z" fill="#37474f" fill-opacity="1" stroke="none"/>
  <path id="Path-65" d="M158.22 168.65 C158.218 168.922 158.191 169.193 158.14 169.46 Q158.02 170.31 157.81 171.77 C157.49 173.77 157.05 176.7 156.5 180.24 155.95 183.78 155.24 188.09 154.5 192.81 154.11 195.17 153.71 197.65 153.29 200.22 152.87 202.79 152.35 205.44 152.13 208.22 151.995 209.79 151.995 211.37 152.13 212.94 154.3 222.65 156.33 231.22 157.86 237.36 158.63 240.36 159.25 242.84 159.7 244.59 159.91 245.4 160.08 246.04 160.21 246.53 160.288 246.753 160.338 246.985 160.36 247.22 160.257 247.009 160.177 246.788 160.12 246.56 L159.52 244.64 C159.02 242.96 158.32 240.51 157.52 237.45 155.9 231.33 153.81 222.76 151.63 213.06 151.495 211.463 151.495 209.857 151.63 208.26 151.85 205.48 152.37 202.82 152.8 200.26 153.23 197.7 153.65 195.26 154.04 192.85 154.84 188.14 155.56 183.85 156.16 180.3 156.76 176.75 157.28 173.9 157.64 171.85 157.82 170.9 157.96 170.13 158.07 169.56 158.086 169.252 158.136 168.947 158.22 168.65 Z" fill="#263238" fill-opacity="1" stroke="none"/>
  <path id="Path-66" d="M84 163 L89.3 234 C89.3 234 99.22 188.77 99.62 177.2 99.924 170.564 99.25 163.92 97.62 157.48 97.62 157.48 88 155.93 84 163 Z" fill="#455a64" fill-opacity="1" stroke="none"/>
  <path id="Path-67" d="M80.94 158.5 C81.595 158.703 82.199 159.044 82.71 159.5 83.307 159.977 83.755 160.616 84 161.34 84.282 162.196 84.46 163.082 84.53 163.98 84.7 165.86 84.69 167.56 84.69 168.79 84.733 169.458 84.706 170.128 84.61 170.79 84.412 170.142 84.314 169.468 84.32 168.79 84.22 167.57 84.18 165.87 84.01 164.02 83.84 162.17 83.42 160.51 82.52 159.74 81.62 158.97 80.89 158.58 80.94 158.5 Z" fill="#263238" fill-opacity="1" stroke="none"/>
  <path id="Path-68" d="M117.72 161.07 C117.72 161.07 117.49 160.88 117.12 160.45 116.75 160.02 116.23 159.45 115.58 158.6 L115.88 158.6 C115.16 160.69 114.06 163.72 112.81 167.12 L112.63 167.6 112.36 167.19 C112.21 166.96 112.03 166.73 111.89 166.49 111.051 164.986 110.358 163.406 109.82 161.77 109.29 160.28 108.82 158.94 108.48 157.77 108.14 156.6 107.8 155.77 107.57 155.12 107.432 154.797 107.325 154.463 107.25 154.12 107.467 154.395 107.639 154.702 107.76 155.03 108.05 155.63 108.41 156.53 108.83 157.64 109.25 158.75 109.74 160.11 110.27 161.55 110.827 163.145 111.516 164.69 112.33 166.17 112.47 166.4 112.63 166.61 112.77 166.82 L112.32 166.89 C113.59 163.5 114.74 160.49 115.56 158.43 L115.67 158.14 115.86 158.39 C116.541 159.24 117.162 160.135 117.72 161.07 Z" fill="#263238" fill-opacity="1" stroke="none"/>
  <path id="Path-69" d="M140.72 156.19 C140.643 156.52 140.526 156.839 140.37 157.14 140.11 157.74 139.71 158.59 139.21 159.64 138.71 160.69 138.09 161.93 137.36 163.3 136.594 164.802 135.718 166.246 134.74 167.62 L134.41 168.07 134.28 167.52 134.23 167.29 C133.41 163.8 132.7 160.63 132.23 158.29 L132.55 158.37 C131.853 159.036 131.085 159.623 130.26 160.12 129.72 160.51 129.47 160.79 129.44 160.76 129.41 160.73 129.61 160.42 130.13 159.96 130.894 159.408 131.609 158.792 132.27 158.12 L132.5 157.85 132.6 158.2 C133.18 160.49 133.95 163.65 134.77 167.14 L134.77 167.37 134.31 167.27 C135.269 165.917 136.14 164.504 136.92 163.04 L138.86 159.45 140.17 157.02 C140.318 156.721 140.503 156.443 140.72 156.19 Z" fill="#263238" fill-opacity="1" stroke="none"/>
  <path id="Path-70" d="M118.22 160.79 C118.22 160.79 115.41 197.29 114.68 201.99 113.95 206.69 116.45 280.26 116.45 280.26 L132.89 281.32 C132.89 281.32 133.06 220.57 132.89 220.15 132.72 219.73 132.97 177.26 132.97 177.26 L129.24 160.34 122.88 167.87 Z" fill="#ffffff" fill-opacity="1" stroke="none"/>
  <path id="Path-71" d="M136.57 195.49 C136.57 195.57 135.99 195.7 135.7 196.49 135.529 196.919 135.555 197.401 135.77 197.81 136.082 198.265 136.643 198.48 137.18 198.35 137.728 198.288 138.176 197.887 138.3 197.35 138.359 196.892 138.212 196.431 137.9 196.09 137.582 195.77 137.174 195.553 136.73 195.47 136.73 195.47 136.86 195.37 137.13 195.37 137.507 195.41 137.859 195.576 138.13 195.84 138.573 196.244 138.799 196.833 138.74 197.43 138.574 198.169 137.983 198.738 137.238 198.875 136.493 199.012 135.738 198.692 135.32 198.06 135.047 197.523 135.047 196.887 135.32 196.35 135.484 195.997 135.767 195.714 136.12 195.55 136.41 195.44 136.56 195.46 136.57 195.49 Z" fill="#263238" fill-opacity="1" stroke="none"/>
  <path id="Path-72" d="M136.57 227.35 C136.57 227.43 135.99 227.57 135.7 228.35 135.529 228.779 135.555 229.261 135.77 229.67 136.099 230.104 136.645 230.314 137.18 230.215 137.715 230.116 138.148 229.723 138.3 229.2 138.36 228.741 138.214 228.28 137.9 227.94 137.34 227.31 136.72 227.4 136.73 227.31 136.74 227.22 136.86 227.21 137.13 227.22 137.506 227.255 137.859 227.417 138.13 227.68 138.569 228.087 138.794 228.674 138.74 229.27 138.574 230.009 137.983 230.578 137.238 230.715 136.493 230.852 135.738 230.532 135.32 229.9 135.048 229.366 135.048 228.734 135.32 228.2 135.484 227.847 135.767 227.564 136.12 227.4 136.41 227.3 136.56 227.33 136.57 227.35 Z" fill="#263238" fill-opacity="1" stroke="none"/>
  <path id="Path-73" d="M138 265.89 C138 265.97 137.42 266.11 137.13 266.89 136.959 267.319 136.985 267.801 137.2 268.21 137.529 268.644 138.075 268.854 138.61 268.755 139.145 268.656 139.578 268.263 139.73 267.74 139.79 267.281 139.643 266.82 139.33 266.48 138.77 265.85 138.15 265.94 138.16 265.85 138.17 265.76 138.29 265.75 138.56 265.76 138.937 265.792 139.291 265.955 139.56 266.22 140.006 266.622 140.236 267.212 140.18 267.81 140.018 268.555 139.424 269.129 138.675 269.267 137.925 269.404 137.166 269.078 136.75 268.44 136.482 267.905 136.482 267.275 136.75 266.74 136.914 266.387 137.197 266.104 137.55 265.94 137.87 265.84 138 265.87 138 265.89 Z" fill="#263238" fill-opacity="1" stroke="none"/>
  <g id="group-5">
   <path id="Path-74" d="M159.34 195.2 C158.98 192.29 158.21 189.44 158.02 186.51 157.78 183.01 158.39 179.51 157.7 176.02 155.32 180.02 154.78 184.79 154.77 189.42 154.76 194.05 155.19 198.7 154.53 203.28 154.08 206.42 153.06 210.19 152.68 213.34 152.3 216.49 153.2 218.22 154.12 222.95 157.29 214 160.5 204.63 159.34 195.2 Z" fill="#000000" fill-opacity="1" stroke="none"/>
  </g>
  <path id="Path-75" d="M153.79 187.76 C157.618 198.702 156.097 210.806 149.68 220.46" fill="#37474f" fill-opacity="1" stroke="none"/>
  <path id="Path-76" d="M149.68 220.46 C149.59 220.4 150.68 218.82 152 216.04 152.761 214.42 153.409 212.749 153.94 211.04 154.568 208.93 155.03 206.773 155.32 204.59 155.576 202.403 155.663 200.2 155.58 198 155.494 196.204 155.284 194.417 154.95 192.65 154.36 189.65 153.69 187.83 153.79 187.79 154.007 188.187 154.182 188.606 154.31 189.04 154.46 189.45 154.63 189.95 154.79 190.54 154.95 191.13 155.17 191.81 155.31 192.54 155.699 194.321 155.95 196.13 156.06 197.95 156.325 202.415 155.762 206.89 154.4 211.15 153.837 212.866 153.145 214.538 152.33 216.15 152 216.86 151.63 217.46 151.33 217.99 151.07 218.451 150.786 218.898 150.48 219.33 150.254 219.734 149.986 220.113 149.68 220.46 Z" fill="#263238" fill-opacity="1" stroke="none"/>
  <path id="Path-77" d="M104.12 236 C103.418 235.565 102.773 235.045 102.2 234.45 99.278 231.741 96.714 228.669 94.57 225.31 94.081 224.638 93.681 223.905 93.38 223.13 93.934 223.752 94.432 224.421 94.87 225.13 95.76 226.36 97.01 228.04 98.49 229.82 99.97 231.6 101.4 233.12 102.49 234.22 103.082 234.767 103.627 235.362 104.12 236 Z" fill="#263238" fill-opacity="1" stroke="none"/>
  <path id="Path-78" d="M97.54 237.05 C97.117 236.475 96.78 235.842 96.54 235.17 95.132 232.021 94.124 228.709 93.54 225.31 93.368 224.614 93.298 223.896 93.33 223.18 93.48 223.18 94.06 226.35 95.23 230.18 96.4 234.01 97.68 237 97.54 237.05 Z" fill="#263238" fill-opacity="1" stroke="none"/>
  <path id="Path-79" d="M129.7 218 C129.7 218.07 129.09 217.68 128.1 217.29 125.483 216.269 122.546 216.478 120.1 217.86 119.18 218.39 118.69 218.86 118.62 218.78 118.943 218.271 119.386 217.849 119.91 217.55 121.126 216.739 122.532 216.26 123.99 216.16 125.446 216.048 126.906 216.324 128.22 216.96 128.791 217.18 129.299 217.537 129.7 218 Z" fill="#263238" fill-opacity="1" stroke="none"/>
  <path id="Path-80" d="M74.18 215.63 C74.18 215.63 66.83 223.63 67.39 229.21 67.95 234.79 70.55 247.07 77.39 246.7 84.23 246.33 90.5 235.26 91.39 226.48 92.28 217.7 91.39 197.04 91.39 197.04 L81.58 199.25 Z" fill="#ffbe9d" fill-opacity="1" stroke="none"/>
  <path id="Path-81" d="M59.58 164.43 C64.66 170.92 77.25 186.57 77.25 186.57 L89.1 183.57 C89.966 183.354 90.61 182.626 90.72 181.74 90.791 181.168 90.628 180.591 90.27 180.14 L73.66 159.14 C72.388 157.523 70.216 156.916 68.29 157.64 L60.7 160.49 C59.945 160.775 59.369 161.402 59.148 162.178 58.928 162.955 59.088 163.79 59.58 164.43 Z" fill="#263238" fill-opacity="1" stroke="none"/>
  <path id="Path-82" d="M89.46 180.91 C89.052 180.578 88.67 180.213 88.32 179.82 87.61 179.08 86.6 178.01 85.39 176.66 82.97 173.95 79.73 170.1 76.39 165.66 75.56 164.55 74.76 163.46 74 162.39 73.372 161.343 72.526 160.443 71.52 159.75 70.531 159.29 69.389 159.29 68.4 159.75 L65.6 160.75 61.51 162.1 C61.018 162.29 60.509 162.434 59.99 162.53 60.457 162.287 60.942 162.08 61.44 161.91 L65.44 160.4 68.23 159.4 C68.765 159.2 69.323 159.066 69.89 159 70.524 158.948 71.159 159.08 71.72 159.38 72.802 160.092 73.714 161.035 74.39 162.14 L76.78 165.4 C80.1 169.83 83.28 173.7 85.63 176.46 86.76 177.79 87.71 178.89 88.43 179.73 88.804 180.095 89.149 180.49 89.46 180.91 Z" fill="#455a64" fill-opacity="1" stroke="none"/>
  <path id="Path-83" d="M66.31 162.25 C66.674 162.071 67.109 162.129 67.413 162.398 67.717 162.666 67.829 163.091 67.697 163.474 67.564 163.857 67.213 164.122 66.809 164.146 66.404 164.169 66.025 163.945 65.85 163.58 65.613 163.086 65.818 162.492 66.31 162.25" fill="#ffffff" fill-opacity="1" stroke="none"/>
  <path id="Path-84" d="M76.47 176.44 L70.99 177.35 68.99 179.15 C68.416 179.646 68.13 180.398 68.23 181.15 68.386 182.135 68.815 183.057 69.47 183.81 70.176 184.686 70.974 185.484 71.85 186.19 71.85 186.19 69.93 189.31 72.91 190.89 72.91 190.89 72.71 194.12 75.84 194.45 75.84 194.45 76.75 197.52 79.11 197.69 L81.54 200.1 80.8 201.57 91.67 201.91 C91.725 199.01 91.581 196.11 91.24 193.23 91.055 192.058 90.771 190.904 90.39 189.78 90.94 186.72 88.65 185.44 88.3 185.66 88.3 185.66 93.49 184.3 92.83 180.73 L87.83 182.01 78.7 183.91 84.56 180 C84.85 179.733 85.106 179.431 85.32 179.1 85.82 178.31 86.56 176.88 85.93 176.04 85.66 175.69 78.46 178.7 78.46 178.7 L74 182.81 72.6 180.81 C72.6 180.81 77.19 179.87 76.47 176.44 Z" fill="#ffbe9d" fill-opacity="1" stroke="none"/>
  <path id="Path-85" d="M89 185.7 C89 185.86 87.07 186.13 84.76 186.81 82.45 187.49 80.65 188.28 80.58 188.14 81.78 187.273 83.139 186.651 84.58 186.31 85.998 185.813 87.501 185.605 89 185.7 Z" fill="#eb996e" fill-opacity="1" stroke="none"/>
  <path id="Path-86" d="M86.49 195.11 C87.144 194.516 87.749 193.87 88.3 193.18 L88.49 192.93 88.62 193.22 C88.8 193.603 89.118 193.903 89.51 194.06 89.929 194.27 90.429 194.239 90.82 193.98 90.99 193.848 91.061 193.626 91 193.42 L90.85 192.52 C90.775 191.895 90.651 191.276 90.48 190.67 90.311 190.141 89.815 189.787 89.26 189.8 88.695 189.825 88.136 189.929 87.6 190.11 L84.67 190.83 C83.778 191.091 82.864 191.268 81.94 191.36 82.792 190.987 83.676 190.689 84.58 190.47 L87.46 189.65 C88.044 189.434 88.658 189.313 89.28 189.29 89.636 189.298 89.982 189.405 90.28 189.6 90.582 189.826 90.812 190.135 90.94 190.49 91.121 191.129 91.251 191.781 91.33 192.44 91.33 192.75 91.42 193.06 91.47 193.36 91.545 193.741 91.393 194.131 91.08 194.36 90.549 194.714 89.868 194.752 89.3 194.46 88.843 194.229 88.486 193.837 88.3 193.36 L88.61 193.36 C88.191 193.884 87.7 194.346 87.15 194.73 86.74 195 86.51 195.14 86.49 195.11 Z" fill="#eb996e" fill-opacity="1" stroke="none"/>
  <path id="Path-87" d="M76.88 180 C76.156 181.129 75.34 182.196 74.44 183.19 73.681 184.295 72.827 185.332 71.89 186.29 72.398 185.047 73.111 183.897 74 182.89 74.782 181.764 75.757 180.786 76.88 180 Z" fill="#eb996e" fill-opacity="1" stroke="none"/>
  <path id="Path-88" d="M79.14 183.77 C79.14 183.92 78 184.28 77.14 185.45 76.69 186.193 76.353 186.998 76.14 187.84 76.07 187.84 75.97 187.54 75.99 187.02 76.115 185.639 76.987 184.438 78.26 183.89 78.8 183.71 79.12 183.71 79.14 183.77 Z" fill="#eb996e" fill-opacity="1" stroke="none"/>
  <path id="Path-89" d="M137.8 103.21 C136.96 101.01 137.29 98.56 136.96 96.21 136.24 91.08 132.11 86.96 127.33 84.95 122.88 83.09 117.45 83.49 112.09 85.21 108.367 86.334 105.041 88.495 102.5 91.44 99.215 95.492 98.097 100.885 99.5 105.91 L125.76 102.12 C128.21 104.12 130.76 106.23 133.71 107.37 134.569 107.753 135.514 107.905 136.45 107.81 137.384 107.682 138.162 107.028 138.45 106.13 138.75 105.14 138.17 104.17 137.8 103.21 Z" fill="#263238" fill-opacity="1" stroke="none"/>
  <path id="Path-90" d="M121.48 83.64 C127.23 82.64 132.28 84.89 137.12 88.14 141.953 91.48 145.649 96.219 147.71 101.72 149.92 107.45 150.48 115.72 148.71 121.63 147.161 127.262 142.956 131.781 137.45 133.73 129.55 136.53 120.45 136.18 113.73 131.12 107.01 126.06 103.23 117.69 102.92 109.31 102.625 103.493 104.168 97.731 107.33 92.84 110.551 87.951 115.658 84.619 121.43 83.64" fill="#263238" fill-opacity="1" stroke="none"/>
  <path id="Path-91" d="M112.35 146.17 L112.56 150.85 122.88 169.1 137.88 149.9 138.39 101.9 C138.348 99.676 136.61 97.855 134.39 97.71 L111.48 92.82 C104.18 92.33 99.68 101.46 99.48 108.82 99.28 116.95 99.34 126.88 100.48 132.89 102.87 144.98 112.25 146.18 112.25 146.18" fill="#ffbe9d" fill-opacity="1" stroke="none"/>
  <path id="Path-92" d="M102.82 118.89 C102.836 119.738 103.532 120.416 104.38 120.41 104.783 120.426 105.175 120.279 105.469 120.003 105.762 119.726 105.932 119.343 105.94 118.94 105.908 118.1 105.22 117.435 104.38 117.43 103.978 117.411 103.585 117.555 103.292 117.83 102.998 118.105 102.828 118.488 102.82 118.89 Z" fill="#263238" fill-opacity="1" stroke="none"/>
  <path id="Path-93" d="M101.88 113.5 C102.08 113.7 103.23 112.78 104.88 112.72 106.53 112.66 107.82 113.45 107.99 113.24 108.16 113.03 107.87 112.79 107.31 112.42 106.568 111.939 105.693 111.705 104.81 111.75 103.938 111.778 103.097 112.083 102.41 112.62 101.94 113 101.78 113.41 101.88 113.5 Z" fill="#263238" fill-opacity="1" stroke="none"/>
  <path id="Path-94" d="M118.05 118.6 C118.072 119.45 118.77 120.126 119.62 120.12 120.02 120.136 120.41 119.991 120.702 119.716 120.994 119.441 121.162 119.061 121.17 118.66 121.154 117.812 120.458 117.134 119.61 117.14 119.208 117.121 118.815 117.265 118.522 117.54 118.228 117.815 118.058 118.198 118.05 118.6 Z" fill="#263238" fill-opacity="1" stroke="none"/>
  <path id="Path-95" d="M117.82 113.11 C118.02 113.31 119.17 112.39 120.82 112.33 122.47 112.27 123.82 113.07 123.94 112.85 124.06 112.63 123.82 112.4 123.26 112.03 122.518 111.549 121.643 111.315 120.76 111.36 119.888 111.388 119.047 111.693 118.36 112.23 117.88 112.65 117.72 113 117.82 113.11 Z" fill="#263238" fill-opacity="1" stroke="none"/>
  <path id="Path-96" d="M112.76 125.87 C111.866 125.627 110.946 125.495 110.02 125.48 109.59 125.48 109.18 125.38 109.1 125.09 109.044 124.649 109.128 124.201 109.34 123.81 L110.48 120.5 C112.07 115.79 113.2 111.92 113.01 111.86 112.82 111.8 111.38 115.56 109.79 120.28 L108.7 123.61 C108.453 124.138 108.396 124.735 108.54 125.3 108.682 125.599 108.949 125.819 109.27 125.9 109.509 125.955 109.755 125.978 110 125.97 110.92 126.059 111.848 126.025 112.76 125.87 Z" fill="#263238" fill-opacity="1" stroke="none"/>
  <path id="Path-97" d="M112.35 146.17 C118.094 145.785 123.645 143.944 128.48 140.82 128.48 140.82 124.7 149.39 112.48 148.71 Z" fill="#eb996e" fill-opacity="1" stroke="none"/>
  <path id="Path-98" d="M114.05 129.48 C114.669 128.799 115.593 128.483 116.5 128.64 117.149 128.701 117.727 129.074 118.05 129.64 118.52 130.328 118.578 131.217 118.2 131.96 117.677 132.605 116.809 132.86 116.02 132.6 115.293 132.434 114.611 132.114 114.02 131.66 113.829 131.476 113.697 131.239 113.64 130.98 113.559 130.439 113.728 129.891 114.1 129.49" fill="#eb996e" fill-opacity="1" stroke="none"/>
  <path id="Path-99" d="M117.92 109.18 C118.1 109.63 119.77 109.35 121.74 109.52 123.71 109.69 125.34 110.16 125.58 109.74 125.69 109.54 125.4 109.12 124.74 108.74 123.868 108.218 122.884 107.913 121.87 107.85 120.847 107.765 119.818 107.926 118.87 108.32 118.19 108.59 117.84 109 117.92 109.18 Z" fill="#263238" fill-opacity="1" stroke="none"/>
  <path id="Path-100" d="M102.09 106.14 C102.4 106.51 103.54 106.07 104.93 106 106.32 105.93 107.51 106.16 107.76 105.75 107.87 105.56 107.67 105.18 107.15 104.84 105.701 104.007 103.893 104.13 102.57 105.15 102.1 105.56 102 106 102.09 106.14 Z" fill="#263238" fill-opacity="1" stroke="none"/>
  <path id="Path-101" d="M142 99.68 C139.63 92.68 129.27 83.17 121.92 83.82 L110.31 91.08 C111.164 95.148 114.177 98.422 118.16 99.61 120.25 100.2 122.75 100.33 124.02 102.09 125.29 103.85 124.63 106.56 125.84 108.42 127.51 111 131.95 110.79 133.23 113.59 133.78 114.81 133.53 116.28 134.11 117.5 134.88 119.11 139.04 121.1 140.74 120.5 142.44 119.9 142.38 117.02 142.91 115.5 143.579 113.771 143.632 111.864 143.06 110.1 142.26 106.69 143.14 103 142 99.68 Z" fill="#263238" fill-opacity="1" stroke="none"/>
  <path id="Path-102" d="M135.74 122.06 C135.74 121.15 136.68 118.98 137.57 118.8 139.94 118.34 144.25 118.37 144.57 124.44 144.94 132.73 136.57 131.38 136.51 131.15 136.45 130.92 135.85 125.19 135.74 122.06 Z" fill="#ffbe9d" fill-opacity="1" stroke="none"/>
  <path id="Path-103" d="M138.86 127.89 C138.86 127.89 139.01 127.99 139.25 128.09 139.599 128.235 139.991 128.235 140.34 128.09 141.2 127.73 141.87 126.31 141.85 124.82 141.843 124.107 141.672 123.406 141.35 122.77 141.174 122.25 140.75 121.852 140.22 121.71 139.873 121.629 139.517 121.811 139.38 122.14 139.28 122.38 139.38 122.54 139.3 122.55 139.22 122.56 139.11 122.42 139.17 122.08 139.201 121.87 139.308 121.678 139.47 121.54 139.692 121.359 139.975 121.273 140.26 121.3 140.959 121.403 141.552 121.866 141.82 122.52 142.204 123.223 142.413 124.009 142.43 124.81 142.43 126.48 141.66 128.08 140.43 128.48 139.985 128.631 139.496 128.572 139.1 128.32 138.88 128.09 138.83 127.91 138.86 127.89 Z" fill="#eb996e" fill-opacity="1" stroke="none"/>
  <path id="Path-104" d="M149.52 110.72 C149.771 109.915 149.879 109.072 149.84 108.23 149.862 104.13 148.51 100.141 146 96.9 145.523 96.208 144.931 95.603 144.25 95.11 144.09 95.21 146.87 97.97 148.33 102.42 149.152 105.109 149.553 107.909 149.52 110.72 Z" fill="#37474f" fill-opacity="1" stroke="none"/>
  <path id="Path-105" d="M112.73 88.58 C111.96 91.95 106.83 96.27 104.57 98.9 100.27 103.9 99.46 104.64 99.49 119.75 97.265 115.06 96.088 109.941 96.04 104.75 96.141 100.336 97.851 96.111 100.85 92.87 103.914 89.651 108.317 88.065 112.73 88.59" fill="#263238" fill-opacity="1" stroke="none"/>
  <path id="Path-106" d="M146.23 99.57 C145.777 99.735 145.308 99.853 144.83 99.92 144.37 100.02 143.83 100.13 143.15 100.21 142.47 100.29 141.74 100.43 140.9 100.47 138.946 100.613 136.984 100.613 135.03 100.47 132.631 100.297 130.251 99.932 127.91 99.38 125.577 98.795 123.296 98.019 121.09 97.06 119.294 96.27 117.559 95.348 115.9 94.3 115.17 93.88 114.57 93.42 114.03 93.04 113.56 92.73 113.106 92.397 112.67 92.04 112.281 91.736 111.917 91.401 111.58 91.04 112.007 91.269 112.412 91.537 112.79 91.84 113.16 92.12 113.62 92.45 114.18 92.84 114.74 93.23 115.35 93.63 116.08 94.03 117.747 95.029 119.481 95.911 121.27 96.67 123.45 97.618 125.7 98.397 128 99 130.303 99.544 132.642 99.919 135 100.12 136.937 100.265 138.881 100.282 140.82 100.17 141.65 100.17 142.4 100.04 143.05 99.99 143.7 99.94 144.27 99.85 144.73 99.78 145.224 99.67 145.725 99.599 146.23 99.57 Z" fill="#455a64" fill-opacity="1" stroke="none"/>
  <path id="Path-107" d="M147.09 105.52 C146.768 105.639 146.432 105.717 146.09 105.75 145.208 105.916 144.316 106.029 143.42 106.09 137.458 106.527 131.489 105.349 126.14 102.68 125.332 102.285 124.548 101.844 123.79 101.36 123.498 101.2 123.229 101.002 122.99 100.77 122.99 100.7 124.24 101.43 126.29 102.37 131.646 104.832 137.51 105.987 143.4 105.74 145.69 105.65 147.08 105.43 147.09 105.52 Z" fill="#455a64" fill-opacity="1" stroke="none"/>
  <path id="Path-108" d="M149.19 105.72 C149.333 106.124 149.427 106.544 149.47 106.97 149.6 107.79 149.73 108.97 149.81 110.44 149.9 112.162 149.9 113.888 149.81 115.61 149.731 117.726 149.447 119.829 148.96 121.89 147.984 125.677 145.708 129.001 142.53 131.28 141.565 131.939 140.533 132.492 139.45 132.93 139.065 133.116 138.659 133.254 138.24 133.34 138.6 133.112 138.978 132.915 139.37 132.75 140.402 132.25 141.39 131.661 142.32 130.99 143.684 129.981 144.874 128.755 145.84 127.36 147.057 125.676 147.949 123.781 148.47 121.77 148.943 119.736 149.237 117.665 149.35 115.58 149.47 113.65 149.49 111.91 149.46 110.45 149.43 108.99 149.36 107.81 149.28 107 149.212 106.577 149.182 106.148 149.19 105.72 Z" fill="#455a64" fill-opacity="1" stroke="none"/>
  <path id="Path-109" d="M116.12 132.58 C116.569 132.584 117.012 132.478 117.41 132.27 117.804 132.028 118.074 131.626 118.15 131.17 118.241 130.611 118.08 130.04 117.71 129.61 117.321 129.193 116.789 128.939 116.22 128.9 115.741 128.871 115.264 128.975 114.84 129.2 114.1 129.59 113.84 130.07 113.72 130.02 113.6 129.97 113.87 129.42 114.65 128.88 115.119 128.565 115.675 128.404 116.24 128.42 116.95 128.436 117.623 128.744 118.1 129.27 118.578 129.818 118.771 130.559 118.62 131.27 118.509 131.843 118.14 132.334 117.62 132.6 116.68 133 116.07 132.62 116.12 132.58 Z" fill="#263238" fill-opacity="1" stroke="none"/>
  <path id="Path-110" d="M167.27 200.86 L171.73 191.35 C172.47 188.35 175.49 187.35 179.19 187.11 L183.1 185.51 C183.1 185.51 185.95 181.4 188.59 181.51 189.014 181.524 189.383 181.805 189.51 182.21 189.6 182.483 189.56 182.781 189.4 183.02 L186.19 187.96 183.63 189.22 C183.63 189.22 186.03 189.8 186.98 188.91 187.93 188.02 191.14 185.48 191.14 185.48 191.14 185.48 193.59 181.07 196.77 181.4 196.964 181.417 197.135 181.531 197.228 181.702 197.32 181.873 197.321 182.078 197.23 182.25 L194.79 186.96 C194.79 186.96 199.24 180.27 203.48 182.77 L198.78 187.88 C198.78 187.88 205.6 184.01 208.32 187.25 L191.06 194.38 181.11 196.33 177.63 205.77 174.57 204 Z" fill="#ffbe9d" fill-opacity="1" stroke="none"/>
  <path id="Path-111" d="M177.61 213.21 C177.61 213.21 178.14 230.11 175.02 234.77 171.9 239.43 166.1 245.77 158.92 240.69 L154.43 223.69 C154.43 223.69 161.74 215.69 163.07 212.39 166.38 204.2 171.73 191.39 171.73 191.39 L181.25 195.63 Z" fill="#ffbe9d" fill-opacity="1" stroke="none"/>
  <path id="Path-112" d="M164.15 210.84 C163.856 211.585 163.494 212.301 163.07 212.98 162.37 214.27 161.43 216.07 160.5 218.11 159.57 220.15 158.82 222.04 158.29 223.42 158.059 224.184 157.754 224.924 157.38 225.63 157.474 224.833 157.665 224.05 157.95 223.3 158.521 221.457 159.213 219.653 160.02 217.9 160.824 216.142 161.736 214.436 162.75 212.79 163.136 212.086 163.606 211.431 164.15 210.84 Z" fill="#eb996e" fill-opacity="1" stroke="none"/>
  <path id="Path-113" d="M186.19 187.91 C185.506 188.509 184.716 188.974 183.86 189.28 183.079 189.74 182.217 190.046 181.32 190.18 182.001 189.582 182.788 189.118 183.64 188.81 184.425 188.351 185.291 188.045 186.19 187.91 Z" fill="#eb996e" fill-opacity="1" stroke="none"/>
  <path id="Path-114" d="M187.62 192.38 C187.62 192.31 188.07 192.01 188.88 191.66 L190.32 191.07 191.15 190.72 C191.427 190.615 191.672 190.439 191.86 190.21 192.73 189.21 193.44 188.21 194.01 187.54 194.58 186.87 195.01 186.45 195.06 186.54 195.003 186.657 194.94 186.77 194.87 186.88 L194.31 187.76 C193.683 188.738 192.992 189.674 192.24 190.56 192.119 190.699 191.985 190.826 191.84 190.94 191.69 191.041 191.529 191.125 191.36 191.19 L190.49 191.52 C189.94 191.72 189.43 191.87 189.01 192.01 188.563 192.189 188.097 192.314 187.62 192.38 Z" fill="#eb996e" fill-opacity="1" stroke="none"/>
 </g>
</svg>
